<svg xmlns="http://www.w3.org/2000/svg" viewBox="0 0 828 537"><defs><style>.a,.ab,.b,.g,.i,.l,.r,.x{fill:#fff;}.a,.ad,.g{stroke:#e67e22;}.a,.ac,.ad,.b{stroke-linecap:round;stroke-linejoin:round;stroke-width:4px;}.ac,.b,.x{stroke:#2980b9;}.c,.f,.i,.j,.k,.s,.t,.v{isolation:isolate;}.c{font-size:26px;}.c,.z{fill:#2980b9;}.c,.i,.j{font-family:SegoeUI-Bold, Segoe UI;}.c,.i,.j,.t{font-weight:700;}.d{letter-spacing:-0.02em;}.e{letter-spacing:0em;}.f,.i{font-size:15px;}.f{fill:#7f8c8d;}.f,.k,.v{font-family:SegoeUI, Segoe UI;}.g,.l,.r,.x{stroke-width:2px;}.h{fill:#e67e22;}.j{font-size:13.5px;fill:#1f497d;}.k{font-size:11px;}.k,.v{fill:#333;}.l{stroke:#27ae60;}.m{fill:#27ae60;}.n{letter-spacing:-0.01em;}.o{letter-spacing:-0.01em;}.p{letter-spacing:0em;}.q{letter-spacing:-0.02em;}.r{stroke:#c0392b;}.t,.v{font-size:12.5px;}.t{fill:#c0392b;font-family:Arial-BoldMT, Arial;}.u{letter-spacing:-0.02em;}.w{letter-spacing:-0.03em;}.y{letter-spacing:0em;}.aa{letter-spacing:-0.02em;}.ac,.ad{fill:none;}</style></defs><line class="a" x1="15.16" y1="279.42" x2="777.88" y2="282.42"/><line class="b" x1="75.38" y1="154.08" x2="811.02" y2="154.08"/><text class="c" transform="translate(187.03 40)">Change Management: 9-<tspan class="d" x="301.11" y="0">S</tspan><tspan class="e" x="315.03" y="0">t</tspan><tspan x="325.05" y="0">ep P</tspan><tspan class="e" x="378.38" y="0">r</tspan><tspan x="388.63" y="0">ocess</tspan></text><text class="f" transform="translate(159.18 64)">The formal sequence for requesting, approving, and documenting IT changes</text><path class="g" d="M48.17,232.92h217a4.82,4.82,0,0,1,5,4.57v89.86a4.83,4.83,0,0,1-5,4.57h-217a4.82,4.82,0,0,1-5-4.57V237.49A4.81,4.81,0,0,1,48.17,232.92Z"/><ellipse class="h" cx="153.67" cy="232.25" rx="15.94" ry="16"/><text class="i" transform="translate(149.37 238.25)">6</text><text class="j" transform="translate(125 267.92)">End-User</text><text class="j" transform="translate(117.5 283.92)">Acceptance</text><text class="k" transform="translate(96.88 307.92)">Confirms affected users</text><text class="k" transform="translate(74.55 322.92)">understand &amp; accept the change</text><path class="g" d="M298.84,232.92h220c3.3,0,6,2.05,6,4.57v89.86c0,2.51-2.7,4.57-6,4.57h-220c-3.3,0-6-2.06-6-4.57V237.49C292.84,235,295.54,232.92,298.84,232.92Z"/><circle class="h" cx="412.59" cy="237.25" r="16"/><text class="i" transform="translate(408.28 243.25)">5</text><text class="j" transform="translate(375.35 267.92)">Plan for the</text><text class="j" transform="translate(388.77 283.92)">Change</text><text class="k" transform="translate(340.84 307.92)">Documents exactly how it will</text><text class="k" transform="translate(338.81 322.92)">be implemented, with timeline</text><path class="g" d="M553.52,232.92h220c3.3,0,6,2.05,6,4.57v89.86c0,2.51-2.7,4.57-6,4.57h-220c-3.3,0-6-2.06-6-4.57V237.49C547.52,235,550.22,232.92,553.52,232.92Z"/><circle class="h" cx="663.52" cy="232.25" r="16"/><text class="i" transform="translate(659.21 238.25)">4</text><text class="j" transform="translate(650.41 267.92)">Risk</text><text class="j" transform="translate(637.65 283.92)">Analysis</text><text class="k" transform="translate(618.61 307.92)">Assigns a risk level</text><text class="k" transform="translate(610.53 322.92)">(low / medium / high)</text><path class="l" d="M561.73,363.58h220c3.3,0,6,2.06,6,4.57V458c0,2.52-2.7,4.57-6,4.57h-220c-3.3,0-6-2.05-6-4.57V368.15C555.73,365.64,558.43,363.58,561.73,363.58Z"/><text class="j" transform="translate(626.56 392.58)">Document the</text><text class="j" transform="translate(644.94 408.58)">Changes</text><text class="k" transform="translate(600.87 432.58)">Change log updated with the</text><text class="k" transform="translate(594.41 447.58)">full record after implementation</text><circle class="m" cx="671.73" cy="358.58" r="16"/><text class="i" transform="translate(667.42 364.58)">9</text><path class="l" d="M307.06,363.58h220c3.3,0,6,2.06,6,4.57V458c0,2.52-2.7,4.57-6,4.57h-220c-3.3,0-6-2.05-6-4.57V368.15C301.06,365.64,303.76,363.58,307.06,363.58Z"/><text class="j" transform="translate(391.34 392.58)">Bac<tspan class="n" x="22.4" y="0">k</tspan><tspan x="29.76" y="0">out</tspan></text><text class="j" transform="translate(403.28 408.58)">Plan</text><text class="k" transform="translate(352.89 432.58)">Documents exactly how to</text><text class="k" transform="translate(340.94 447.58)">revert if something goes wrong</text><circle class="m" cx="417.06" cy="358.58" r="16"/><text class="i" transform="translate(412.74 364.58)">8</text><path class="l" d="M52.38,363.58h220c3.3,0,6,2.06,6,4.57V458c0,2.52-2.7,4.57-6,4.57h-220c-3.3,0-6-2.05-6-4.57V368.15C46.38,365.64,49.08,363.58,52.38,363.58Z"/><text class="j" transform="translate(117.84 392.58)">Change B<tspan class="o" x="60.02" y="0">o</tspan><tspan x="68.15" y="0">a</tspan><tspan class="p" x="75.41" y="0">r</tspan><tspan x="80.73" y="0">d</tspan></text><text class="j" transform="translate(133.37 408.58)">App<tspan class="e" x="26.24" y="0">r</tspan><tspan x="31.55" y="0">o</tspan><tspan class="q" x="39.81" y="0">v</tspan><tspan x="46.92" y="0">al</tspan></text><text class="k" transform="translate(111.8 432.58)">The CAB reviews and</text><text class="k" transform="translate(89.83 447.58)">formally approves the request</text><circle class="m" cx="162.38" cy="358.58" r="16"/><text class="i" transform="translate(158.07 364.58)">7</text><path class="r" d="M9,482H819a4,4,0,0,1,4,4v27a4,4,0,0,1-4,4H9a4,4,0,0,1-4-4V486A4,4,0,0,1,9,482Z"/><g class="s"><text class="t" transform="translate(66.83 504)">Exam <tspan class="u" x="36.83" y="0">T</tspan><tspan x="44.24" y="0">ip: </tspan></text><text class="v" transform="translate(129.81 504)"><tspan class="w">S</tspan><tspan x="6.24" y="0">teps run in strict numerical order — Backout Plan (8) always comes before Document the Changes (9), never after.</tspan></text></g><path class="x" d="M301.34,102.58h220c3.3,0,6,2.14,6,4.76v93.49c0,2.61-2.7,4.75-6,4.75h-220c-3.3,0-6-2.14-6-4.75V107.34C295.34,104.72,298,102.58,301.34,102.58Z"/><text class="j" transform="translate(364.81 135.06)">Purpose <tspan class="q" x="55.42" y="0">o</tspan><tspan class="y" x="63.47" y="0">f the</tspan></text><text class="j" transform="translate(387.52 151.06)">Change</text><text class="k" transform="translate(353.08 175.06)">Clearly defines WHY the</text><text class="k" transform="translate(368.77 190.06)">change is needed</text><circle class="z" cx="411.34" cy="100.08" r="16"/><text class="i" transform="translate(407.03 106.08)">2</text><path class="x" d="M556,102.58H776c3.3,0,6,2.14,6,4.76v93.49c0,2.61-2.7,4.75-6,4.75H556c-3.3,0-6-2.14-6-4.75V107.34C550,104.72,552.72,102.58,556,102.58Z"/><text class="j" transform="translate(626.31 135.06)">Scope <tspan class="aa" x="41.7" y="0">o</tspan><tspan x="49.75" y="0">f the</tspan></text><text class="j" transform="translate(642.16 151.06)">Change</text><text class="k" transform="translate(611.83 175.06)">Defines what systems/</text><text class="k" transform="translate(623.17 190.06)">users are affected</text><circle class="z" cx="666.02" cy="100.08" r="16"/><text class="i" transform="translate(661.71 106.08)">3</text><path class="x" d="M51.37,102.58h216.3a4.9,4.9,0,0,1,5,4.76v93.49a4.9,4.9,0,0,1-5,4.75H51.37a4.89,4.89,0,0,1-5-4.75V107.34A4.9,4.9,0,0,1,51.37,102.58Z"/><text class="j" transform="translate(89.91 135.06)">Documen<tspan class="e" x="60.69" y="0">t</tspan><tspan x="65.89" y="0">ed Business</tspan></text><text class="j" transform="translate(129.14 151.06)">P<tspan class="e" x="8.29" y="0">r</tspan><tspan x="13.61" y="0">ocesses</tspan></text><text class="k" transform="translate(82.83 175.06)">The formal reason and business</text><text class="k" transform="translate(103.66 190.06)">justification is recorded</text><circle class="z" cx="159.52" cy="100.08" r="16"/><text class="i" transform="translate(155.21 106.08)">1</text><line class="b" x1="812.02" y1="154.08" x2="812.02" y2="282.42"/><line class="ab" x1="812.02" y1="282.42" x2="784.73" y2="282.42"/><line class="ac" x1="812.02" y1="282.42" x2="796.8" y2="282.42"/><path class="z" d="M784.73,282.42c5.68-2.11,12.73-5.71,17.1-9.52l-3.44,9.52,3.44,9.51C797.46,288.12,790.41,284.52,784.73,282.42Z"/><line class="a" x1="14.16" y1="280.42" x2="14.16" y2="408.75"/><line class="ab" x1="14.16" y1="408.75" x2="41.45" y2="408.75"/><line class="ad" x1="14.16" y1="408.75" x2="29.38" y2="408.75"/><path class="h" d="M41.45,408.75c-5.68,2.11-12.73,5.7-17.09,9.51l3.44-9.51-3.44-9.51C28.72,403.05,35.77,406.64,41.45,408.75Z"/></svg>