<?xml version="1.0" encoding="utf-8"?>
<!-- Generator: Adobe Illustrator 24.1.2, SVG Export Plug-In . SVG Version: 6.00 Build 0)  -->
<svg version="1.1" id="Layer_1" xmlns="http://www.w3.org/2000/svg" xmlns:xlink="http://www.w3.org/1999/xlink" x="0px" y="0px"
	 viewBox="0 0 800 1050" style="enable-background:new 0 0 800 1050;" xml:space="preserve">
<style type="text/css">
	.st0{fill:#2980B9;}
	.st1{font-family:'SegoeUI-Bold';}
	.st2{font-size:20px;}
	.st3{fill:none;}
	.st4{fill:#7F8C8D;}
	.st5{font-family:'SegoeUI';}
	.st6{font-size:14px;}
	.st7{fill:#C0392B;}
	.st8{fill:#FFE5E9;}
	.st9{fill:#FFFFFF;}
	.st10{font-size:12px;}
	.st11{fill:#666666;}
	.st12{font-size:10px;}
	.st13{fill:#333333;}
	.st14{font-size:9px;}
	.st15{fill:#27AE60;}
	.st16{fill:#DBE5F1;}
	.st17{fill:#1F497D;}
	.st18{fill:#C6D9F0;}
	.st19{fill:#FFFFFF;stroke:#8E44AD;stroke-width:2;}
	.st20{fill:#8E44AD;}
	.st21{fill:#FFE5E9;stroke:#C0392B;stroke-width:2;}
	.st22{fill:#FFFFFF;stroke:#1F497D;stroke-width:2;}
	.st23{fill:#DBE5F1;stroke:#2980B9;}
	.st24{fill:#E8DAEF;stroke:#8E44AD;}
	.st25{fill:#EAFAF1;stroke:#27AE60;}
	.st26{fill:#FFE5E9;stroke:#C0392B;}
</style>
<text transform="matrix(1 0 0 1 213.3398 35)" class="st0 st1 st2">Data Destruction and Disposal Methods</text>
<rect y="44.8" class="st3" width="800" height="15.1"/>
<text transform="matrix(1 0 0 1 85.4585 56.7002)" class="st4 st5 st6">Choose the correct method based on media type, reuse intent, and security/compliance requirements.</text>
<rect y="59.8" class="st3" width="800" height="15.4"/>
<text transform="matrix(1 0 0 1 145.8367 71.7002)" class="st7 st1 st6">Simply deleting files or formatting a drive does NOT permanently erase data!</text>
<text transform="matrix(1 0 0 1 240.2031 100)" class="st0 st1 st6">Physical Destruction (Device will NOT be reused)</text>
<path class="st7" d="M24,110h752c2.2,0,4,1.8,4,4v16c0,2.2-1.8,4-4,4H24c-2.2,0-4-1.8-4-4v-16C20,111.8,21.8,110,24,110z"/>
<rect x="20" y="134" class="st8" width="760" height="38"/>
<rect x="20" y="172" class="st9" width="760" height="38"/>
<rect x="20" y="210" class="st8" width="760" height="48"/>
<rect x="20" y="258" class="st9" width="760" height="38"/>
<rect x="20" y="296" class="st8" width="760" height="38"/>
<g>
	<text transform="matrix(1 0 0 1 66.6816 126)" class="st9 st1 st10">Method</text>
	<text transform="matrix(1 0 0 1 59.9348 150)" class="st7 st1 st10">Shredding</text>
	<text transform="matrix(1 0 0 1 57.3813 164)" class="st11 st5 st12">Gold Standard</text>
	<text transform="matrix(1 0 0 1 38.8528 194)" class="st7 st1 st10">Drilling/Punching</text>
	<text transform="matrix(1 0 0 1 56.4277 230)" class="st7 st1 st10">Degaussing</text>
	<text transform="matrix(1 0 0 1 58.8657 248)" class="st7 st1 st12">EXAM TRAP!</text>
	<text transform="matrix(1 0 0 1 55.0535 280)" class="st7 st1 st10">Incineration</text>
	<text transform="matrix(1 0 0 1 57.5 318)" class="st7 st1 st10">Pulverizing</text>
</g>
<g>
	<text transform="matrix(1 0 0 1 277.4863 126)" class="st9 st1 st10">How It Works</text>
	<text transform="matrix(1 0 0 1 206.7078 150)" class="st13 st5 st10">Industrial shredder grinds media into tiny</text>
	<text transform="matrix(1 0 0 1 248.6555 163)" class="st13 st5 st10">unrecoverable fragments.</text>
	<text transform="matrix(1 0 0 1 204.7483 188)" class="st13 st5 st10">Drills holes through platters or flash chips.</text>
	<text transform="matrix(1 0 0 1 239.7944 201)" class="st13 st5 st14">Quick destruction for individual drives.</text>
	<text transform="matrix(1 0 0 1 196.3689 226)" class="st13 st5 st10">Powerful magnetic field scrambles all data on</text>
	<text transform="matrix(1 0 0 1 191.7078 239)" class="st13 st5 st10">magnetic media. Completely destroys the data.</text>
	<text transform="matrix(1 0 0 1 217.0691 252)" class="st7 st1 st12">Has ZERO effect on SSDs, flash, or optical!</text>
	<text transform="matrix(1 0 0 1 182.3679 274)" class="st13 st5 st10">Complete burning in a certified controlled furnace.</text>
	<text transform="matrix(1 0 0 1 211.3689 287)" class="st13 st5 st10">Government/military grade destruction.</text>
	<text transform="matrix(1 0 0 1 206.761 312)" class="st13 st5 st10">Industrial crushing into fine dust/powder.</text>
	<text transform="matrix(1 0 0 1 195.4727 325)" class="st13 st5 st10">Used in high-security classified environments.</text>
</g>
<g>
	<text transform="matrix(1 0 0 1 516.9822 126)" class="st9 st1 st10">Works On</text>
	<text transform="matrix(1 0 0 1 474.1882 156)" class="st13 st5 st10">HDDs, SSDs, optical discs, paper</text>
	<text transform="matrix(1 0 0 1 514.3279 194)" class="st13 st5 st10">HDDs, SSDs</text>
	<text transform="matrix(1 0 0 1 489.0659 230)" class="st13 st1 st10">HDDs + Magnetic Tape</text>
	<text transform="matrix(1 0 0 1 493.5637 245)" class="st7 st5 st12">ONLY magnetic media</text>
	<text transform="matrix(1 0 0 1 507.3801 280)" class="st13 st5 st10">All media types</text>
	<text transform="matrix(1 0 0 1 507.3801 318)" class="st13 st5 st10">All media types</text>
</g>
<g>
	<text transform="matrix(1 0 0 1 689.2876 126)" class="st9 st1 st10">Security</text>
	<text transform="matrix(1 0 0 1 689.9995 156)" class="st15 st1 st10">Highest</text>
	<text transform="matrix(1 0 0 1 696.9055 194)" class="st13 st5 st10">High</text>
	<text transform="matrix(1 0 0 1 674.5483 237)" class="st13 st5 st10">High (magnetic)</text>
	<text transform="matrix(1 0 0 1 689.9995 280)" class="st15 st1 st10">Highest</text>
	<text transform="matrix(1 0 0 1 689.9995 318)" class="st15 st1 st10">Highest</text>
</g>
<g>
	<text transform="matrix(1 0 0 1 228.1719 365)" class="st0 st1 st6">Software-Based Destruction (Device CAN be reused)</text>
</g>
<path class="st0" d="M24,375h752c2.2,0,4,1.8,4,4v16c0,2.2-1.8,4-4,4H24c-2.2,0-4-1.8-4-4v-16C20,376.8,21.8,375,24,375z"/>
<rect x="20" y="399" class="st16" width="760" height="38"/>
<rect x="20" y="437" class="st9" width="760" height="44"/>
<rect x="20" y="481" class="st16" width="760" height="44"/>
<rect x="20" y="525" class="st9" width="760" height="38"/>
<rect x="20" y="563" class="st16" width="760" height="44"/>
<g>
	<text transform="matrix(1 0 0 1 63.6816 391)" class="st9 st1 st10">Method</text>
	<text transform="matrix(1 0 0 1 63.1895 415)" class="st0 st1 st10">Zero Fill</text>
	<text transform="matrix(1 0 0 1 40.4067 429)" class="st11 st5 st14">(Single-Pass Overwrite)</text>
	<text transform="matrix(1 0 0 1 56.4128 456)" class="st0 st1 st10">Multi-Pass</text>
	<text transform="matrix(1 0 0 1 47.9263 470)" class="st11 st5 st12">(DoD 5220.22-M)</text>
	<text transform="matrix(1 0 0 1 50.9199 500)" class="st0 st1 st10">Secure Erase</text>
	<text transform="matrix(1 0 0 1 53.0947 514)" class="st15 st1 st12">Best for SSDs!</text>
	<text transform="matrix(1 0 0 1 44.3547 547)" class="st0 st1 st10">Crypto Erasure</text>
	<text transform="matrix(1 0 0 1 48.2246 582)" class="st0 st1 st10">Factory Reset</text>
</g>
<g>
	<text transform="matrix(1 0 0 1 264.4863 391)" class="st9 st1 st10">How It Works</text>
	<text transform="matrix(1 0 0 1 187.0515 415)" class="st13 st5 st10">Overwrites every bit on the drive with zeros.</text>
	<text transform="matrix(1 0 0 1 185.1094 428)" class="st13 st5 st10">NIST SP 800-88 approved. Fast and effective.</text>
	<text transform="matrix(1 0 0 1 179.5813 453)" class="st13 st5 st10">Overwrites data 3-7 times with varied patterns.</text>
	<text transform="matrix(1 0 0 1 165.5798 466)" class="st13 st5 st10">Legacy method. Single pass is equally effective now.</text>
	<text transform="matrix(1 0 0 1 178.7517 497)" class="st13 st5 st10">Built-in ATA firmware command that resets ALL</text>
	<text transform="matrix(1 0 0 1 180.5156 510)" class="st13 st5 st10">storage cells to factory state at hardware level.</text>
	<text transform="matrix(1 0 0 1 173.9563 541)" class="st13 st5 st10">Encrypts all data with a strong key, then destroys</text>
	<text transform="matrix(1 0 0 1 168.7205 554)" class="st13 st5 st10">the key. Data present but permanently unreadable.</text>
	<text transform="matrix(1 0 0 1 177.5188 579)" class="st13 st5 st10">Restores mobile device to factory settings. Only</text>
	<text transform="matrix(1 0 0 1 145.4531 592)" class="st13 st5 st10">secure IF hardware encryption was enabled (key destroyed).</text>
</g>
<g>
	<text transform="matrix(1 0 0 1 511.2468 391)" class="st9 st1 st10">Works On</text>
	<text transform="matrix(1 0 0 1 523.7805 421)" class="st13 st5 st10">HDDs</text>
	<text transform="matrix(1 0 0 1 507.3359 453)" class="st13 st5 st10">HDDs ONLY</text>
	<text transform="matrix(1 0 0 1 505.6797 466)" class="st7 st1 st12">NOT for SSDs!</text>
	<text transform="matrix(1 0 0 1 475.6367 497)" class="st15 st1 st10">SSDs (correct method)</text>
	<text transform="matrix(1 0 0 1 494.0728 510)" class="st13 st5 st12">Also works on HDDs</text>
	<text transform="matrix(1 0 0 1 485.9343 547)" class="st13 st5 st10">Any encrypted drive</text>
	<text transform="matrix(1 0 0 1 499.5281 579)" class="st13 st5 st10">Phones/tablets</text>
	<text transform="matrix(1 0 0 1 508.0696 592)" class="st13 st5 st12">(iOS, Android)</text>
</g>
<g>
	<text transform="matrix(1 0 0 1 667.4297 391)" class="st9 st1 st10">Key Notes</text>
	<text transform="matrix(1 0 0 1 645.457 421)" class="st13 st5 st10">Best for HDD reuse</text>
	<text transform="matrix(1 0 0 1 645.8555 453)" class="st7 st5 st10">Unreliable on SSDs</text>
	<text transform="matrix(1 0 0 1 664.0718 466)" class="st13 st5 st12">(wear leveling)</text>
	<text transform="matrix(1 0 0 1 631.0781 503)" class="st15 st1 st10">Recommended for SSD</text>
	<text transform="matrix(1 0 0 1 643.6812 547)" class="st13 st5 st10">Very fast + effective</text>
	<text transform="matrix(1 0 0 1 648.1758 579)" class="st13 st5 st10">Good if encrypted</text>
	<text transform="matrix(1 0 0 1 644.5884 592)" class="st7 st5 st12">Bad without encryption</text>
</g>
<text transform="matrix(1 0 0 1 250.7988 635)" class="st0 st1 st6">Choosing the Right Method (Exam Scenarios)</text>
<path class="st17" d="M24,645h752c2.2,0,4,1.8,4,4v14c0,2.2-1.8,4-4,4H24c-2.2,0-4-1.8-4-4v-14C20,646.8,21.8,645,24,645z"/>
<rect x="20" y="667" class="st18" width="760" height="26"/>
<rect x="20" y="693" class="st9" width="760" height="26"/>
<rect x="20" y="719" class="st18" width="760" height="26"/>
<rect x="20" y="745" class="st9" width="760" height="26"/>
<rect x="20" y="771" class="st18" width="760" height="26"/>
<rect x="20" y="797" class="st9" width="760" height="26"/>
<g>
	<text transform="matrix(1 0 0 1 149.8679 660)" class="st9 st1 st10">Scenario</text>
	<text transform="matrix(1 0 0 1 64.5586 684)" class="st13 st5 st10">Reselling a corporate laptop (HDD inside)</text>
	<text transform="matrix(1 0 0 1 43.4414 710)" class="st13 st5 st10">Disposing SSD from HR department (contains PII)</text>
	<text transform="matrix(1 0 0 1 53.5664 736)" class="st13 st5 st10">Decommissioning old magnetic backup tapes</text>
	<text transform="matrix(1 0 0 1 66.4219 762)" class="st13 st5 st10">Repurposing encrypted company iPhone</text>
	<text transform="matrix(1 0 0 1 45.9844 788)" class="st13 st5 st10">Disposing drives with PHI (hospital, HIPAA audit)</text>
	<text transform="matrix(1 0 0 1 71.4524 814)" class="st13 st5 st10">Donating old laptops to school (HDDs)</text>
</g>
<g>
	<text transform="matrix(1 0 0 1 409.1179 660)" class="st9 st1 st10">Correct Method</text>
	<text transform="matrix(1 0 0 1 429.0903 684)" class="st13 st1 st10">Zero Fill</text>
	<text transform="matrix(1 0 0 1 382.6143 710)" class="st13 st1 st10">Secure Erase or Shredding</text>
	<text transform="matrix(1 0 0 1 386.5754 736)" class="st13 st1 st10">Degaussing + Shredding</text>
	<text transform="matrix(1 0 0 1 415.3726 762)" class="st13 st1 st10">Factory Reset</text>
	<text transform="matrix(1 0 0 1 351.0322 788)" class="st13 st1 st10">Shredding + Certificate of Destruction</text>
	<text transform="matrix(1 0 0 1 429.0903 814)" class="st13 st1 st10">Zero Fill</text>
</g>
<g>
	<text transform="matrix(1 0 0 1 680.1121 660)" class="st9 st1 st10">Why</text>
	<text transform="matrix(1 0 0 1 644.0923 684)" class="st13 st5 st10">Reusable, effective</text>
	<text transform="matrix(1 0 0 1 632.3992 710)" class="st13 st5 st10">Multi-pass fails on SSD</text>
	<text transform="matrix(1 0 0 1 650.2468 736)" class="st13 st5 st10">Magnetic media</text>
	<text transform="matrix(1 0 0 1 626.5461 762)" class="st13 st5 st10">Encryption + reset = safe</text>
	<text transform="matrix(1 0 0 1 645.5537 788)" class="st13 st5 st10">Compliance proof</text>
	<text transform="matrix(1 0 0 1 640.5437 814)" class="st13 st5 st10">Cost-effective reuse</text>
</g>
<path class="st19" d="M26,840h358c3.3,0,6,2.7,6,6v78c0,3.3-2.7,6-6,6H26c-3.3,0-6-2.7-6-6v-78C20,842.7,22.7,840,26,840z"/>
<path class="st20" d="M26,840h358c3.3,0,6,2.7,6,6v10c0,3.3-2.7,6-6,6H26c-3.3,0-6-2.7-6-6v-10C20,842.7,22.7,840,26,840z"/>
<rect x="20" y="846.5" class="st3" width="370" height="12.8"/>
<text transform="matrix(1 0 0 1 115.8086 856.7002)" class="st9 st1 st10">Certificate of Destruction (CoD)</text>
<text transform="matrix(1 0 0 1 35 878)" class="st13 st5 st10">Required for HIPAA, PCI-DSS, GDPR, SOX compliance.</text>
<text transform="matrix(1 0 0 1 35 896)" class="st13 st5 st10">Must include: serial numbers, date of destruction,</text>
<text transform="matrix(1 0 0 1 35 914)" class="st13 st5 st10">method used, vendor signature, chain of custody.</text>
<path class="st21" d="M416,840h358c3.3,0,6,2.7,6,6v78c0,3.3-2.7,6-6,6H416c-3.3,0-6-2.7-6-6v-78C410,842.7,412.7,840,416,840z"/>
<path class="st7" d="M416,840h358c3.3,0,6,2.7,6,6v10c0,3.3-2.7,6-6,6H416c-3.3,0-6-2.7-6-6v-10C410,842.7,412.7,840,416,840z"/>
<rect x="410" y="846.5" class="st3" width="370" height="12.8"/>
<text transform="matrix(1 0 0 1 519.8359 856.7002)" class="st9 st1 st10">Exam Traps (Most Tested!)</text>
<text transform="matrix(1 0 0 1 425 878)" class="st13 st1 st10">1.</text>
<text transform="matrix(1 0 0 1 438 878)" class="st13 st5 st10">Degaussing an SSD = WRONG ANSWER (flash, not magnetic)</text>
<text transform="matrix(1 0 0 1 425 896)" class="st13 st1 st10">2.</text>
<text transform="matrix(1 0 0 1 438 896)" class="st13 st5 st10">Formatting a drive = NOT secure (data still recoverable)</text>
<text transform="matrix(1 0 0 1 425 914)" class="st13 st1 st10">3.</text>
<text transform="matrix(1 0 0 1 438 914)" class="st13 st5 st10">Multi-pass overwrite on SSD = unreliable (wear leveling)</text>
<path class="st22" d="M26,945h748c3.3,0,6,2.7,6,6v78c0,3.3-2.7,6-6,6H26c-3.3,0-6-2.7-6-6v-78C20,947.7,22.7,945,26,945z"/>
<path class="st17" d="M26,945h748c3.3,0,6,2.7,6,6v10c0,3.3-2.7,6-6,6H26c-3.3,0-6-2.7-6-6v-10C20,947.7,22.7,945,26,945z"/>
<rect x="26" y="949.8" class="st3" width="754" height="15.4"/>
<text transform="matrix(1 0 0 1 251.0195 960)" class="st9 st1 st10">Quick Decision Rule - Match the Media to the Method</text>
<g>
	<path class="st23" d="M44,978h147c2.2,0,4,1.8,4,4v34c0,2.2-1.8,4-4,4H44c-2.2,0-4-1.8-4-4v-34C40,979.8,41.8,978,44,978z"/>
	<g>
		<text transform="matrix(1 0 0 1 80.2168 996)" class="st13 st1 st10">HDD (reuse)?</text>
		<text transform="matrix(1 0 0 1 94.6895 1012)" class="st0 st1 st10">Zero Fill</text>
	</g>
</g>
<g>
	<path class="st24" d="M219,978h147c2.2,0,4,1.8,4,4v34c0,2.2-1.8,4-4,4H219c-2.2,0-4-1.8-4-4v-34C215,979.8,216.8,978,219,978z"/>
	<g>
		<text transform="matrix(1 0 0 1 257.5107 996)" class="st13 st1 st10">SSD (reuse)?</text>
		<text transform="matrix(1 0 0 1 257.4199 1012)" class="st20 st1 st10">Secure Erase</text>
	</g>
</g>
<path class="st25" d="M394,978h147c2.2,0,4,1.8,4,4v34c0,2.2-1.8,4-4,4H394c-2.2,0-4-1.8-4-4v-34C390,979.8,391.8,978,394,978z"/>
<g>
	<text transform="matrix(1 0 0 1 424.2051 996)" class="st13 st1 st10">Magnetic tape?</text>
	<text transform="matrix(1 0 0 1 443.9778 1012)" class="st15 st1 st10">Degauss</text>
</g>
<path class="st26" d="M569,978h187c2.2,0,4,1.8,4,4v34c0,2.2-1.8,4-4,4H569c-2.2,0-4-1.8-4-4v-34C565,979.8,566.8,978,569,978z"/>
<g>
	<text transform="matrix(1 0 0 1 585.7278 996)" class="st13 st1 st10">Max security / compliance?</text>
	<text transform="matrix(1 0 0 1 626.8108 1012)" class="st7 st1 st10">Shred + CoD</text>
</g>
</svg>
