<?xml version="1.0" encoding="utf-8"?>
<!-- Generator: Adobe Illustrator 24.1.2, SVG Export Plug-In . SVG Version: 6.00 Build 0)  -->
<svg version="1.1"
	 id="svg67" xmlns:inkscape="http://www.inkscape.org/namespaces/inkscape" xmlns:sodipodi="http://sodipodi.sourceforge.net/DTD/sodipodi-0.dtd" xmlns:svg="http://www.w3.org/2000/svg"
	 xmlns="http://www.w3.org/2000/svg" xmlns:xlink="http://www.w3.org/1999/xlink" x="0px" y="0px" viewBox="0 0 787 656"
	 style="enable-background:new 0 0 787 656;" xml:space="preserve">
<style type="text/css">
	.st0{fill:none;}
	.st1{fill:none;stroke:#2980B9;stroke-width:4;stroke-miterlimit:10;}
	.st2{fill:#2980B9;}
	.st3{font-family:'Arial-BoldMT';}
	.st4{font-size:24px;}
	.st5{fill:#888888;}
	.st6{font-size:18.6667px;}
	.st7{fill:#1A5276;}
	.st8{fill:#FFFFFF;}
	.st9{font-size:13.3333px;}
	.st10{opacity:0.4;fill:#1A5276;enable-background:new    ;}
	.st11{fill:#D6EAF8;}
	.st12{font-family:'ArialNarrow-BoldItalic';}
	.st13{fill:#3498DB;}
	.st14{fill:#8E44AD;}
	.st15{fill:#6C3483;}
	.st16{opacity:0.4;fill:#6C3483;enable-background:new    ;}
	.st17{fill:#E8DAEF;}
	.st18{fill:#27AE60;}
	.st19{fill:#1E8449;}
	.st20{opacity:0.4;fill:#1E8449;enable-background:new    ;}
	.st21{fill:#D5F5E3;}
	.st22{fill:#E67E22;}
	.st23{fill:#D35400;}
	.st24{opacity:0.4;fill:#D35400;enable-background:new    ;}
	.st25{enable-background:new    ;}
	.st26{fill:#FDEBD0;}
	.st27{fill:#C0392B;}
	.st28{fill:#922B21;}
	.st29{opacity:0.4;fill:#922B21;enable-background:new    ;}
	.st30{fill:#FADBD8;}
	.st31{fill:#34495E;}
	.st32{fill:#1C2833;}
	.st33{opacity:0.4;fill:#1C2833;enable-background:new    ;}
	.st34{fill:#D5D8DC;}
	.st35{fill:#16A085;}
	.st36{fill:#0E6655;}
	.st37{opacity:0.4;fill:#0E6655;enable-background:new    ;}
	.st38{fill:#FFFFFF;stroke:#DEE2E6;stroke-width:1.5;}
	.st39{fill:#2C3E50;}
	.st40{fill:none;stroke:#DEE2E6;}
	.st41{fill:#555555;}
	.st42{font-family:'ArialNarrow-Bold';}
</style>
<sodipodi:namedview  bordercolor="#000000" borderopacity="0.25" id="namedview67" inkscape:current-layer="svg67" inkscape:cx="349.56631" inkscape:cy="313.56878" inkscape:deskcolor="#d1d1d1" inkscape:pagecheckerboard="0" inkscape:pageopacity="0.0" inkscape:showpageshadow="2" inkscape:window-height="1009" inkscape:window-maximized="1" inkscape:window-width="1920" inkscape:window-x="1912" inkscape:window-y="-8" inkscape:zoom="1.1528571" pagecolor="#ffffff">
	<inkscape:page  bleed="0" height="656" id="page2" margin="0" width="787" x="0" y="0"></inkscape:page>
</sodipodi:namedview>
<path class="st0" d=""/>
<path class="st0" d=""/>
<path class="st0" d=""/>
<path class="st0" d=""/>
<path class="st0" d=""/>
<path class="st0" d=""/>
<g>
	<path class="st1" d="M239.2,380.3c-148.5,9.3-142.6-37.7-142.6-37.7c-20-187.2,689.2,54.2,601-135c0,0-18-35.9-84.1-31"/>
	<line class="st1" x1="70.4" y1="380.8" x2="736.6" y2="376.5"/>
	<g>
		<line class="st1" x1="28.5" y1="178.9" x2="694.6" y2="174.6"/>
	</g>
	<text id="text3" transform="matrix(1 0 0 1 133.4023 32.6208)" class="st2 st3 st4">Laser (Electrophotographic) Printing Process</text>
	<text transform="matrix(1 0 0 1 34.2466 63.7423)" class="st5 st3 st6">7 Steps - Mnemonic: </text>
	<text transform="matrix(1 0 0 1 220.941 63.7423)" class="st5 st3 st6">&quot;Please Charge Everyone During Transfer Fusing Carefully&quot;</text>
	<path id="rect4" class="st2" d="M30.5,101.6h141c6.6,0,12,5.4,12,12v126c0,6.6-5.4,12-12,12h-141c-6.6,0-12-5.4-12-12v-126
		C18.5,107,23.9,101.6,30.5,101.6z"/>
	<circle id="circle4" class="st7" cx="43.5" cy="126.6" r="16"/>
	<text id="text5" transform="matrix(1 0 0 1 39.7923 132.6209)" class="st8 st3 st9">1</text>
	<text id="text6" transform="matrix(1 0 0 1 77.5593 129.6209)" class="st8 st3 st9">Processing</text>
	<path id="rect6" class="st10" d="M34.5,146.6h133c3.3,0,6,2.7,6,6v78c0,3.3-2.7,6-6,6h-133c-3.3,0-6-2.7-6-6v-78
		C28.5,149.3,31.2,146.6,34.5,146.6z"/>
	<text id="text7" transform="matrix(1 0 0 1 37.8797 169.6209)" class="st8 st3 st9">Printer CPU creates</text>
	<text id="text8" transform="matrix(1 0 0 1 48.2638 186.6209)" class="st8 st3 st9">a raster (bitmap)</text>
	<text id="text9" transform="matrix(1 0 0 1 45.6662 203.6209)" class="st8 st3 st9">image in memory</text>
	<text id="text10" transform="matrix(1 0 0 1 47.1245 226.6209)" class="st11 st12 st9">Uses: RIP processor</text>
	<path id="line10" marker-end="url(#arrowhead)" class="st13" d="M206.5,176.6"/>
	<path id="rect10" class="st14" d="M225.5,101.6h141c6.6,0,12,5.4,12,12v126c0,6.6-5.4,12-12,12h-141c-6.6,0-12-5.4-12-12v-126
		C213.5,107,218.9,101.6,225.5,101.6z"/>
	<circle id="circle10" class="st15" cx="238.5" cy="126.6" r="16"/>
	<text id="text11" transform="matrix(1 0 0 1 234.7923 132.6209)" class="st8 st3 st9">2</text>
	<text id="text12" transform="matrix(1 0 0 1 279.2422 129.6209)" class="st8 st3 st9">Charging</text>
	<path id="rect12" class="st16" d="M229.5,146.6h133c3.3,0,6,2.7,6,6v78c0,3.3-2.7,6-6,6h-133c-3.3,0-6-2.7-6-6v-78
		C223.5,149.3,226.2,146.6,229.5,146.6z"/>
	<text id="text13" transform="matrix(1 0 0 1 239.1981 169.6209)" class="st8 st3 st9">Charging roller or</text>
	<text id="text14" transform="matrix(1 0 0 1 222.1408 186.6209)" class="st8 st3 st9">primary corona applies</text>
	<text id="text15" transform="matrix(1 0 0 1 224.3837 203.6209)" class="st8 st3 st9">uniform -600V to drum</text>
	<text id="text16" transform="matrix(1 0 0 1 231.0959 226.6209)" class="st17 st12 st9">Uses: OPC drum surface</text>
	<path id="line16" marker-end="url(#arrowhead)" class="st13" d="M401.5,176.6"/>
	<path id="rect16" class="st18" d="M420.5,101.6h141c6.6,0,12,5.4,12,12v126c0,6.6-5.4,12-12,12h-141c-6.6,0-12-5.4-12-12v-126
		C408.5,107,413.9,101.6,420.5,101.6z"/>
	<circle id="circle16" class="st19" cx="433.5" cy="126.6" r="16"/>
	<text id="text17" transform="matrix(1 0 0 1 429.7923 132.6209)" class="st8 st3 st9">3</text>
	<text id="text18" transform="matrix(1 0 0 1 473.4968 129.6209)" class="st8 st3 st9">Exposing</text>
	<path id="rect18" class="st20" d="M424.5,146.6h133c3.3,0,6,2.7,6,6v78c0,3.3-2.7,6-6,6h-133c-3.3,0-6-2.7-6-6v-78
		C418.5,149.3,421.2,146.6,424.5,146.6z"/>
	<text id="text19" transform="matrix(1 0 0 1 432.6877 169.6209)" class="st8 st3 st9">Laser beam scans</text>
	<text id="text20" transform="matrix(1 0 0 1 435.3016 186.6209)" class="st8 st3 st9">drum, neutralizes</text>
	<text id="text21" transform="matrix(1 0 0 1 440.8517 203.6209)" class="st8 st3 st9">charge to -100V</text>
	<text id="text22" transform="matrix(1 0 0 1 437.0268 226.6209)" class="st21 st12 st9">Creates latent image</text>
	<path id="line22" marker-end="url(#arrowhead)" class="st13" d="M596.5,176.6"/>
	<polygon id="polygon3" class="st13" points="91.5,369.8 121.5,380.3 121.5,359.3 	"/>
	<path id="path28" marker-end="url(#arrowdown)" sodipodi:nodetypes="cssssc" class="st13" d="M91.5,369.8"/>
	<path id="rect22" class="st22" d="M615.5,101.6h141c6.6,0,12,5.4,12,12v126c0,6.6-5.4,12-12,12h-141c-6.6,0-12-5.4-12-12v-126
		C603.5,107,608.9,101.6,615.5,101.6z"/>
	<circle id="circle22" class="st23" cx="628.5" cy="126.6" r="16"/>
	<text id="text23" transform="matrix(1 0 0 1 624.7923 132.6209)" class="st8 st3 st9">4</text>
	<text id="text24" transform="matrix(1 0 0 1 662.5691 129.6209)" class="st8 st3 st9">Developing</text>
	<path id="rect24" class="st24" d="M619.5,146.6h133c3.3,0,6,2.7,6,6v78c0,3.3-2.7,6-6,6h-133c-3.3,0-6-2.7-6-6v-78
		C613.5,149.3,616.2,146.6,619.5,146.6z"/>
	<rect x="621.8" y="158.2" class="st0" width="124.7" height="58.5"/>
	<text id="text25" transform="matrix(1 0 0 1 630.8242 169.6209)" class="st25"><tspan x="0" y="0" class="st8 st3 st9">Toner is repelled </tspan><tspan x="-4.8" y="16" class="st8 st3 st9">by drum, attracted </tspan><tspan x="-3" y="32" class="st8 st3 st9">to exposed areas.</tspan></text>
	<text id="text28" transform="matrix(1 0 0 1 625.9363 226.6209)" class="st26 st12 st9">Image becomes visible</text>
	<path id="rect28" class="st27" d="M30.5,303.6h196c6.6,0,12,5.4,12,12v126c0,6.6-5.4,12-12,12h-196c-6.6,0-12-5.4-12-12v-126
		C18.5,309,23.9,303.6,30.5,303.6z"/>
	<circle id="circle28" class="st28" cx="43.5" cy="328.6" r="16"/>
	<text id="text29" transform="matrix(1 0 0 1 39.7923 334.6209)" class="st8 st3 st9">5</text>
	<text id="text30" transform="matrix(1 0 0 1 101.6004 331.6209)" class="st8 st3 st9">Transferring</text>
	<path id="rect30" class="st29" d="M34.5,348.6h188c3.3,0,6,2.7,6,6v78c0,3.3-2.7,6-6,6h-188c-3.3,0-6-2.7-6-6v-78
		C28.5,351.3,31.2,348.6,34.5,348.6z"/>
	<text id="text31" transform="matrix(1 0 0 1 31.7978 371.6209)" class="st8 st3 st9">Transfer roller applies positive</text>
	<text id="text32" transform="matrix(1 0 0 1 45.9025 388.6209)" class="st8 st3 st9">charge, pulling toner from</text>
	<text id="text33" transform="matrix(1 0 0 1 75.5379 405.6209)" class="st8 st3 st9">drum onto paper</text>
	<text id="text34" transform="matrix(1 0 0 1 29.148 428.6209)" class="st30 st12 st9">Static eliminator strip separates paper</text>
	<path id="line34" marker-end="url(#arrowhead)" class="st13" d="M266.5,378.6"/>
	<path id="rect34" class="st31" d="M285.5,303.6h196c6.6,0,12,5.4,12,12v126c0,6.6-5.4,12-12,12h-196c-6.6,0-12-5.4-12-12v-126
		C273.5,309,278.9,303.6,285.5,303.6z"/>
	<circle id="circle34" class="st32" cx="298.5" cy="328.6" r="16"/>
	<text id="text35" transform="matrix(1 0 0 1 294.7923 334.6209)" class="st8 st3 st9">6</text>
	<text id="text36" transform="matrix(1 0 0 1 366.6511 331.6209)" class="st8 st3 st9">Fusing</text>
	<path id="rect36" class="st33" d="M289.5,348.6h188c3.3,0,6,2.7,6,6v78c0,3.3-2.7,6-6,6h-188c-3.3,0-6-2.7-6-6v-78
		C283.5,351.3,286.2,348.6,289.5,348.6z"/>
	<text id="text37" transform="matrix(1 0 0 1 302.9175 371.6209)" class="st8 st3 st9">Heated roller (~200C) and</text>
	<text id="text38" transform="matrix(1 0 0 1 295.3166 388.6209)" class="st8 st3 st9">pressure roller permanently</text>
	<text id="text39" transform="matrix(1 0 0 1 294.6102 405.6209)" class="st8 st3 st9">bond toner into paper fibers</text>
	<text id="text40" transform="matrix(1 0 0 1 284.1675 428.6209)" class="st34 st12 st9">Hottest component - paper exits warm</text>
	<path id="line40" marker-end="url(#arrowhead)" class="st13" d="M521.5,378.6"/>
	<path id="rect40" class="st35" d="M540.5,303.6h216c6.6,0,12,5.4,12,12v126c0,6.6-5.4,12-12,12h-216c-6.6,0-12-5.4-12-12v-126
		C528.5,309,533.9,303.6,540.5,303.6z"/>
	<circle id="circle40" class="st36" cx="553.5" cy="328.6" r="16"/>
	<text id="text41" transform="matrix(1 0 0 1 549.7923 334.6209)" class="st8 st3 st9">7</text>
	<text id="text42" transform="matrix(1 0 0 1 625.349 331.6209)" class="st8 st3 st9">Cleaning</text>
	<path id="rect42" class="st37" d="M544.5,348.6h208c3.3,0,6,2.7,6,6v78c0,3.3-2.7,6-6,6h-208c-3.3,0-6-2.7-6-6v-78
		C538.5,351.3,541.2,348.6,544.5,348.6z"/>
	<text id="text43" transform="matrix(1 0 0 1 546.609 371.6209)" class="st8 st3 st9">Cleaning blade scrapes residual</text>
	<text id="text44" transform="matrix(1 0 0 1 548.497 388.6209)" class="st8 st3 st9">toner from drum into waste bin.</text>
	<text id="text45" transform="matrix(1 0 0 1 550.678 405.6209)" class="st8 st3 st9">Erase lamp neutralizes charge.</text>
	<text transform="matrix(1 0 0 1 580.756 428.6209)" class="st8 st12 st9">Drum ready for next page.</text>
	<path id="rect46" class="st38" d="M28.5,489h720c5.5,0,10,4.5,10,10v135c0,5.5-4.5,10-10,10h-720c-5.5,0-10-4.5-10-10V499
		C18.5,493.4,23,489,28.5,489z"/>
	<text id="text47" transform="matrix(1 0 0 1 288.6164 505.6209)" class="st39 st3 st9">Exam Troubleshooting Reference</text>
	<line id="line49" class="st40" x1="47.9" y1="539.6" x2="377.9" y2="539.6"/>
	<g id="g5" transform="translate(-11.125,9.6872101)">
		<text id="text48" transform="matrix(1 0 0 1 59.625 522.9337)" class="st27 st3 st9">Symptom</text>
		<text id="text50" transform="matrix(1 0 0 1 59.625 547.9337)" class="st41 st42 st9">Blank pages</text>
		<text id="text52" transform="matrix(1 0 0 1 59.625 565.9337)" class="st41 st42 st9">Toner smears when touched</text>
		<text id="text54" transform="matrix(1 0 0 1 59.625 583.9337)" class="st41 st42 st9">Ghost/repeated images</text>
		<text id="text56" transform="matrix(1 0 0 1 59.625 601.9337)" class="st41 st42 st9">Vertical streaks/lines</text>
	</g>
	<g id="g4" transform="translate(2.476719,9.6872101)">
		<text id="text49" transform="matrix(1 0 0 1 219.625 522.9337)" class="st39 st3 st9">Failed Component</text>
		<text id="text51" transform="matrix(1 0 0 1 219.625 547.9337)" class="st41 st42 st9">Laser assembly or empty toner</text>
		<text id="text53" transform="matrix(1 0 0 1 219.625 565.9337)" class="st41 st42 st9">Fuser assembly (Step 6)</text>
		<text id="text55" transform="matrix(1 0 0 1 219.625 583.9337)" class="st41 st42 st9">Fuser or dirty drum (Cleaning)</text>
		<text id="text57" transform="matrix(1 0 0 1 219.625 601.9337)" class="st41 st42 st9">Scratched drum or dirty corona</text>
	</g>
	<line id="line59" class="st40" x1="416.8" y1="539.6" x2="736.8" y2="539.6"/>
	<g id="g3" transform="translate(-25.005552,9.6872101)">
		<text id="text58" transform="matrix(1 0 0 1 439.625 522.9337)" class="st27 st3 st9">Symptom</text>
		<text id="text60" transform="matrix(1 0 0 1 439.625 547.9337)" class="st41 st42 st9">Paper won&apos;t feed</text>
		<text id="text62" transform="matrix(1 0 0 1 439.625 565.9337)" class="st41 st42 st9">Paper jams at entry</text>
		<text id="text64" transform="matrix(1 0 0 1 439.625 583.9337)" class="st41 st42 st9">Blank page, printer normal</text>
		<text id="text66" transform="matrix(1 0 0 1 439.625 601.9337)" class="st41 st42 st9">Faded/light print</text>
	</g>
	<g id="g2" transform="translate(0.875,9.6872101)">
		<text id="text59" transform="matrix(1 0 0 1 591.625 522.9337)" class="st39 st3 st9">Failed Component</text>
		<text id="text61" transform="matrix(1 0 0 1 589.625 547.9337)" class="st41 st42 st9">Worn pickup rollers</text>
		<text id="text63" transform="matrix(1 0 0 1 589.625 565.9337)" class="st41 st42 st9">Separation pad or feed rollers</text>
		<text id="text65" transform="matrix(1 0 0 1 589.625 583.9337)" class="st41 st42 st9">Transfer roller (Step 5)</text>
		<text id="text67" transform="matrix(1 0 0 1 589.625 601.9337)" class="st41 st42 st9">Low toner or developing unit</text>
	</g>
	<polygon id="polygon2" class="st2" points="223.5,176.6 193.5,187.1 193.5,166.1 	"/>
	<polygon id="polygon2_1_" class="st2" points="418.5,176.6 388.5,187.1 388.5,166.1 	"/>
	<polygon id="polygon2_2_" class="st2" points="613.5,176.6 583.5,187.1 583.5,166.1 	"/>
	<polygon id="polygon2_3_" class="st2" points="283.5,378.6 253.5,389.1 253.5,368.1 	"/>
	<polygon id="polygon2_4_" class="st2" points="538.5,378.6 508.5,389.1 508.5,368.1 	"/>
</g>
</svg>
