<?xml version="1.0" encoding="utf-8"?>
<!-- Generator: Adobe Illustrator 24.1.2, SVG Export Plug-In . SVG Version: 6.00 Build 0)  -->
<svg version="1.1"
	 id="svg59" xmlns:inkscape="http://www.inkscape.org/namespaces/inkscape" xmlns:sodipodi="http://sodipodi.sourceforge.net/DTD/sodipodi-0.dtd" xmlns:svg="http://www.w3.org/2000/svg"
	 xmlns="http://www.w3.org/2000/svg" xmlns:xlink="http://www.w3.org/1999/xlink" x="0px" y="0px" viewBox="0 0 564 309"
	 style="enable-background:new 0 0 564 309;" xml:space="preserve">
<style type="text/css">
	.st0{fill:#EAF2F8;stroke:#5DADE2;}
	.st1{fill:#2980B9;}
	.st2{font-family:'Arial-BoldMT';}
	.st3{font-size:15px;}
	.st4{fill:#EAF2F8;stroke:#5DADE2;stroke-width:0.7;}
	.st5{fill:#1A2744;}
	.st6{font-size:10.6667px;}
	.st7{fill:#2471A3;}
	.st8{font-family:'ArialMT';}
	.st9{fill:none;}
	.st10{fill:#5DADE2;}
	.st11{fill:#FFF3E0;stroke:#E67E22;stroke-width:1.209;}
	.st12{fill:#E67E22;}
	.st13{font-size:9px;}
	.st14{fill:none;stroke:#F0C27B;stroke-width:0.5;}
	.st15{fill:#666666;}
	.st16{fill:#E8F8F5;stroke:#1ABC9C;}
	.st17{fill:#16A085;}
	.st18{fill:#555555;}
	.st19{fill:#1ABC9C;}
	.st20{fill:#F4ECF7;stroke:#8E44AD;stroke-width:0.7298;}
	.st21{fill:#8E44AD;}
	.st22{fill:#FDF2F2;stroke:#E6B0AA;stroke-width:0.5694;}
	.st23{font-size:12px;}
	.st24{font-size:8px;}
	.st25{fill:#2C3E50;}
	.st26{fill:#CCCCCC;}
	.st27{fill:#FFFFFF;stroke:#E0E0E0;stroke-width:0.3;}
	.st28{fill:#F9F9F9;stroke:#E0E0E0;stroke-width:0.3576;}
	.st29{font-family:'ArialNarrow';}
	.st30{font-size:13.3333px;}
	.st31{fill:#888888;}
	.st32{fill:#333333;}
</style>
<line class="st0" x1="70.3" y1="106.7" x2="131.8" y2="106.7"/>
<line class="st0" x1="70.3" y1="68.7" x2="131.8" y2="97.5"/>
<line class="st0" x1="70.3" y1="147.5" x2="131.8" y2="115.5"/>
<sodipodi:namedview  bordercolor="#000000" borderopacity="0.25" id="namedview59" inkscape:deskcolor="#d1d1d1" inkscape:pagecheckerboard="0" inkscape:pageopacity="0.0" inkscape:showpageshadow="2" pagecolor="#ffffff">
	<inkscape:page  bleed="0" height="309" id="page2" margin="0" width="564" x="0" y="0"></inkscape:page>
</sodipodi:namedview>
<text id="text1" transform="matrix(1 0 0 1 131.7876 17.4769)" class="st1 st2 st3">NAT / PAT — Network Address Translation</text>
<path id="rect2" class="st4" d="M3.4,55.5h64c1.7,0,3,1.3,3,3v26c0,1.7-1.3,3-3,3h-64c-1.7,0-3-1.3-3-3v-26
	C0.3,56.8,1.7,55.5,3.4,55.5z"/>
<text id="text3" transform="matrix(1 0 0 1 17.5765 66.4769)" class="st5 st2 st6">Laptop</text>
<text id="text4" transform="matrix(1 0 0 1 16.0739 80.4769)" class="st7 st8 st6">10.0.0.2</text>
<path id="rect4" class="st4" d="M3.4,93.5h64c1.7,0,3,1.3,3,3v26c0,1.7-1.3,3-3,3h-64c-1.7,0-3-1.3-3-3v-26
	C0.3,94.8,1.7,93.5,3.4,93.5z"/>
<text id="text5" transform="matrix(1 0 0 1 19.0531 104.4769)" class="st5 st2 st6">Phone</text>
<text id="text6" transform="matrix(1 0 0 1 16.0739 118.4769)" class="st7 st8 st6">10.0.0.3</text>
<path id="rect6" class="st4" d="M3.4,131.5h64c1.7,0,3,1.3,3,3v26c0,1.7-1.3,3-3,3h-64c-1.7,0-3-1.3-3-3v-26
	C0.3,132.8,1.7,131.5,3.4,131.5z"/>
<text id="text7" transform="matrix(1 0 0 1 18.7432 142.4769)" class="st5 st2 st6">Server</text>
<text id="text8" transform="matrix(1 0 0 1 16.0739 156.4769)" class="st7 st8 st6">10.0.0.4</text>
<path class="st9" d=""/>
<path id="path57" class="st10" d="M131.9,94.7l4.3,5.1l-6.7,0.4L131.9,94.7z"/>
<path id="line8" marker-end="url(#arrowBlue)" class="st10" d="M135.4,99.5"/>
<path class="st9" d=""/>
<path id="path57_1_" class="st10" d="M130.2,103.7l6.1,2.7l-5.9,3.3L130.2,103.7z"/>
<path id="line9" marker-end="url(#arrowBlue)" class="st10" d="M135.4,106.5"/>
<path class="st9" d=""/>
<path id="path57_2_" class="st10" d="M129.5,113.1l6.7-0.1l-3.9,5.4L129.5,113.1z"/>
<path id="line10" marker-end="url(#arrowBlue)" class="st10" d="M135.4,113.5"/>
<path id="rect10" class="st11" d="M140.4,73.5h90c2.8,0,5,2.2,5,5v57c0,2.8-2.2,5-5,5h-90c-2.8,0-5-2.2-5-5v-57
	C135.4,75.7,137.6,73.5,140.4,73.5z"/>
<text id="text10" transform="matrix(1 0 0 1 151.8655 89.4769)" class="st12 st2 st6">Home Router</text>
<text id="text11" transform="matrix(1 0 0 1 164.3529 109.4769)" class="st5 st2 st13">NAT / PAT</text>
<line id="line11" class="st14" x1="145.4" y1="93.5" x2="225.4" y2="93.5"/>
<text id="text12" transform="matrix(1 0 0 1 143.1598 123.4769)" class="st15 st8 st6">Translates private</text>
<text id="text13" transform="matrix(1 0 0 1 144.4436 136.4769)" class="st15 st8 st6">IPs → 1 public IP</text>
<path class="st9" d=""/>
<path id="path58" class="st12" d="M284.4,102.9l7.2,3.6l-7.2,3.6V102.9z"/>
<path id="line13" marker-end="url(#arrowOrange)" class="st12" d="M290.4,106.5"/>
<ellipse id="ellipse13" class="st16" cx="345.4" cy="106.5" rx="50" ry="30"/>
<text id="text14" transform="matrix(1 0 0 1 325.4838 101.4769)" class="st17 st2 st6">Internet</text>
<text id="text15" transform="matrix(1 0 0 1 310.3473 115.4769)" class="st18 st8 st6">Public network</text>
<path class="st9" d=""/>
<path id="path59" class="st19" d="M445.4,103.5l6,3l-6,3V103.5z"/>
<path id="line15" marker-end="url(#arrowGreen)" class="st19" d="M450.4,106.5"/>
<path id="rect15" class="st20" d="M453.4,83.5h74c1.7,0,3,1.3,3,3v44c0,1.7-1.3,3-3,3h-74c-1.7,0-3-1.3-3-3v-44
	C450.4,84.8,451.7,83.5,453.4,83.5z"/>
<text id="text16" transform="matrix(1 0 0 1 461.0999 97.4769)" class="st5 st2 st6">Web Server</text>
<text id="text17" transform="matrix(1 0 0 1 456.2432 113.4769)" class="st21 st8 st6">93.184.216.34</text>
<text id="text18" transform="matrix(1 0 0 1 455.0817 127.4769)" class="st15 st8 st6">(example.com)</text>
<g id="g63" transform="translate(-8.0581493,8.9999689)">
	<path id="rect55" class="st22" d="M19.7,273.7h540.7c1.5,0,2.7,1.2,2.7,2.7V297c0,1.5-1.2,2.7-2.7,2.7H19.7c-1.5,0-2.7-1.2-2.7-2.7
		v-20.6C17,274.9,18.2,273.7,19.7,273.7z"/>
	<text id="text51" transform="matrix(1 0 0 1 20.4536 289.0291)" class="st18 st2 st13">Exam Tip: Almost all home routers use PAT. NAT conserves IPv4 addresses and adds a layer of security by hiding internal IPs.</text>
</g>
<text id="text6-4" transform="matrix(1 0 0 1 9.477 38.0667)" class="st7 st2 st23">Private Network</text>
<text id="text7-8" transform="matrix(1 0 0 1 16.3637 48.0667)" class="st15 st8 st24">(not internet-routable)</text>
<g id="g64" transform="translate(6)">
	<path id="rect19" class="st25" d="M112.3,201.5h359c1.1,0,2,0.9,2,2v10c0,1.1-0.9,2-2,2h-359c-1.1,0-2-0.9-2-2v-10
		C110.3,202.4,111.2,201.5,112.3,201.5z"/>
	<text id="text20" transform="matrix(1 0 0 1 136.8186 211.4769)" class="st26 st8 st6">Source (Private)</text>
	<text id="text21" transform="matrix(1 0 0 1 246.79 211.4769)" class="st26 st8 st6">Translated (Public)</text>
	<text id="text22" transform="matrix(1 0 0 1 383.6676 211.4769)" class="st26 st8 st6">Destination</text>
	<rect id="rect22" x="110.4" y="215.5" class="st27" width="362.9" height="17"/>
	<rect id="rect25" x="110.4" y="232.6" class="st28" width="362.9" height="17"/>
	<rect id="rect28" x="110.4" y="249.6" class="st27" width="362.9" height="17"/>
	<g id="g62" transform="translate(-12.964335,44.05313)">
		<text id="text23" transform="matrix(1 0 0 1 145.9408 184.684)" class="st15 st29 st30">10.0.0.2:51234</text>
		<text id="text24" transform="matrix(1 0 0 1 253.2201 184.684)" class="st15 st29 st30">203.0.113.5:51234</text>
		<text id="text25" transform="matrix(1 0 0 1 371.8197 184.684)" class="st15 st29 st30">93.184.216.34:443</text>
	</g>
	<g id="g61" transform="translate(-12.964335,49.102096)">
		<text id="text26" transform="matrix(1 0 0 1 145.9408 196.684)" class="st15 st29 st30">10.0.0.3:49876</text>
		<text id="text27" transform="matrix(1 0 0 1 253.2201 196.684)" class="st15 st29 st30">203.0.113.5:49876</text>
		<text id="text28" transform="matrix(1 0 0 1 371.8197 196.684)" class="st15 st29 st30">93.184.216.34:443</text>
	</g>
	<g id="g60" transform="translate(-12.964335,54.151061)">
		<text id="text29" transform="matrix(1 0 0 1 145.9408 208.684)" class="st15 st29 st30">10.0.0.4:60012</text>
		<text id="text30" transform="matrix(1 0 0 1 253.2201 208.684)" class="st15 st29 st30">203.0.113.5:60012</text>
		<text id="text31" transform="matrix(1 0 0 1 371.8197 208.684)" class="st15 st29 st30">93.184.216.34:443</text>
	</g>
	<text id="text27-0" transform="matrix(1 0 0 1 142.8079 190.6033)" class="st31 st8 st6">Each device gets a unique port number — all share one public IP</text>
	<text id="text26-9" transform="matrix(1 0 0 1 167.0445 177.9269)" class="st25 st2 st23">PAT Translation Table (inside the router)</text>
	<text id="text37" transform="matrix(1 0 0 1 220.7228 226.2999)" class="st32 st8 st13">→</text>
	<text id="text37-4" transform="matrix(1 0 0 1 220.7228 243.3489)" class="st32 st8 st13">→</text>
	<text id="text37-5" transform="matrix(1 0 0 1 220.7228 260.3978)" class="st32 st8 st13">→</text>
</g>
<text id="text5-1" transform="matrix(1 0 0 1 139.8655 31.7507)" class="st31 st8 st13">Multiple private devices share a single public IP address via your router</text>
<line class="st11" x1="235.3" y1="106.7" x2="284.4" y2="106.5"/>
<line class="st16" x1="395.4" y1="106.5" x2="445.4" y2="106.5"/>
</svg>
