<?xml version="1.0" encoding="utf-8"?>
<!-- Generator: Adobe Illustrator 24.1.2, SVG Export Plug-In . SVG Version: 6.00 Build 0)  -->
<svg version="1.1"
	 id="svg185" xmlns:inkscape="http://www.inkscape.org/namespaces/inkscape" xmlns:sodipodi="http://sodipodi.sourceforge.net/DTD/sodipodi-0.dtd" xmlns:svg="http://www.w3.org/2000/svg"
	 xmlns="http://www.w3.org/2000/svg" xmlns:xlink="http://www.w3.org/1999/xlink" x="0px" y="0px" viewBox="0 0 1216.5 680.7"
	 style="enable-background:new 0 0 1216.5 680.7;" xml:space="preserve">
<style type="text/css">
	.st0{fill:#2980B9;}
	.st1{font-family:'SegoeUI-Bold';}
	.st2{font-size:30px;}
	.st3{letter-spacing:-1;}
	.st4{fill:#ECFDF5;stroke:#10B981;stroke-width:2.69;}
	.st5{fill:#10B981;}
	.st6{fill:#FFFFFF;}
	.st7{font-family:'Arial-BoldMT';}
	.st8{font-size:21.33px;}
	.st9{fill:#047857;}
	.st10{fill:none;stroke:#10B981;stroke-width:2.5;}
	.st11{fill:none;stroke:#047857;stroke-width:2.5;}
	.st12{fill:#10B981;stroke:#047857;stroke-width:2;}
	.st13{fill:#064E3B;}
	.st14{fill:#34D399;stroke:#047857;stroke-width:2;}
	.st15{font-size:16px;}
	.st16{fill:none;stroke:#94A3B8;stroke-width:3.36;}
	.st17{fill:#94A3B8;}
	.st18{fill:#A7F3D0;}
	.st19{font-size:14.1px;}
	.st20{fill:none;}
	.st21{enable-background:new    ;}
	.st22{fill:#065F46;}
	.st23{font-size:18.67px;}
	.st24{fill:#475569;}
	.st25{font-family:'ArialNarrow';}
	.st26{fill:#EEF2FF;stroke:#6366F1;stroke-width:2.69;}
	.st27{fill:#6366F1;}
	.st28{fill:#4338CA;}
	.st29{fill:none;stroke:#6366F1;stroke-width:2.5;}
	.st30{fill:none;stroke:#4338CA;stroke-width:2.5;}
	.st31{fill:#6366F1;stroke:#4338CA;stroke-width:2;}
	.st32{fill:#312E81;}
	.st33{fill:#A5B4FC;}
	.st34{font-size:12.76px;}
	.st35{fill:#3730A3;}
	.st36{fill:#F5F3FF;stroke:#8B5CF6;stroke-width:2.69;}
	.st37{fill:#8B5CF6;}
	.st38{fill:#5B21B6;}
	.st39{fill:#6D28D9;}
	.st40{fill:none;stroke:#8B5CF6;stroke-width:2.5;}
	.st41{fill:none;stroke:#6D28D9;stroke-width:2.5;}
	.st42{fill:#8B5CF6;stroke:#6D28D9;stroke-width:2;}
	.st43{fill:#4C1D95;}
	.st44{fill:#7C3AED;}
	.st45{fill:none;stroke:#7F3B2E;stroke-miterlimit:10;}
	.st46{fill:#FEF2F2;stroke:#EF4444;stroke-width:2.69;}
	.st47{fill:#EF4444;}
	.st48{font-size:21.44px;}
	.st49{fill:#B91C1C;}
	.st50{fill:none;stroke:#EF4444;stroke-width:2.5;}
	.st51{fill:none;stroke:#B91C1C;stroke-width:2.5;}
	.st52{fill:#EF4444;stroke:#B91C1C;stroke-width:2;}
	.st53{fill:#7F1D1D;}
	.st54{font-size:16.08px;}
	.st55{fill:none;stroke:#FECACA;stroke-width:2.69;}
	.st56{fill:#991B1B;}
	.st57{font-size:18.76px;}
	.st58{fill:#F5F3FF;stroke:#8B5CF6;stroke-width:2.69;stroke-dasharray:4,3;}
	.st59{fill:#DDD6FE;}
	.st60{font-size:12.08px;}
	.st61{fill:#FFFBEB;stroke:#F59E0B;stroke-width:2.69;}
	.st62{fill:#F59E0B;}
	.st63{fill:#F59E0B;stroke:#B45309;stroke-width:2;}
	.st64{fill:#B45309;}
	.st65{fill:none;stroke:#F59E0B;stroke-width:2.5;}
	.st66{fill:none;stroke:#B45309;stroke-width:2.5;}
	.st67{fill:#78350F;}
	.st68{fill:#D97706;}
	.st69{font-size:18.95px;}
	.st70{fill:#92400E;}
	.st71{fill:#FEF3C7;}
</style>
<sodipodi:namedview  bordercolor="#000000" borderopacity="0.25" id="namedview185" inkscape:current-layer="g185" inkscape:cx="949.40503" inkscape:cy="1143.3219" inkscape:deskcolor="#d1d1d1" inkscape:pagecheckerboard="0" inkscape:pageopacity="0.0" inkscape:showpageshadow="2" inkscape:window-height="1009" inkscape:window-maximized="1" inkscape:window-width="1920" inkscape:window-x="-8" inkscape:window-y="-8" inkscape:zoom="1.0158994" pagecolor="#ffffff">
	</sodipodi:namedview>
<g id="g16">
	<text id="text10" transform="matrix(1 0 0 1 433.5161 47.47)" class="st0 st1 st2">PSU</text>
	<text id="text11" transform="matrix(1 0 0 1 498.7261 47.47)" class="st0 st1 st2">C</text>
	<text id="text12" transform="matrix(1 0 0 1 517.0861 47.47)" class="st0 st1 st2">ONNEC</text>
	<text id="text13" transform="matrix(1 0 0 1 621.9261 47.47)" class="st0 st1 st2 st3">T</text>
	<text id="text14" transform="matrix(1 0 0 1 638.3861 47.47)" class="st0 st1 st2">OR</text>
	<text id="text15" transform="matrix(1 0 0 1 688.9961 47.47)" class="st0 st1 st2">T</text>
	<text id="text16" transform="matrix(1 0 0 1 707.1761 47.47)" class="st0 st1 st2">YPES</text>
</g>
<g>
	<path id="path18" class="st4" d="M510.5,83.4h189.4c5.6,0,10.2,7.4,10.2,16.6v536.6c0,9.2-4.6,16.6-10.2,16.6H510.5
		c-5.6,0-10.2-7.4-10.2-16.6V99.9C500.3,90.8,504.9,83.4,510.5,83.4z"/>
	<path id="path19" class="st5" d="M503.2,90.6h203.9c0.3,0,0.7-0.1,1-0.3c-1.8-4.2-4.9-7-8.3-7H510.5c-3.4,0-6.4,2.8-8.3,7
		C502.5,90.5,502.9,90.6,503.2,90.6z"/>
	<path id="path40" d="M613.3,584.1v7.7c0,0.3,0,0.6,0,0.8c0,0.2,0.2,0.2,0.3,0.2c0.1,0,0.2-0.1,0.2-0.2c0-0.3,0.1-0.7,0.1-1
		c-0.1-5-0.1-10.1,0-15.2c0-1.7,0-1.3,1.5-1.3h5.3c1.1,0,1.1,0,1.1,1v4.4c0,3.7,0,7.5,0.1,11.2c0,1.1,0,1.1,1.2,1.1s1.2,0,1.2,1.1
		c0,5.6,0,11.2,0.1,16.9c0,0.6,0.1,1.2,0.1,1.8c0,1.1-0.2,1.3-1.4,1.4c-0.7,0.1-1.5,0.1-2.2,0.1c-0.5-0.1-1.1,0.3-1.1,0.8
		c0,0,0,0,0,0.1c-1,4.8-2.1,9.7-3.1,14.5c-1.1,6.6-1.6,13.3-1.4,20c0,1.5,0.2,1.4-1.5,1.4H602c-1.9,0-2-0.1-2.3-1.8
		c-0.2-1.2-0.1-2.5-0.2-3.7c-0.4-3-0.4-6.1-1-9.2c-0.8-4.3-1.6-8.7-2.4-13c-0.5-2.5-1.3-5-2.3-7.4c-0.1-0.5-0.5-0.8-1-0.8
		c-0.5-0.1-1.5-0.9-1.7-0.9H587c-1.1,0-1.2-0.2-1.2-1.2c0.2-6.2-0.1-12.5,0-18.7c0-1.3,0-1.3,1.4-1.4c1.1-0.1,1.1-0.1,1.1-1.1v-15.5
		c0-1.4,0.1-1.1,1.3-1.1h5.1c1.1,0,1.1,0,1.1,1c0.1,3.4,0.1,6.8,0.2,10.2v6.1c0,0.3,0.2,0.3,0.4,0.3s0.4-0.1,0.4-0.3s0-0.6,0-1V577
		c0-1.8,0-1.8,1.9-1.8h4.7c0.7,0,0.9,0.2,0.9,0.8c0,1.1,0,2.3,0.1,3.4c0,0.3-0.2,0.8,0.5,0.8s0.7-0.3,0.7-0.8V576
		c0-0.5,0.2-0.7,0.8-0.7h5.9c0.7,0,0.8,0.2,0.8,0.8L613.3,584.1L613.3,584.1z M607,630.6L607,630.6c0.1-2.5,0.2-5,0.3-7.6
		s0.2-5.2,0.2-7.8c0-1,0-1-1-1h-1.9c-0.6,0-0.9,0.3-0.9,0.8c0.1,1,0.1,2.1,0.2,3.1c0.5,6.1,1,12.3,1.6,18.4c0.3,3.1,0.4,6.2,0.7,9.3
		c0,0.1,0,0.3,0.1,0.4c0-0.1,0.1-0.3,0.1-0.4C606.6,640.8,606.8,635.7,607,630.6L607,630.6z M611.6,624.6v9.4c0,0.1,0,0.3,0.1,0.4
		c0-0.1,0.1-0.3,0.1-0.4c0.2-2.3,0.5-4.5,0.9-6.8c0.8-3.8,1.6-7.6,2.5-11.4c0.3-1.6,0.3-1.6-1.5-1.6c-1.4,0-1.5,0.1-1.5,1.4
		C612,618.7,611.7,624.6,611.6,624.6L611.6,624.6z M599.8,622c-0.2-2-0.5-4.2-0.8-6.4c0-0.3-0.1-0.6-0.2-0.8c-0.2-0.4-0.7-0.3-1-0.2
		s-0.2,0.4-0.2,0.6c0.2,0.8,0.4,1.5,0.6,2.3c0.5,1.7,0.9,3.5,1.4,5.2c0,0.1,0,0.3,0.2,0.3c0-0.1,0-0.2,0-0.3
		C599.9,622.4,599.9,622.2,599.8,622L599.8,622z M598.5,632c0,0.1,0,0.1,0,0.2v0.1c0,0,0.1-0.1,0.1-0.1
		C598.6,632.2,598.6,632.1,598.5,632L598.5,632z M598.8,633.5v0.2C598.8,633.6,598.9,633.6,598.8,633.5L598.8,633.5L598.8,633.5z"/>
	<path id="path20" class="st5" d="M707.2,644.1H503.2c-0.7,0-1.4,0.4-1.8,0.9c0.7,2.8,2.3,5.3,4.4,7.3h198.8c2.1-2,3.6-4.5,4.4-7.3
		C708.5,644.5,707.9,644.1,707.2,644.1z"/>
</g>
<g>
	<path id="path21" class="st5" d="M527.2,99.3h156c7.7,0,14,7.8,14,17.5l0,0c0,9.7-6.3,17.5-14,17.5h-156c-7.7,0-14-7.8-14-17.5l0,0
		C513.2,107.1,519.4,99.3,527.2,99.3z"/>
	<text id="text21" transform="matrix(1 0 0 1 541.4664 121.9222)" class="st6 st7 st8">6+2 pin PCIe</text>
</g>
<g>
	<rect id="rect21" x="596.2" y="164.6" class="st9" width="18" height="8"/>
	<line id="line21" class="st10" x1="600.2" y1="154.6" x2="600.2" y2="164.6"/>
	<line id="line22" class="st11" x1="605.2" y1="154.6" x2="605.2" y2="164.6"/>
	<line id="line23" class="st10" x1="610.2" y1="154.6" x2="610.2" y2="164.6"/>
	<path id="rect23" class="st12" d="M548.2,172.6h70c2.8,0,5,2.2,5,5v44c0,2.8-2.2,5-5,5h-70c-2.8,0-5-2.2-5-5v-44
		C543.2,174.8,545.4,172.6,548.2,172.6z"/>
	<path id="rect24" class="st13" d="M552.7,181.6h15c0.8,0,1.5,0.7,1.5,1.5v13c0,0.8-0.7,1.5-1.5,1.5h-15c-0.8,0-1.5-0.7-1.5-1.5v-13
		C551.2,182.3,551.9,181.6,552.7,181.6z"/>
	<path id="rect25" class="st13" d="M574.7,181.6h15c0.8,0,1.5,0.7,1.5,1.5v13c0,0.8-0.7,1.5-1.5,1.5h-15c-0.8,0-1.5-0.7-1.5-1.5v-13
		C573.2,182.3,573.9,181.6,574.7,181.6z"/>
	<path id="rect26" class="st13" d="M596.7,181.6h15c0.8,0,1.5,0.7,1.5,1.5v13c0,0.8-0.7,1.5-1.5,1.5h-15c-0.8,0-1.5-0.7-1.5-1.5v-13
		C595.2,182.3,595.9,181.6,596.7,181.6z"/>
	<path id="rect27" class="st13" d="M552.7,203.6h15c0.8,0,1.5,0.7,1.5,1.5v13c0,0.8-0.7,1.5-1.5,1.5h-15c-0.8,0-1.5-0.7-1.5-1.5v-13
		C551.2,204.3,551.9,203.6,552.7,203.6z"/>
	<path id="rect28" class="st13" d="M574.7,203.6h15c0.8,0,1.5,0.7,1.5,1.5v13c0,0.8-0.7,1.5-1.5,1.5h-15c-0.8,0-1.5-0.7-1.5-1.5v-13
		C573.2,204.3,573.9,203.6,574.7,203.6z"/>
	<path id="rect29" class="st13" d="M596.7,203.6h15c0.8,0,1.5,0.7,1.5,1.5v13c0,0.8-0.7,1.5-1.5,1.5h-15c-0.8,0-1.5-0.7-1.5-1.5v-13
		C595.2,204.3,595.9,203.6,596.7,203.6z"/>
	<path id="rect30" class="st14" d="M638.2,172.6h24c2.8,0,5,2.2,5,5v44c0,2.8-2.2,5-5,5h-24c-2.8,0-5-2.2-5-5v-44
		C633.2,174.8,635.4,172.6,638.2,172.6z"/>
	<path id="rect31" class="st13" d="M642.7,181.6h15c0.8,0,1.5,0.7,1.5,1.5v13c0,0.8-0.7,1.5-1.5,1.5h-15c-0.8,0-1.5-0.7-1.5-1.5v-13
		C641.2,182.3,641.9,181.6,642.7,181.6z"/>
	<path id="rect32" class="st13" d="M642.7,203.6h15c0.8,0,1.5,0.7,1.5,1.5v13c0,0.8-0.7,1.5-1.5,1.5h-15c-0.8,0-1.5-0.7-1.5-1.5v-13
		C641.2,204.3,641.9,203.6,642.7,203.6z"/>
</g>
<g id="g32">
	<text id="text32" transform="matrix(1 0 0 1 528.9353 251.525)" class="st5 st7 st15">6 pin + 2 detachable</text>
</g>
<g>
	<g>
		<line id="line32" class="st16" x1="605.1" y1="263.4" x2="605.1" y2="298.3"/>
		<path id="path32" class="st17" d="M605.2,301l-6.7-10.7h13.4L605.2,301z"/>
	</g>
	<g>
		<path id="rect33" class="st4" d="M567.6,309h75.2c4.5,0,8.1,3.6,8.1,8.1v64.4c0,4.5-3.6,8.1-8.1,8.1h-75.2c-4.5,0-8.1-3.6-8.1-8.1
			v-64.4C559.5,312.7,563.1,309,567.6,309z"/>
		<circle id="circle34" class="st18" cx="605.1" cy="342.6" r="9.4"/>
		<g>
			<path id="rect34" class="st5" d="M574.3,322.2H636c2.2,0,4,1.8,4,4V353c0,2.2-1.8,4-4,4h-61.8c-2.2,0-4-1.8-4-4v-26.8
				C570.2,324,572,322.2,574.3,322.2z"/>
			<circle id="circle35" class="st18" cx="605.1" cy="339.6" r="9.4"/>
		</g>
		<text id="text35" transform="matrix(1 0 0 1 590.7066 378.8651)" class="st9 st1 st19">GPU</text>
	</g>
	<rect x="500.7" y="408.8" class="st20" width="209" height="44.1"/>
	<text id="text36" transform="matrix(1 0 0 1 526.3531 424.785)" class="st21"><tspan x="0" y="0" class="st22 st7 st23">GRAPHICS CARD </tspan><tspan x="43.6" y="22.4" class="st22 st7 st23">POWER</tspan></text>
</g>
<g>
	<rect x="500" y="463" class="st20" width="207" height="114.7"/>
	<text id="text37" transform="matrix(1 0 0 1 514.9957 479.015)" class="st21"><tspan x="0" y="0" class="st24 st25 st23">Mid-range GPUs use one; </tspan><tspan x="24.2" y="22.4" class="st24 st25 st23">high-end need 2-3.</tspan><tspan x="-1.9" y="44.8" class="st24 st25 st23">the +2 detaches to fit older </tspan><tspan x="41.3" y="67.2" class="st24 st25 st23">6-pin sockets.</tspan></text>
</g>
<path id="path86" d="M981.7,599.2"/>
<g>
	<g>
		<path id="path3_1_" class="st26" d="M272.4,83.3h189.4c5.6,0,10.2,7.5,10.2,16.6v536.7c0,9.2-4.6,16.6-10.2,16.6H272.4
			c-5.6,0-10.2-7.4-10.2-16.6V99.9C262.2,90.8,266.8,83.3,272.4,83.3z"/>
		<path id="path135" d="M386,639.9c-0.3,0.2-0.3,0.5-0.4,0.8c-1,2.8-1.9,5.7-2.4,8.7c-0.1,0.7-0.4,0.9-1.1,0.9h-12.6
			c-0.6,0-1.2-0.3-1.6-0.2c-0.6,0.1-1.2,0.1-1.8,0.1c-3.1,0.1-6.1,0.1-9.2,0.1c-0.1,0-0.3,0-0.4,0c-1-0.2-2-0.2-2.9,0
			c-0.3,0-0.5,0-0.8,0c-0.9,0-1-0.1-1.2-1c-0.7-2.6-1.5-5.1-2.5-7.6c-1.2-2.9-2.5-5.7-4-8.5c-0.6-1.2-1.4-2.2-2-3.4
			c-1.8-3.2-4-6.1-5.5-9.4c-0.9-2-2-3.9-2.8-5.9c0-0.1-0.1-0.2-0.1-0.3c-0.1-0.1-0.1-0.3-0.3-0.2c-0.1,0.1-0.2,0.2-0.1,0.4
			c0.2,0.6,0.4,1.3,0.5,1.9c0,0.2,0.1,0.3,0.2,0.5s0.1,0.5-0.1,0.7s-0.4-0.2-0.5-0.4c-0.6-1.1-1-2.4-1.3-3.6
			c-0.1-0.5-0.3-0.9-0.6-1.3c-0.3,0.5,0,0.9,0.1,1.3c0.8,2.7,1.8,5.3,3.2,7.8c1.6,2.8,3.3,5.5,4.9,8.3c0.9,1.5,1.8,3,2.5,4.5
			c0.2,0.5,0.5,0.9,0.9,1.3c0.1-0.6-0.2-1-0.5-1.4c-0.1-0.2-0.4-0.3-0.1-0.5s0.4,0.1,0.5,0.2c1.1,1.4,2.1,2.9,2.8,4.6
			c1,2.2,1.9,4.4,2.7,6.6c0.4,1.1,0.7,2.3,1,3.4c0,0.2,0.1,0.3,0.1,0.5c0.1,0.4,0.7,0.9,0.1,1.3c-0.6,0.3-1.4,0.1-1.7-0.5
			c0,0,0,0,0,0c-0.1-0.1-0.1-0.2-0.1-0.3c-0.8-2.9-1.8-5.8-3-8.6c-1.3-3.1-2.9-6.2-4.6-9.1c-1.9-3.2-3.8-6.4-5.6-9.7
			c-1.6-3-2.9-6.1-3.9-9.3c-0.3-1-0.3-1-1.4-1.1c-0.8,0-1.7-0.1-2.5-0.2c-1-0.2-1-0.2-1-1.3c0-3.3,0-6.5,0.1-9.8v-7.3
			c0-1.1,0-1.1,1.1-1.2c1.3,0,1.1,0,1.1-1.3v-15c0-0.3,0.1-0.7,0.6-0.7c1.5,0,3.1-0.1,4.7-0.1c1.1,0.1,1.9,1.1,1.9,2.2
			c0.1,3.9,0.1,7.8,0.1,11.7v2.4c0,0.1,0,0.3,0.1,0.3s0.1-0.2,0.1-0.4v-14.3c0-0.4,0-0.8,0.1-1.3c0-0.4,0.4-0.8,0.8-0.8h4.9
			c0.5,0,1.1,0.9,1.2,1.7s0.1,1.8,0.1,2.6v11.5c0,0.4-0.3,1,0.5,1s0.5-0.7,0.5-1v-14.8c0.1-0.9,0.1-1,1-1h4.4c0.8,0,1.1,0.2,1.2,1.1
			c0.1,0.5,0.1,1,0.1,1.5c0.1,4.3,0.2,8.7,0.2,13v1c0,0.2,0.1,0.4,0.3,0.4h0.1c0.2,0,0.4-0.1,0.4-0.3c0,0,0,0,0,0c0,0,0-0.1,0-0.1
			V576c0.1-1.3,0.2-1.3,1.4-1.3h3.9c1.1,0,1.5,0.4,1.5,1.6c0.1,1.9,0.1,3.8,0.1,5.7v8.5c0,0.3-0.1,0.7,0.2,1c0.2,0.1,0.5,0.1,0.8,0
			c0.3-0.1,0.2-0.4,0.2-0.7c0-3.7,0-7.3,0-10.9v-4c0-1.1,0.1-1.1,1.1-1.1h4c1,0,1.4,0.4,1.4,1.4c0,0.4-0.1,0.8,0.4,1.1
			s0.2,0.6,0.2,0.9v1.2c0,0.2,0.1,0.3,0.2,0.3c0.1,0,0.3-0.1,0.3-0.2c0,0,0,0,0,0c0,0,0-0.1,0-0.1c0-0.3-0.1-0.6-0.1-0.9
			s-0.1-0.9,0.5-1.1c0.3-0.1,0.3-0.4,0.3-0.6c0-0.4,0-0.8,0.1-1.2c0.1-0.4,0.2-0.7,0.6-0.7l4.9-0.1c0.5,0,0.7,0.4,0.8,0.8
			c0.1,0.5,0.1,1,0.1,1.5c0,4.5,0,9,0,13.6c0,0.9,0.1,1,0.6,1c0.2,0,0.4-0.1,0.4-0.3c0,0,0-0.1,0-0.1v-1.5c0-4.4-0.1-8.8,0-13.1
			c0-0.3,0-0.6,0-0.8c0-0.5,0.4-0.9,0.9-0.9c0,0,0,0,0,0h4.7c0.5,0,1,0.3,1,0.9c0,0,0,0,0,0l0,0c0.1,0.3,0.1,0.7,0.1,1v13.8
			c0,0.3,0,0.6,0,0.8c0,0.3,0.3,0.3,0.6,0.3s0.4-0.1,0.4-0.3s0-0.6,0-1v-14c0.1-1.3,0.3-1.6,1.6-1.6h3.8c1.3,0,1.3,0,1.4,1.4V591
			c0,0.4,0.2,0.5,0.6,0.5s0.6-0.1,0.6-0.5s0-0.6,0-0.8v-12.6c0-0.6,0-1.3,0.1-1.9c0.1-0.6,0.3-0.9,0.9-0.9h4.8c0.6,0,1,0.4,1.1,0.9
			c0,0,0,0,0,0v0.1c0,0.6,0,1.1,0,1.7c0,4.4,0,8.8,0,13.2c0,0.2-0.1,0.7,0.2,0.7s0.1-0.5,0.2-0.7c0.1-4.5,0-8.9,0.1-13.3
			c-0.1-0.8,0.3-1.7,1-2.2c0.2-0.2,0.5-0.3,0.8-0.3h4.4c1,0,1,0.1,1,1.1c0.1,1.3,0.1,2.5,0,3.8c0,3.6-0.1,7.2-0.1,10.8
			c0,0.9,0,1,0.9,1c0.6,0,1,0.4,1,1c0.1,0.6,0.1,1.2,0.1,1.8c0,4.4-0.1,8.8-0.1,13.3c0,0.8,0,1.5,0.1,2.3c0.2,1.1-0.2,1.5-1.3,1.6
			c-0.7,0-1.5,0-2.2,0c-0.5-0.1-1,0.3-1,0.7c-1.9,4.9-4.3,9.7-7,14.2c-3.3,5.7-5.9,11.7-7.6,18c-0.4,1.6-0.9,3.1-1.3,4.7
			c-0.3,1-0.3,1-1.2,1h-2.1c-0.5,0-0.7-0.1-0.6-0.7c0.4-1.7,0.8-3.4,1.3-5.1c0.3-1.1,0.7-2.2,1-3.3c0.2-0.4,0.3-0.8,0.3-1.2
			c0.3-0.2,0.2-0.4,0.2-0.7c0.2,0,0.2-0.2,0.3-0.3l0,0c-0.2,0-0.3,0.1-0.3,0.3c-0.1,0.3-0.1,0.6,0.1,0.8L386,639.9z M388.7,621.9
			c0,0-0.2,0-0.1,0.1L388.7,621.9L388.7,621.9L388.7,621.9z M389,624.3c0.1-0.1,0.2-0.3,0.2-0.4c0.5-0.4,0.7-1,0.6-1.6
			c0.3-0.2,0.5-0.6,0.5-1h-0.1c-0.2,0.3-0.4,0.6-0.4,1v0.1c-0.4,0.4-0.7,1-0.7,1.6l-0.2,0.5l0,0L389,624.3z M384,615.6
			c-0.1,0.1-0.2,0-0.2,0.2s0,0.1,0,0.1L384,615.6l0-0.2c0-0.1,0.1-0.2,0-0.3v0.3C384,615.5,384,615.6,384,615.6L384,615.6z
			 M390,617.8c-0.3,0.2-0.2,0.4-0.2,0.7c-0.3,0.1-0.2,0.4-0.2,0.7c-0.4,0.2-0.4,0.6-0.5,0.9l-0.2,0.7l-0.1,0.2h0.1v-0.3
			c0.3-0.2,0.2-0.4,0.2-0.7c0.4-0.2,0.4-0.6,0.5-0.9c0.1-0.2,0.2-0.4,0.2-0.7C389.9,618.3,390,618,390,617.8
			c0.2-0.2,0.2-0.4,0.1-0.7c0.8-1.7,1.5-3.5,1.9-5.3c0-0.1,0-0.2-0.1-0.3s-0.2,0.2-0.2,0.3l-1.5,5.3c-0.1,0.2-0.1,0.5,0,0.7
			L390,617.8z M374.6,634.1c-0.3,0.3-0.2,0.6-0.3,0.9c0,0.1,0,0.1,0,0.2v0.4h0.1c0-0.1,0-0.3,0-0.4c0-0.1,0-0.1,0-0.2
			C374.7,634.8,374.6,634.4,374.6,634.1c0.1-0.1,0.1-0.2,0.2-0.3c0-0.1,0-0.2,0-0.3c0,0.2,0,0.4,0,0.6H374.6z M358.2,634.6v0.4h0.1
			L358.2,634.6l-0.2-1c-0.7-3.5-1.5-7-2.2-10.5c0-0.3,0-0.6-0.3-0.7c0-0.5,0-0.9-0.2-1.3l-0.1-0.3c0,0.1,0,0.2,0,0.3
			c0,0.4,0.1,0.9,0.3,1.3c0,0.2,0,0.4,0,0.5c0.6,3.4,1.3,6.7,2.1,10c0.1,0.3,0.1,0.6,0.4,0.7C357.8,633.8,357.9,634.3,358.2,634.6
			L358.2,634.6z M374.2,637c-0.4,0.4-0.2,0.8-0.2,1.3c-0.4,0.3-0.2,0.8-0.3,1.1c-0.1,0.2-0.1,0.5-0.1,0.7c0,0.1,0.1,0.1,0.1,0v-0.7
			c0.4-0.3,0.2-0.8,0.3-1.1L374.2,637c0,0,0-0.1,0.1-0.2v-0.4h-0.1c0,0.1,0,0.3,0,0.4V637L374.2,637z M375.4,631.1
			c-0.3,0.4-0.5,0.9-0.4,1.5h0.1C375.2,632.1,375.3,631.7,375.4,631.1L375.4,631.1c0.1-0.5,0.2-0.9,0.3-1.3c0.1-0.1,0.1-0.3,0-0.4
			c0,0.1-0.1,0.3-0.1,0.4C375.3,630.3,375.3,630.7,375.4,631.1L375.4,631.1z M372.6,637.3c0.5-1.4,0.8-2.9,1-4.3c0-0.1,0-0.2,0-0.3
			c-0.1,0.1-0.2,0.2-0.2,0.3C373.2,634.4,372.8,635.9,372.6,637.3c0,0.1,0,0.2,0,0.3c0,0.1-0.1,0.2,0,0.3v-0.3
			C372.6,637.5,372.6,637.5,372.6,637.3L372.6,637.3z M375.3,625.1c0.3-0.7,0.5-1.4,0.6-2.1c0.6-2.5,1.3-4.9,1.8-7.4
			c0-0.1,0-0.3,0-0.4c-0.2,0-0.2,0.2-0.2,0.4c-0.6,2.4-1.1,4.7-1.7,7.1C375.5,623.5,375.4,624.3,375.3,625.1L375.3,625.1z
			 M394.8,617c0.9-1.4,1.7-3,2.5-4.4c0.2-0.3,0.5-0.7,0.4-0.9s-0.7-0.1-1-0.1s-0.5,0.3-0.6,0.6c-0.2,0.7-0.4,1.5-0.6,2.2
			C395.1,615.2,394.9,616.1,394.8,617L394.8,617L394.8,617z M340,618.4c0,0.1-0.1,0.2,0.1,0.2L340,618.4c-0.4-1.8-0.8-3.7-1-5.5
			c-0.2-1.3-0.2-1.3-1.5-1.3c-0.7,0-0.7,0-0.5,0.7c0.8,2,1.7,3.9,2.6,5.8C339.7,618.2,339.8,618.4,340,618.4L340,618.4z
			 M348.7,628.2L348.7,628.2c0.1-0.5,0-1.1-0.2-1.5c-0.9-2.9-1.6-5.8-2.2-8.7c-0.4-1.8-0.7-3.6-1-5.5c-0.1-0.5-0.2-1-0.9-0.9
			c-0.2,0-0.4,0-0.6,0c-0.5,0-0.6,0.2-0.6,0.7c0.2,2.5,0.7,5,1.5,7.4C345.9,622.5,347.2,625.4,348.7,628.2L348.7,628.2z
			 M362.4,628.4c0.2-1.6,0.2-3.3,0.1-4.9c-0.5-3.4-0.8-6.7-1.3-10.1c-0.2-1.6-0.6-1.8-2.1-1.8c-0.6,0-0.8,0.2-0.8,0.8
			c0.2,1.9,0.4,3.8,0.7,5.7c0.8,5.1,2.1,10.1,3.1,15.2c0,0.1,0,0.4,0.2,0.4s0.1-0.3,0.1-0.5C362.4,631.7,362.4,630.1,362.4,628.4
			L362.4,628.4z M369.2,614.3v-2c0-0.6-0.2-0.8-0.7-0.8s-1.1,0-1.7,0c-1,0-1,0-1,1.1c0.1,3.6,0.5,7.1,0.9,10.7
			c0.2,1.9,0.5,3.7,0.8,5.6c0,0.1,0,0.3,0.1,0.3s0.1-0.2,0.1-0.3c0-0.1,0.1-0.3,0.1-0.4C368.5,623.9,369,619.1,369.2,614.3
			L369.2,614.3z M373.7,616.9c0.1,1.8,0.2,3.5,0.3,5.1c0,0.2-0.1,0.6,0.2,0.6s0.2-0.4,0.2-0.6c0.6-2.8,1.1-5.7,1.4-8.6
			c0-0.6,0.6-1.4,0.1-1.8s-1.2-0.1-1.9-0.1s-0.7,0.3-0.6,0.8C373.5,613.9,373.4,615.5,373.7,616.9L373.7,616.9z M370.2,618.8v-0.6
			c0-0.1,0-0.3-0.1-0.4c-0.1,0.1-0.1,0.3-0.1,0.4c-0.2,1.5-0.4,3-0.6,4.6c-0.3,3.6-0.8,7.1-1.4,10.6c-0.3,2.1-0.6,4.1-0.8,6.2
			c-0.1,1-0.1,2-0.2,3c0,0.1,0,0.3,0.1,0.3s0.1-0.2,0.2-0.3c0-0.1,0.1-0.2,0.1-0.3c0.4-2.6,0.7-5.1,1.1-7.7s0.6-5.4,1-8.1
			C369.8,623.9,370,621.3,370.2,618.8L370.2,618.8z M368.2,644v0.3c0,0.2,0,0.3,0.1,0.5c0-0.2,0.1-0.3,0.1-0.5
			c0.1-0.7,0.2-1.3,0.2-2c0.6-4.1,1.3-8.2,1.7-12.3c0.1-1.3,0.3-2.6,0.5-4v-0.6c-0.3,0.1-0.2,0.4-0.3,0.6c-0.1,1.4-0.4,2.8-0.6,4.1
			C369,634.7,368.5,639.3,368.2,644L368.2,644z M355.3,648.3c-0.3-1.9-0.8-3.7-1.5-5.4c0-0.1-0.1-0.3-0.3-0.2s-0.1,0.2,0,0.4
			c0.3,1.2,0.7,2.3,1,3.5c0.2,0.7,0.2,1.5,0.4,2.2c0,0.1,0.1,0.3,0.3,0.3c0.1,0,0.2-0.2,0.3-0.4L355.3,648.3z M348.6,645.3
			c0-0.2-0.1-0.3-0.2-0.4c-0.4-1-0.8-2-1.2-3c-0.2-0.8-0.5-1.5-0.9-2.2c-0.1-0.2-0.2-0.3-0.4-0.2s0,0.2,0,0.4c0.5,1.3,1,2.7,1.6,4
			c0.1,0.6,0.4,1.1,0.6,1.7c0.1,0.1,0.1,0.2,0.2,0.2C348.6,645.6,348.7,645.4,348.6,645.3L348.6,645.3z M351.1,636.1
			c-0.1,0.1-0.1,0.2-0.1,0.3l1.9,5c0,0.1,0.1,0.3,0.3,0.2s0-0.3,0-0.4l-1.7-4.6c-0.1-0.1-0.1-0.2-0.2-0.3L351.1,636.1L351.1,636.1z
			 M365.1,631.9v-3.3c0-0.1,0-0.3-0.1-0.4c0,0.1,0,0.2-0.1,0.3c-0.1,3-0.2,5.9-0.2,8.9c0,0.1,0,0.3,0.1,0.4c0-0.1,0.1-0.3,0.1-0.4
			C365.1,635.6,365.2,633.8,365.1,631.9L365.1,631.9z M340.1,613.5c-0.2,0-0.1,0.1-0.1,0.2c0.1,1.3,0.3,2.5,0.8,3.7
			c0.1,0.1,0.1,0.3,0.3,0.2s0.1-0.2,0.1-0.4c-0.3-1.2-0.6-2.3-1-3.5C340.1,613.7,340.1,613.6,340.1,613.5L340.1,613.5z M370.7,623.7
			L370.7,623.7l-0.1,0.4c0,0.1-0.1,0.3,0.1,0.4s0.2-0.2,0.2-0.3c0.1-1.3,0.3-2.5,0.4-3.8c0-0.1,0.1-0.3-0.1-0.3
			c0,0.1-0.1,0.2-0.1,0.3L370.7,623.7z M370.4,613.7L370.4,613.7v-0.3c0-0.4,0-0.8-0.1-1.1c-0.3,0.3-0.1,0.7-0.2,1
			c-0.1,0.2-0.1,0.5-0.1,0.7c-0.1,0.4,0,0.8,0.1,1.2c0.5-0.3,0.2-0.8,0.3-1.2C370.4,614,370.4,613.9,370.4,613.7L370.4,613.7z
			 M363.5,632.1L363.5,632.1v1.8c0,0.1,0,0.3,0.1,0.4c0-0.1,0-0.2,0-0.3v-3.5c0-0.1,0-0.2-0.1-0.3c0,0.1,0,0.2-0.1,0.3
			C363.5,631,363.5,631.6,363.5,632.1L363.5,632.1z M371.4,613.6v0.5c0,0.2-0.1,0.3,0.1,0.3c0-0.1,0.1-0.2,0.1-0.3
			c0.1-0.2,0.1-0.3,0.1-0.5c0-0.5,0.2-1-0.1-1.5C371.4,612.7,371.4,613.2,371.4,613.6L371.4,613.6z M364.5,641.2
			c0.1,0.4-0.1,0.8,0.1,1.3c0-0.5,0.1-0.9,0.1-1.4c0.1-0.5,0.1-1,0-1.5C364.4,640.1,364.6,640.7,364.5,641.2L364.5,641.2z
			 M369.7,645.8c-0.1,0.3,0,0.7,0.1,1c0.1-0.3,0.2-0.7,0.1-1c0-0.3,0.3-0.8-0.1-0.9S369.8,645.5,369.7,645.8L369.7,645.8z
			 M373.4,641.4L373.4,641.4C373.4,641.3,373.3,641.3,373.4,641.4c-0.1,0.1-0.1,0.1-0.1,0.1S373.4,641.5,373.4,641.4L373.4,641.4z
			 M345,637.4c0,0,0.1,0.1,0.2,0.1c0,0,0.1-0.1,0-0.1c0,0,0,0,0,0C345.1,637.3,345.1,637.3,345,637.4
			C345.1,637.3,345,637.3,345,637.4L345,637.4z M358.7,637v-0.2C358.7,636.8,358.7,636.9,358.7,637C358.7,637,358.7,637,358.7,637
			L358.7,637z M359.1,639h0.1c0,0,0-0.1,0-0.1L359.1,639L359.1,639z M363.3,619C363.4,619,363.4,619,363.3,619L363.3,619L363.3,619z
			 M359.2,625.6L359.2,625.6z M358.5,636L358.5,636L358.5,636C358.6,636,358.6,636,358.5,636L358.5,636z M370.9,649.1L370.9,649.1z
			 M383.7,616.6L383.7,616.6L383.7,616.6C383.6,616.8,383.6,616.8,383.7,616.6C383.7,616.6,383.7,616.5,383.7,616.6L383.7,616.6z
			 M358.9,624.4L358.9,624.4C358.9,624.4,358.8,624.4,358.9,624.4C358.8,624.5,358.8,624.4,358.9,624.4L358.9,624.4z M358.9,637.9
			L358.9,637.9z M384.3,614.3L384.3,614.3C384.3,614.2,384.2,614.2,384.3,614.3L384.3,614.3L384.3,614.3z M363.3,639.3v0.2h0.1
			C363.3,639.4,363.3,639.4,363.3,639.3L363.3,639.3z M388.1,623L388.1,623L388.1,623L388.1,623z M383.4,617.4L383.4,617.4
			L383.4,617.4L383.4,617.4z M384.4,613.6L384.4,613.6z M357.4,609.8L357.4,609.8L357.4,609.8L357.4,609.8z M377.5,627.3
			L377.5,627.3L377.5,627.3L377.5,627.3z"/>
		<path id="path5_1_" class="st27" d="M265.1,90.6h203.9c0.4,0,0.7-0.1,1-0.3c-1.9-4.2-4.9-7-8.3-7H272.4c-3.4,0-6.4,2.8-8.3,7
			C264.4,90.5,264.8,90.6,265.1,90.6z"/>
		<path id="path6_1_" class="st27" d="M469.1,644.1H265.1c-0.7,0-1.4,0.4-1.8,0.9c0.8,2.8,2.3,5.3,4.4,7.3h198.8
			c2.1-2,3.6-4.5,4.4-7.3C470.5,644.5,469.8,644.1,469.1,644.1z"/>
	</g>
	<g>
		<path id="path88" class="st27" d="M316.1,99.3h102c7.7,0,14,7.8,14,17.5l0,0c0,9.7-6.3,17.5-14,17.5h-102c-7.7,0-14-7.8-14-17.5
			l0,0C302.1,107.2,308.4,99.3,316.1,99.3z"/>
		<g id="g91">
			<text id="text88" transform="matrix(1 0 0 1 312.5867 121.9219)" class="st6 st7 st8">24-pin ATX</text>
		</g>
	</g>
	<g>
		<rect id="rect91" x="358.1" y="158.6" class="st28" width="18" height="8"/>
		<line id="line91" class="st29" x1="362.1" y1="148.6" x2="362.1" y2="158.6"/>
		<line id="line92" class="st30" x1="367.1" y1="148.6" x2="367.1" y2="158.6"/>
		<line id="line93" class="st29" x1="372.1" y1="148.6" x2="372.1" y2="158.6"/>
		<path id="rect93" class="st31" d="M297.1,166.6h140c2.8,0,5,2.2,5,5v50c0,2.8-2.2,5-5,5h-140c-2.8,0-5-2.2-5-5v-50
			C292.1,168.8,294.3,166.6,297.1,166.6z"/>
		<path id="rect94" class="st32" d="M300.6,175.6h6c0.8,0,1.5,0.7,1.5,1.5v15c0,0.8-0.7,1.5-1.5,1.5h-6c-0.8,0-1.5-0.7-1.5-1.5v-15
			C299.1,176.3,299.8,175.6,300.6,175.6z"/>
		<path id="rect95" class="st32" d="M312.1,175.6h6c0.8,0,1.5,0.7,1.5,1.5v15c0,0.8-0.7,1.5-1.5,1.5h-6c-0.8,0-1.5-0.7-1.5-1.5v-15
			C310.6,176.3,311.3,175.6,312.1,175.6z"/>
		<path id="rect96" class="st32" d="M323.6,175.6h6c0.8,0,1.5,0.7,1.5,1.5v15c0,0.8-0.7,1.5-1.5,1.5h-6c-0.8,0-1.5-0.7-1.5-1.5v-15
			C322.1,176.3,322.8,175.6,323.6,175.6z"/>
		<path id="rect97" class="st32" d="M335.1,175.6h6c0.8,0,1.5,0.7,1.5,1.5v15c0,0.8-0.7,1.5-1.5,1.5h-6c-0.8,0-1.5-0.7-1.5-1.5v-15
			C333.6,176.3,334.3,175.6,335.1,175.6z"/>
		<path id="rect98" class="st32" d="M346.6,175.6h6c0.8,0,1.5,0.7,1.5,1.5v15c0,0.8-0.7,1.5-1.5,1.5h-6c-0.8,0-1.5-0.7-1.5-1.5v-15
			C345.1,176.3,345.8,175.6,346.6,175.6z"/>
		<path id="rect99" class="st32" d="M358.1,175.6h6c0.8,0,1.5,0.7,1.5,1.5v15c0,0.8-0.7,1.5-1.5,1.5h-6c-0.8,0-1.5-0.7-1.5-1.5v-15
			C356.6,176.3,357.3,175.6,358.1,175.6z"/>
		<path id="rect100" class="st32" d="M369.6,175.6h6c0.8,0,1.5,0.7,1.5,1.5v15c0,0.8-0.7,1.5-1.5,1.5h-6c-0.8,0-1.5-0.7-1.5-1.5v-15
			C368.1,176.3,368.8,175.6,369.6,175.6z"/>
		<path id="rect101" class="st32" d="M381.1,175.6h6c0.8,0,1.5,0.7,1.5,1.5v15c0,0.8-0.7,1.5-1.5,1.5h-6c-0.8,0-1.5-0.7-1.5-1.5v-15
			C379.6,176.3,380.3,175.6,381.1,175.6z"/>
		<path id="rect102" class="st32" d="M392.6,175.6h6c0.8,0,1.5,0.7,1.5,1.5v15c0,0.8-0.7,1.5-1.5,1.5h-6c-0.8,0-1.5-0.7-1.5-1.5v-15
			C391.1,176.3,391.8,175.6,392.6,175.6z"/>
		<path id="rect103" class="st32" d="M404.1,175.6h6c0.8,0,1.5,0.7,1.5,1.5v15c0,0.8-0.7,1.5-1.5,1.5h-6c-0.8,0-1.5-0.7-1.5-1.5v-15
			C402.6,176.3,403.3,175.6,404.1,175.6z"/>
		<path id="rect104" class="st32" d="M415.6,175.6h6c0.8,0,1.5,0.7,1.5,1.5v15c0,0.8-0.7,1.5-1.5,1.5h-6c-0.8,0-1.5-0.7-1.5-1.5v-15
			C414.1,176.3,414.8,175.6,415.6,175.6z"/>
		<path id="rect105" class="st32" d="M427.1,175.6h6c0.8,0,1.5,0.7,1.5,1.5v15c0,0.8-0.7,1.5-1.5,1.5h-6c-0.8,0-1.5-0.7-1.5-1.5v-15
			C425.6,176.3,426.3,175.6,427.1,175.6z"/>
		<path id="rect106" class="st32" d="M300.6,201.6h6c0.8,0,1.5,0.7,1.5,1.5v15c0,0.8-0.7,1.5-1.5,1.5h-6c-0.8,0-1.5-0.7-1.5-1.5v-15
			C299.1,202.3,299.8,201.6,300.6,201.6z"/>
		<path id="rect107" class="st32" d="M312.1,201.6h6c0.8,0,1.5,0.7,1.5,1.5v15c0,0.8-0.7,1.5-1.5,1.5h-6c-0.8,0-1.5-0.7-1.5-1.5v-15
			C310.6,202.3,311.3,201.6,312.1,201.6z"/>
		<path id="rect108" class="st32" d="M323.6,201.6h6c0.8,0,1.5,0.7,1.5,1.5v15c0,0.8-0.7,1.5-1.5,1.5h-6c-0.8,0-1.5-0.7-1.5-1.5v-15
			C322.1,202.3,322.8,201.6,323.6,201.6z"/>
		<path id="rect109" class="st32" d="M335.1,201.6h6c0.8,0,1.5,0.7,1.5,1.5v15c0,0.8-0.7,1.5-1.5,1.5h-6c-0.8,0-1.5-0.7-1.5-1.5v-15
			C333.6,202.3,334.3,201.6,335.1,201.6z"/>
		<path id="rect110" class="st32" d="M346.6,201.6h6c0.8,0,1.5,0.7,1.5,1.5v15c0,0.8-0.7,1.5-1.5,1.5h-6c-0.8,0-1.5-0.7-1.5-1.5v-15
			C345.1,202.3,345.8,201.6,346.6,201.6z"/>
		<path id="rect111" class="st32" d="M358.1,201.6h6c0.8,0,1.5,0.7,1.5,1.5v15c0,0.8-0.7,1.5-1.5,1.5h-6c-0.8,0-1.5-0.7-1.5-1.5v-15
			C356.6,202.3,357.3,201.6,358.1,201.6z"/>
		<path id="rect112" class="st32" d="M369.6,201.6h6c0.8,0,1.5,0.7,1.5,1.5v15c0,0.8-0.7,1.5-1.5,1.5h-6c-0.8,0-1.5-0.7-1.5-1.5v-15
			C368.1,202.3,368.8,201.6,369.6,201.6z"/>
		<path id="rect113" class="st32" d="M381.1,201.6h6c0.8,0,1.5,0.7,1.5,1.5v15c0,0.8-0.7,1.5-1.5,1.5h-6c-0.8,0-1.5-0.7-1.5-1.5v-15
			C379.6,202.3,380.3,201.6,381.1,201.6z"/>
		<path id="rect114" class="st32" d="M392.6,201.6h6c0.8,0,1.5,0.7,1.5,1.5v15c0,0.8-0.7,1.5-1.5,1.5h-6c-0.8,0-1.5-0.7-1.5-1.5v-15
			C391.1,202.3,391.8,201.6,392.6,201.6z"/>
		<path id="rect115" class="st32" d="M404.1,201.6h6c0.8,0,1.5,0.7,1.5,1.5v15c0,0.8-0.7,1.5-1.5,1.5h-6c-0.8,0-1.5-0.7-1.5-1.5v-15
			C402.6,202.3,403.3,201.6,404.1,201.6z"/>
		<path id="rect116" class="st32" d="M415.6,201.6h6c0.8,0,1.5,0.7,1.5,1.5v15c0,0.8-0.7,1.5-1.5,1.5h-6c-0.8,0-1.5-0.7-1.5-1.5v-15
			C414.1,202.3,414.8,201.6,415.6,201.6z"/>
		<path id="rect117" class="st32" d="M427.1,201.6h6c0.8,0,1.5,0.7,1.5,1.5v15c0,0.8-0.7,1.5-1.5,1.5h-6c-0.8,0-1.5-0.7-1.5-1.5v-15
			C425.6,202.3,426.3,201.6,427.1,201.6z"/>
	</g>
	<g>
		<text id="text117" transform="matrix(1 0 0 1 277.8012 252.0386)" class="st21"><tspan x="0" y="0" class="st27 st7 st15">2 × 12 pins · </tspan><tspan x="96.5" y="0" class="st27 st7 st15">often </tspan><tspan x="138.1" y="0" class="st27 st7 st15">20+4 </tspan></text>
	</g>
	<g>
		<g>
			<line id="line121" class="st16" x1="367" y1="263.4" x2="367" y2="298.3"/>
			<path id="path121" class="st17" d="M367,301l-6.7-10.7h13.4L367,301z"/>
		</g>
		<g>
			<path id="rect121" class="st26" d="M324,309.8h86.2c5.1,0,9.2,3.6,9.2,8.1v64.4c0,4.5-4.1,8.1-9.2,8.1H324
				c-5.1,0-9.2-3.6-9.2-8.1v-64.4C314.7,313.4,318.9,309.8,324,309.8z"/>
			<g>
				<path id="rect122" class="st27" d="M356.3,325.2h21.5c1.5,0,2.7,1.2,2.7,2.7v21.5c0,1.5-1.2,2.7-2.7,2.7h-21.5
					c-1.5,0-2.7-1.2-2.7-2.7v-21.5C353.6,326.4,354.8,325.2,356.3,325.2z"/>
				<path id="rect123" class="st33" d="M357.7,327.8h18.8c0.7,0,1.3,0.6,1.3,1.3v5.4c0,0.7-0.6,1.3-1.3,1.3h-18.8
					c-0.7,0-1.3-0.6-1.3-1.3v-5.4C356.3,328.4,356.9,327.8,357.7,327.8z"/>
				<path id="rect124" class="st33" d="M357.7,341.3h18.8c0.7,0,1.3,0.6,1.3,1.3v5.4c0,0.7-0.6,1.3-1.3,1.3h-18.8
					c-0.7,0-1.3-0.6-1.3-1.3v-5.4C356.3,341.9,356.9,341.3,357.7,341.3z"/>
			</g>
			<g id="g128">
				<text id="text124" transform="matrix(1 0 0 1 317.9923 384.8357)" class="st28 st1 st34">Motherboard</text>
			</g>
		</g>
		<rect x="263.6" y="408.6" class="st20" width="207" height="45.5"/>
		<text id="text129" transform="matrix(1 0 0 1 292.4237 424.645)" class="st21"><tspan x="0" y="0" class="st35 st7 st23">MOTHERBOARD </tspan><tspan x="39.4" y="22.4" class="st35 st7 st23">POWER</tspan></text>
	</g>
	<g>
		<rect x="277.2" y="462.9" class="st20" width="179.7" height="103.9"/>
		<text id="text130" transform="matrix(1 0 0 1 290.0854 478.8786)" class="st21"><tspan x="0" y="0" class="st24 st25 st23">Primary connector that </tspan><tspan x="-8.1" y="22.4" class="st24 st25 st23">powers the motherboard. </tspan><tspan x="-11.9" y="44.8" class="st24 st25 st23">Delivers the 3.3V, 5V, and </tspan><tspan x="2.1" y="67.2" class="st24 st25 st23">12V rails to the board.</tspan></text>
	</g>
</g>
<g>
	<path id="path18_2_" class="st36" d="M986.7,83.4H1176c5.6,0,10.2,7.4,10.2,16.6v536.6c0,9.2-4.6,16.6-10.2,16.6H986.7
		c-5.6,0-10.2-7.4-10.2-16.6V99.9C976.5,90.8,981,83.4,986.7,83.4z"/>
	<path id="path19_2_" class="st37" d="M979.4,90.6c1.3-0.3,203.9,0.5,204.9-0.3c5.4-15-193.9-3.7-197.6-7c-3.4,0-6.4,2.8-8.3,7
		C978.7,90.5,979,90.6,979.4,90.6z"/>
	<path id="path155" d="M1103.4,588h-1.5v-13.7h-40.3V588h-2.2v3.8h2.1v23.1h4.1l7.2,35.3c1.9-0.2,6.1-0.2,8-0.2v-35.1h2.5l-2.5,35.1
		l4.2,0.1l2.9-35.2h4.6c0,8.9-7.2,34.8-6.7,35.3h4.2c1.3-8.5,6.8-26.7,6.2-35.3h5.6v-23h1.6V588z M1076.1,640.8l-5.5-25.9h5.5V640.8
		z"/>
	<path id="path20_2_" class="st37" d="M1183.3,644.1c-1.8,0.9-204.7-1.8-205.8,0.9c0.7,2.8,2.3,5.3,4.4,7.3h198.8
		c2.1-2,3.6-4.5,4.4-7.3C1184.7,644.5,1184,644.1,1183.3,644.1z"/>
</g>
<g id="g142">
	<rect x="978.4" y="410.5" class="st20" width="195.2" height="23"/>
	<text id="text140" transform="matrix(1 0 0 1 996.6812 426.5059)" class="st38 st7 st23">LEGACY  POWER</text>
	<rect x="1074.6" y="410.5" class="st20" width="109.7" height="23"/>
</g>
<g>
	<rect x="981.4" y="463" class="st20" width="200.4" height="127"/>
	<text id="text143" transform="matrix(1 0 0 1 991.8682 479.0152)" class="st21"><tspan x="0" y="0" class="st24 st25 st23">Older connector for legacy</tspan><tspan x="-3.4" y="22.4" class="st24 st25 st23">HDDs, fans &amp; case lighting.</tspan><tspan x="7.2" y="44.8" class="st24 st25 st23">Mostly obsolete but may </tspan><tspan x="3.8" y="67.2" class="st24 st25 st23">appear on older systems.</tspan></text>
</g>
<g>
	<path id="path146" class="st37" d="M1015,110.3h132.8c9.2,0,16.6,7.8,16.6,17.5l0,0c0,9.7-7.4,17.5-16.6,17.5H1015
		c-9.2,0-16.6-7.8-16.6-17.5l0,0C998.4,118.2,1005.8,110.3,1015,110.3z"/>
	<g id="g147">
		<text id="text147" transform="matrix(1 0 0 1 1015.5927 132.9724)" class="st6 st7 st8">Molex (4-pin)</text>
	</g>
</g>
<g>
	<rect id="rect147" x="1072.3" y="174.6" class="st39" width="18" height="8"/>
	<line id="line147" class="st40" x1="1076.3" y1="164.6" x2="1076.3" y2="174.6"/>
	<line id="line148" class="st41" x1="1081.3" y1="164.6" x2="1081.3" y2="174.6"/>
	<line id="line149" class="st40" x1="1086.3" y1="164.6" x2="1086.3" y2="174.6"/>
	<path id="path149" class="st42" d="M1017.4,186.6h128l-8,40h-112L1017.4,186.6z"/>
	<path id="circle149" class="st43" d="M1043.3,197.6c11.7-0.2,11.7,18.2,0,18C1031.7,215.8,1031.7,197.4,1043.3,197.6z"/>
	<path id="circle150" class="st43" d="M1070.3,197.6c11.7-0.2,11.7,18.2,0,18C1058.7,215.8,1058.7,197.4,1070.3,197.6z"/>
	<path id="circle151" class="st43" d="M1097.3,197.6c11.7-0.2,11.7,18.2,0,18C1085.7,215.8,1085.7,197.4,1097.3,197.6z"/>
	<path id="circle152" class="st43" d="M1124.3,197.6c11.7-0.2,11.7,18.2,0,18C1112.7,215.8,1112.7,197.4,1124.3,197.6z"/>
</g>
<g>
	<text id="text152" transform="matrix(1 0 0 1 1013.8139 251.7593)" class="st44 st7 st15">4-pin ·</text>
	<text id="text153" transform="matrix(1 0 0 1 1066.2439 251.7593)" class="st44 st7 st15">r</text>
	<text id="text154" transform="matrix(1 0 0 1 1072.4739 251.7593)" class="st44 st7 st15">ound pins</text>
</g>
<path id="path185" class="st20" d="M1085.5,153.7c-2.9,1-6.1,0.2-8.2-2.1"/>
<g>
	<path class="st45" d="M128.9,83.3"/>
	<path id="path3" class="st46" d="M34.2,83.3h189.4c5.6,0,10.2,7.5,10.2,16.6v536.7c0,9.2-4.6,16.6-10.2,16.6H34.2
		c-5.6,0-10.2-7.4-10.2-16.6V99.9C24,90.8,28.6,83.3,34.2,83.3z"/>
	<path id="path184" d="M148.2,598.3c-0.1-3.1,0-6.5,0.2-9.9c0-0.2-0.2-0.6,0.2-0.7s0.5,0.2,0.7,0.4c1.2,1.6,2.3,3.3,3.2,5.1
		c0.1,0.3,0.1,0.6,0,0.9c-0.1,0.4-0.3,0.7-0.5,1c-0.7,1-1.1,2.2-1,3.5v10.9c0,2-0.8,2.9-2.8,3.2c-0.8,0.1-0.9,0.4-0.9,1.1
		c0.1,0.9,0.1,1.8,0.1,2.6s-0.2,1.3-1.3,1.3c-1,0-2.2,0.3-3.4,0.2h-0.3c0.1,0.2-1.2,0-2.8,3.5c-0.6,3.5-1.1,7-1.4,10.6
		c-0.1,2-0.4,4-0.3,6.1c0.1,1.6,0,6,0,6.6c0.1,2-0.2,4.1-0.2,6.2c0,0.8-2.6,0.4-3.4,0.4c-1.2,0-2.4-0.1-3.6,0
		c-0.6,0-1.1-1.3-1.3-3.1c-0.4-2.1-0.9-4.1-1.7-6c0-0.1-0.1-0.2-0.2-0.3v0.3c0.3,2.7,0,5.5,0,8.2c0,1-0.1,0.9-0.8,0.8
		c-2.2-0.1-4.5-0.1-6.7-0.1h-1.8c-0.6,0-0.7-3-0.7-3.8c0-5.2-0.6-10.5-1.5-15.6c-0.7-4.3-1.4-8.6-2.1-12.9c-0.1-1-0.2-1-1.2-1
		c-0.4,0-0.9,0-1.3-0.1c-1-0.1-1-0.1-1.1-1.2c-0.1-1,0-2,0-3c0-0.5-0.1-0.7-0.7-0.8c-1.6,0-3-1.2-3-2.9c0-0.1,0-0.2,0-0.3v-10.8
		c0.1-1.3-0.3-2.6-1.2-3.6c-0.7-0.8-0.7-1.9-0.2-2.7c0.8-1.6,2-2.9,2.8-4.5c0.1-0.2,0.4-0.4,0.6-0.3c0.2,0.1,0.3,0.3,0.3,0.5
		c0,0.4,0,0.8,0.1,1.3c0.1,6.2,0,12.3,0.1,18.5v1c0,0.3,0.2,0.4,0.5,0.4c0.3,0,0.5-0.1,0.5-0.4v-10.5c0-1.2,0-1.2,1.3-1.2h0.5
		c0.4,0,0.6-0.2,0.6-0.6v-16.8c0-0.2,0.1-0.5,0.4-0.5c0,0,0.1,0,0.1,0h6.1c0.6,0,0.6,0.4,0.6,0.8c0.1,1.7,0.1,3.5,0.2,5.2
		c0,3.6,0,7.2,0.1,10.8c0,0.3-0.2,1,0.3,1c0.5,0,0.3-0.6,0.3-0.9c0-5.1-0.1-10.3,0-15.4v-0.7c0-0.5,0.2-0.6,0.7-0.6h5.9
		c0.6,0,0.7,0.3,0.7,0.7v3.3c0,0.5,0.1,0.8,0.7,0.8c0.6,0,0.7-0.3,0.7-0.8V580c0-0.5,0.1-0.7,0.8-0.7h5.5c0.5,0,0.7,0.2,0.7,0.7
		s0,0.8,0,1.2c0.1,4.9-0.1,9.8-0.2,14.8v0.9c0,0.5,0.3,0.5,0.6,0.5s0.5-0.2,0.5-0.5c0-0.3,0-0.6,0-0.8c0-5.1,0-10.1,0.1-15.2
		c0-1.3,0-1.3,1.4-1.3h4.9c1,0,1,0,1,1c0,3.4,0,6.8-0.1,10.2v5.8c0,0.9,0,0.9,0.9,0.9c1.5,0.1,1.5,0.1,1.5,1.6v9.9
		c0,0.3,0,0.8,0.5,0.7c0.5-0.1,0.4-0.4,0.4-0.7L148.2,598.3z M118.8,620.7v-0.4h-0.1L118.8,620.7c0.5,3,1,6,1.4,9
		c0.6,4,1.1,7.9,1.7,11.9c0,0.1,0.1,0.3,0.1,0.4c0-0.1,0.1-0.3,0.1-0.4c-0.1-2.3-0.2-4.7-0.3-7c0-0.8-0.1-1.6-0.2-2.4
		c-0.5-2.5-0.8-5.1-1.3-7.7C120.1,623.1,119.6,621.8,118.8,620.7L118.8,620.7z M130.8,620c0-2,0-2-2.1-2c-0.9,0-0.9,0-0.9,0.9v10.4
		c0,0.4,0.1,0.8,0.2,1.2c0.6,1.3,1.1,2.7,1.7,4c0,0.1,0,0.3,0.2,0.3s0.1-0.2,0.1-0.3c0.4-1.1,0.7-2.3,1-3.5
		C131,629.1,130.8,621.7,130.8,620L130.8,620z M135.6,618c-0.3,0-0.6,0-0.6,0.5v3.9c0.1,0,0.1-0.1,0.1-0.2c0.3-1.3,0.6-2.5,0.9-3.8
		C136.1,618,135.9,618,135.6,618L135.6,618z M117.9,650.7L117.9,650.7L117.9,650.7L117.9,650.7L117.9,650.7z"/>
	<path id="path5" class="st47" d="M26.9,90.6h203.9c0.4,0,0.7-0.1,1-0.3c-1.9-4.2-4.9-7-8.3-7H34.2c-3.4,0-6.4,2.8-8.3,7
		C26.2,90.5,26.6,90.6,26.9,90.6z"/>
	<path id="path6" class="st47" d="M230.9,644.1H26.9c-0.7,0-1.4,0.4-1.8,0.9c0.8,2.8,2.3,5.3,4.4,7.3h198.8c2.1-2,3.6-4.5,4.4-7.3
		C232.2,644.5,231.6,644.1,230.9,644.1z"/>
	<g>
		<path id="path163" class="st47" d="M58.8,99.3h140.1c8.2,0,14.9,7.9,14.9,17.5l0,0c0,9.6-6.6,17.5-14.9,17.5H58.8
			c-8.2,0-14.9-7.9-14.9-17.5l0,0C43.9,107.2,50.6,99.3,58.8,99.3z"/>
		<text id="text163" transform="matrix(0.99 0 0 1 51.328 121.9489)" class="st6 st7 st48">8-pin EPS (4+4)</text>
	</g>
	<g>
		<rect id="rect163" x="120" y="164.6" class="st49" width="17.8" height="8"/>
		<line id="line163" class="st50" x1="123.9" y1="154.6" x2="123.9" y2="164.6"/>
		<line id="line164" class="st51" x1="128.9" y1="154.6" x2="128.9" y2="164.6"/>
		<line id="line165" class="st50" x1="133.8" y1="154.6" x2="133.8" y2="164.6"/>
		<path id="path165" class="st52" d="M73.4,172.6H119c2.8,0,5,2.2,5,5v44c0,2.8-2.2,5-5,5H73.4c-2.8,0-5-2.2-5-5v-44
			C68.4,174.8,70.6,172.6,73.4,172.6z"/>
		<path id="path166" class="st53" d="M78.8,181.6h14.9c0.8,0,1.5,0.7,1.5,1.5v13c0,0.8-0.7,1.5-1.5,1.5H78.8c-0.8,0-1.5-0.7-1.4-1.5
			v-13C77.4,182.3,78,181.6,78.8,181.6z"/>
		<path id="path167" class="st53" d="M102.6,181.6h14.8c0.8,0,1.5,0.7,1.5,1.5v13c0,0.8-0.7,1.5-1.5,1.5h-14.8
			c-0.8,0-1.5-0.7-1.5-1.5c0,0,0,0,0,0v-13C101.1,182.3,101.8,181.6,102.6,181.6z"/>
		<path id="path168" class="st53" d="M78.8,203.6h14.9c0.8,0,1.5,0.7,1.5,1.5v13c0,0.8-0.7,1.5-1.5,1.5H78.8c-0.8,0-1.5-0.7-1.4-1.5
			v-13C77.4,204.3,78,203.6,78.8,203.6z"/>
		<path id="path169" class="st53" d="M102.6,203.6h14.8c0.8,0,1.5,0.7,1.5,1.5v13c0,0.8-0.7,1.5-1.5,1.5h-14.8
			c-0.8,0-1.5-0.7-1.5-1.5c0,0,0,0,0,0v-13C101.1,204.3,101.8,203.6,102.6,203.6z"/>
		<path id="path170" class="st52" d="M138.8,172.6h45.6c2.8,0,5,2.2,5,5v44c0,2.8-2.2,5-5,5h-45.6c-2.8,0-5-2.2-5-5v-44
			C133.8,174.8,136,172.6,138.8,172.6z"/>
		<path id="path171" class="st53" d="M144.2,181.6h14.9c0.8,0,1.5,0.7,1.5,1.5v13c0,0.8-0.7,1.5-1.5,1.5h-14.9
			c-0.8,0-1.5-0.7-1.5-1.5c0,0,0,0,0,0l0,0v-13C142.7,182.3,143.4,181.6,144.2,181.6C144.2,181.6,144.2,181.6,144.2,181.6z"/>
		<path id="path172" class="st53" d="M168,181.6h14.9c0.8,0,1.5,0.7,1.5,1.5v13c0,0.8-0.7,1.5-1.5,1.5H168c-0.8,0-1.5-0.7-1.5-1.5
			c0,0,0,0,0,0v-13C166.5,182.3,167.2,181.6,168,181.6z"/>
		<path id="path173" class="st53" d="M144.2,203.6h14.9c0.8,0,1.5,0.7,1.5,1.5v13c0,0.8-0.7,1.5-1.5,1.5h-14.9
			c-0.8,0-1.5-0.7-1.5-1.5c0,0,0,0,0,0l0,0v-13C142.7,204.3,143.4,203.6,144.2,203.6C144.2,203.6,144.2,203.6,144.2,203.6z"/>
		<path id="path174" class="st53" d="M168,203.6h14.9c0.8,0,1.5,0.7,1.5,1.5v13c0,0.8-0.7,1.5-1.5,1.5H168c-0.8,0-1.5-0.7-1.5-1.5
			c0,0,0,0,0,0v-13C166.5,204.3,167.2,203.6,168,203.6z"/>
	</g>
	<g id="g174">
		<text id="text174" transform="matrix(0.99 0 0 1 71.1483 252.6649)" class="st47 st7 st54">4 + 4 split · 12V</text>
	</g>
	<g>
		<g>
			<line id="line174" class="st16" x1="128.9" y1="263.4" x2="128.9" y2="298.3"/>
			<path id="path175" class="st17" d="M128.9,301l-6.6-10.7h13.3L128.9,301z"/>
		</g>
		<g>
			<path id="path176" class="st46" d="M91.6,306.5h74.5c4.5,0,8.1,3.6,8.1,8.1V379c0,4.5-3.6,8.1-8.1,8.1H91.6c-4.4,0-8-3.6-8-8.1
				v-64.4C83.6,310.1,87.2,306.5,91.6,306.5z"/>
			<g>
				<path id="path177" class="st47" d="M108.9,319.3h39.9c2.2,0,4,1.8,4,4v34.9c0,2.2-1.8,4-4,4h-39.9c-2.2,0-4-1.8-4-4v-34.9
					C104.9,321.1,106.7,319.3,108.9,319.3C108.9,319.3,108.9,319.3,108.9,319.3z"/>
				<line id="line177" class="st55" x1="115.6" y1="319.3" x2="115.6" y2="362.3"/>
				<line id="line178" class="st55" x1="128.9" y1="319.3" x2="128.9" y2="362.3"/>
				<line id="line179" class="st55" x1="142.2" y1="319.3" x2="142.2" y2="362.3"/>
			</g>
			<text id="text179" transform="matrix(0.99 0 0 1 95.6771 381.5555)" class="st49 st1 st34">CPU (VRM)</text>
		</g>
		<text id="text180" transform="matrix(0.99 0 0 1 71.6142 426.785)" class="st56 st7 st57">CPU POWER</text>
	</g>
	<g>
		<g>
			<rect x="26" y="463.3" class="st20" width="206" height="103.4"/>
			<text id="text181" transform="matrix(0.99 0 0 1 35.018 479.4354)" class="st21"><tspan x="0" y="0" class="st24 st25 st57">Dedicated 12V power to the </tspan><tspan x="39.8" y="22.5" class="st24 st25 st57">processor VRM.</tspan><tspan x="6.9" y="45" class="st24 st25 st57">High-end boards may use </tspan><tspan x="14.5" y="67.5" class="st24 st25 st57">dual 8-pin (8+8 or 8+4).</tspan></text>
		</g>
	</g>
</g>
<g>
	<path id="rect154" class="st58" d="M1043.8,309c98.6,5.3,82.2-26.7,83.2,72.5c0,4.5-3.6,8.1-8.1,8.1c-98.6-5.3-82.2,26.7-83.2-72.5
		C1035.7,312.7,1039.3,309,1043.8,309z"/>
	<path id="rect155" class="st37" d="M1054.5,325.2h53.7c1.5,0,2.7,1.2,2.7,2.7V352c2.7,5.8-55.1,1.4-56.4,2.7
		c-1.5,0-2.7-1.2-2.7-2.7v-24.2C1051.8,326.4,1053,325.2,1054.5,325.2z"/>
	<path id="circle155" class="st59" d="M1081.4,331.9c10.5-0.2,10.5,16.3,0,16.1C1070.9,348.1,1070.9,331.7,1081.4,331.9z"/>
	<text id="text155" transform="matrix(1 0 0 1 1043.9684 378.865)" class="st39 st1 st60">Legacy / fans</text>
</g>
<g>
	<path id="path18_1_" class="st61" d="M748.6,83.4h189.4c5.6,0,10.2,7.4,10.2,16.6v536.6c0,9.2-4.6,16.6-10.2,16.6H748.6
		c-5.6,0-10.2-7.4-10.2-16.6V99.9C738.4,90.8,743,83.4,748.6,83.4z"/>
	<path id="path19_1_" class="st62" d="M741.3,90.6h203.9c0.3,0,0.7-0.1,1-0.3c-1.8-4.2-4.9-7-8.3-7H748.6c-3.4,0-6.4,2.8-8.3,7
		C740.6,90.5,741,90.6,741.3,90.6z"/>
	<path id="path85" d="M829.7,623.9c-0.4-0.6-0.7-1.4-0.8-2.2c-0.5-1.7-1-3.5-1.7-5.2c-0.2-0.5-0.4-1.1-1.1-1s-3.1-0.4-4.3-0.4
		c-3.2-0.1-2.7-0.4-2.8-2.8c0-0.9-0.1-1.7-0.3-2.5c0-0.4-0.3-0.8-0.8-0.8c0,0,0,0,0,0h-3.7c-1.9,0-2.6-0.8-2.5-2.7
		c0.1-1.4,0.4-2.8,1-4.1c0.4-1.4,0.7-2.7,0.9-4.2c0-0.3,0-0.5-0.2-0.7c-0.2-0.3-0.2-0.8,0-1.1c0.3-0.6,0.3-1.4-0.1-2
		c-0.1-0.3-0.3-0.5-0.3-0.8c-0.1-1.2-0.4-2.4-1-3.4c-0.5-1.2-0.6-2.5-0.3-3.8c0.1-0.7,0.4-1.2,1.1-1.3s0.7-0.4,0.7-0.8
		c0.2-2.4,0.2-4.8,0.2-7.2v-1.9c0-0.6,0.2-0.8,0.8-0.8c1.1,0,2.3,0,3.4,0c0.7,0,0.9,0.3,0.9,0.9c0,1.8,0.1,3.6,0.1,5.5v1
		c0,0.6,0.4,1,1,1h0.3c1.7,0.1,1.8,0.1,1.8-1.7s0-3.6,0-5.5c0-1.2-0.2-1.2,1.2-1.2h41.6c0.5-0.1,0.8,0.2,0.8,0.7c0,1.5,0,3,0.1,4.5
		v2.1c0,0.7,0.2,1,1,1h0.4c1.4,0,1.7-0.2,1.7-1.7c0-1.9,0-3.8,0.2-5.8c0.1-0.9,0.1-0.9,1-0.9h1.9c0.6,0,0.8,0.2,0.8,0.8
		c0,2.1,0.1,4.1,0,6.2c0,1,0,1.9-0.1,2.9c0,0.5,0.1,0.7,0.6,0.8c1.3,0.1,1.5,0.4,1.5,1.7c0.1,1.5-0.3,3.1-1,4.4
		c0,0.1-0.1,0.2-0.1,0.3c-0.2,1.7-1.2,3.2-0.8,4.9c0.1,0.5,0,0.9-0.1,1.4c-0.3,0.6-0.2,1.3,0.3,1.8c0.3,0.4,0.4,0.8,0.3,1.2
		c-0.1,0.6,0.1,1.1,0.4,1.6c0.7,1.2,1.1,2.6,1.1,4.1c0.2,1.2-0.5,2.3-1.7,2.5c0,0,0,0,0,0c-0.2,0-0.3,0-0.5,0
		c-1.3,0.1-2.7,0.2-4.1,0.2c-1,0-1,0-1,1c-0.1,1.2-0.2,2.3-0.2,3.5s-0.1,1.1-1.2,1.3c-0.7,0.1-1.4,0.1-2.1,0.2
		c-0.4-0.1-0.8,0.2-0.8,0.6c0,0,0,0,0,0l0,0c-1.2,5.4-3.4,10.5-4.9,15.8c-1.6,5.7-2.3,11.7-2.3,17.6c0,1.1,0,1.1-1.1,1.1
		s-2.1,0-3.2-0.1c-0.6,0-0.8-0.4-0.8-1c0-1.3,0.2-2.5,0.2-3.7c0.1-3.9,0.5-7.7,1.2-11.6c0.1-0.4,0.3-1,0-1s-0.3,0.6-0.4,0.9
		c-0.7,3.2-1.2,6.5-1.4,9.8c-0.1,1.6-0.2,3.1-0.2,4.7c-0.1,0.5-0.1,1-0.2,1.4c0,0.2-0.2,0.4-0.4,0.4l0,0c-0.3,0-0.4-0.2-0.4-0.4
		s0.1-1-0.2-1c-0.5,0.1-0.2,0.6-0.3,1c-0.2,0.6-0.6,0.5-1,0.5h-11.6c-0.9,0-1-0.1-1.1-1c-0.3-3.6-0.9-7.1-1.7-10.6
		c-0.5-2.3-1-4.7-1.6-7c-0.4-1.5-1-3-1.4-4.5C830,626.1,829.8,625,829.7,623.9c1.9,5.2,3.3,10.5,4.3,15.8c0.4,2.3,0.9,4.6,1.3,6.9
		c0,0.2,0,0.4,0.2,0.5c0-0.2,0.1-0.3,0.1-0.5c0-0.2,0-0.5,0-0.8c-0.2-3.1-0.6-6.2-1.2-9.3c-0.8-4.9-1.9-9.8-2.7-14.7
		c-0.3-1.9-0.6-3.9-1-5.8c-0.1-0.6-0.4-0.9-1.1-0.8h-0.5c-1.3,0-1.3,0-1.1,1.3C828.4,619,829,621.4,829.7,623.9L829.7,623.9z
		 M855.7,575.5c-0.1,2-0.2,4-0.1,6c0,0.1,0,0.4,0.1,0.4s0.2-0.2,0.2-0.4V576C855.9,575.8,855.8,575.6,855.7,575.5
		c-1.1-0.2-1.3-0.2-1.3,0.6v5.2c0,0.2-0.1,0.4,0.2,0.4s0.2-0.3,0.2-0.5v-4.7C854.7,575.7,854.7,575.7,855.7,575.5z M836.6,575.5
		c-0.1,2,0,4,0,6c0,0.1,0,0.4,0.1,0.4s0.2-0.3,0.2-0.4v-5.5C836.9,575.8,836.9,575.6,836.6,575.5c-0.9-0.3-1.2-0.2-1.2,0.8v4.9
		c0,0.2-0.2,0.6,0.2,0.6s0.2-0.4,0.2-0.6v-4.6C835.7,575.9,835.9,575.5,836.6,575.5L836.6,575.5z M862.1,576.4
		c0.6,0,0.5-0.2,0.1-0.5c-0.1-0.1-0.2-0.2,0-0.3c0.1-0.1,0.3-0.1,0.4,0l0,0.1c0.1,0.2,0.1,0.5,0.1,0.7c0,1.5,0.1,3,0.1,4.5
		c0,0.1,0,0.3,0.2,0.3s0.2-0.2,0.2-0.3v-5.1c0-0.3,0-0.5-0.3-0.6c-0.5-0.2-1,0.1-1.2,0.5c0,0,0,0,0,0c0,0.1-0.1,0.2-0.1,0.3
		c0,1.6,0.1,3.3,0.1,4.9c0,0.1,0,0.3,0.2,0.3c0.1-0.1,0.1-0.2,0.1-0.3C861.8,579.5,862.2,578,862.1,576.4L862.1,576.4z M848.1,639.8
		c0.2-0.1,0.2-0.3,0.3-0.5c0.4-3.1,1-6.2,1.7-9.2c0.8-3.3,1.7-6.6,2.5-10c0.3-1.3,0.6-2.7,0.7-4.1c0-0.3,0.1-0.7-0.4-0.8
		c-1.4-0.3-1.9,0-2.1,1.5v0.4c-0.3,3.5-0.7,6.9-1.2,10.4C848.8,631.6,848.3,635.7,848.1,639.8c-0.1,0.7-0.1,1.4,0,2l0,0
		C848.2,641.2,848.2,640.5,848.1,639.8L848.1,639.8z M839.7,638L839.7,638c-0.1-2.4-0.2-4.8-0.3-7.3c-0.3-4.6-0.4-9.2-1.1-13.8
		c-0.3-2.2,0-1.8-2-1.8s-1.8-0.4-1.5,1.8c0.7,4.2,1.6,8.4,2.4,12.6c1.1,5.7,2.4,11.4,2.7,17.3c0,0.1,0,0.3,0.1,0.4
		c0.2-0.1,0.1-0.3,0.1-0.4L839.7,638L839.7,638z M844.4,615.2h-1c-1.5,0-1.5,0-1.3,1.5c0,0.1,0,0.1,0,0.2c0.3,2.4,0.5,4.8,0.7,7.2
		c0.4,4.9,0.8,9.9,1.1,14.8c0,0.1,0,0.3,0,0.4c0-0.2,0.1-0.3,0.1-0.5c0.2-3.9,0.8-7.7,1.3-11.6c0.4-3.5,1.1-7,1.3-10.6
		c0.1-1.5,0.1-1.5-1.4-1.5H844.4z M858.4,615.2c-1.1,0-1.3,0.2-1.5,1.2c-0.3,1.7-0.5,3.4-0.9,5.2c-0.5,2.8-1.1,5.5-1.7,8.3
		c-0.1,0.2-0.1,0.4,0,0.6c0.2-0.1,0.2-0.4,0.3-0.6c0.8-3.1,2-6.1,3.1-9.1c0.5-1.6,0.9-3.2,1.2-4.9C859,615.4,859,615.1,858.4,615.2
		L858.4,615.2z M849.2,642v0.1c0,0.1,0,0.3,0.1,0.4s0.2-0.2,0.2-0.3c0.1-0.4,0.2-0.8,0.2-1.3c0.7-4.2,1.4-8.4,2.3-12.6
		c0.8-3.4,1.6-6.7,2.1-10.1c0.1-0.7,0.1-1.3,0.2-2c0-0.1,0-0.3-0.2-0.3s-0.2,0.2-0.3,0.3c-0.1,0.5-0.3,1-0.4,1.6
		c-0.7,4.5-1.7,8.9-2.8,13.4C850.1,634.6,849.5,638.3,849.2,642L849.2,642z M855.8,617.4c0-0.3,0.1-0.8-0.1-0.8s-0.2,0.4-0.3,0.7
		v0.1c-0.5,3.1-1.1,6.1-1.9,9.1c-0.2,0.7-0.3,1.4-0.5,2.1c0,0.1-0.1,0.3,0.1,0.4s0.2-0.2,0.2-0.3c0.5-2,1-4.1,1.5-6.1
		C855.3,620.9,855.6,619.2,855.8,617.4L855.8,617.4z M844.8,579L844.8,579l0.1,2.6c0,0.1,0,0.3,0.2,0.3s0.1-0.2,0.1-0.3v-5.2
		c0-0.2,0.1-0.3,0.3-0.3c0,0,0,0,0,0l0,0c0.2,0,0.3,0.1,0.4,0.3v0.7c0,1.4,0,2.8,0.1,4.3c0,0.1-0.1,0.4,0.2,0.4s0.1-0.2,0.1-0.3
		v-4.8c0-0.6-0.2-0.9-0.8-0.8s-0.8,0.3-0.7,0.8C844.7,577.4,844.7,578.2,844.8,579L844.8,579z M840.1,578.8L840.1,578.8v2.6
		c0,0.2-0.2,0.5,0.2,0.5s0.1-0.3,0.1-0.5v-4.7c0-0.4-0.2-1,0.4-1s0.4,0.6,0.4,0.9c0,1.6,0,3.1,0.1,4.7c0,0.2-0.1,0.5,0.2,0.5
		s0.1-0.3,0.1-0.5c0-1.7-0.1-3.4-0.1-5.1c0-0.6-0.2-0.8-0.8-0.8s-0.7,0.4-0.7,0.8L840.1,578.8z M851.2,579.1L851.2,579.1l-0.1-2.6
		c0-0.9-0.1-1-0.8-1s-0.7,0.5-0.7,1v5.1c0,0.1,0,0.3,0.2,0.3s0.2-0.2,0.2-0.3s0-0.4,0-0.6v-4.6c0-0.3,0-0.7,0.5-0.7s0.4,0.4,0.4,0.7
		v5.7c0,0.1,0,0.2,0.2,0.3s0.2-0.2,0.2-0.3C851.2,581,851.2,580,851.2,579.1L851.2,579.1z M843.9,579v-2.8c0-0.4,0-0.8-0.6-0.8
		s-0.9,0.2-0.9,0.8v5.3c0,0.1,0,0.3,0.2,0.3s0.2-0.2,0.2-0.3v-4.7c0-0.3,0-0.6,0-0.8c0-0.2,0.2-0.3,0.4-0.3c0.2,0,0.3,0.1,0.4,0.3
		v0.8c0,1.6,0,3.3,0.1,4.9c0,0.1,0.1,0.3,0.1,0.4c0.1-0.1,0.1-0.3,0.1-0.4C843.9,580.7,843.9,579.8,843.9,579L843.9,579z
		 M860.8,579.7L860.8,579.7v-2.1c0-0.5-0.1-0.9-0.8-0.9s-0.9,0.2-0.9,0.8c0,1.5,0,2.9,0.1,4.4c0,0.1,0,0.3,0.2,0.3s0.1-0.2,0.1-0.4
		v-4c0-0.3,0-0.6,0.4-0.6s0.3,0.4,0.3,0.6c0,1.3,0.1,2.5,0.1,3.8c0,0.3-0.1,0.8,0.2,0.7s0.2-0.4,0.2-0.7
		C860.7,580.9,860.7,580.3,860.8,579.7L860.8,579.7z M856.8,579.6L856.8,579.6v1.5c0,0.3-0.2,0.9,0.2,0.9s0.2-0.6,0.2-0.9v-3.2
		c0-0.3,0.1-0.5,0.4-0.5s0.4,0.3,0.4,0.5s0,0.5,0,0.7v3.1c0,0.1,0,0.3,0.1,0.3s0.2-0.2,0.2-0.3v-4c0-0.5-0.2-0.7-0.7-0.7
		s-0.8,0.1-0.8,0.7S856.7,578.9,856.8,579.6L856.8,579.6z M825.1,579.4L825.1,579.4v-1.9c0-0.6-0.2-0.8-0.7-0.8s-0.8,0.2-0.8,0.8
		v3.8c0,0.1,0,0.3,0.2,0.3s0.2-0.2,0.2-0.3c0-1.1,0-2.1,0.1-3.2c0-0.3-0.2-0.8,0.3-0.9s0.4,0.5,0.4,0.8c0,1.1,0,2.2,0.1,3.3
		c0,0.1,0,0.4,0.1,0.4s0.2-0.3,0.2-0.4C825,580.7,825.1,580.1,825.1,579.4L825.1,579.4z M825.9,579.5L825.9,579.5v2.2
		c0,0.1,0.1,0.2,0.1,0.3c0.1-0.1,0.1-0.2,0.1-0.3v-1c0-1.1,0.1-2.1,0.1-3.2c0-0.2,0.1-0.4,0.4-0.4s0.3,0.2,0.3,0.4s0,0.4,0,0.6
		c0,1.1,0.1,2.3,0.1,3.4c0,0.1,0,0.3,0.1,0.3c0-0.1,0.1-0.2,0.1-0.3v-4.3c0-0.6-0.4-0.7-0.9-0.7s-0.7,0.3-0.7,0.7
		C825.9,578.1,825.9,578.8,825.9,579.5L825.9,579.5z M848.8,579.4L848.8,579.4V577c0-0.8-0.3-0.8-0.9-0.8s-0.8,0.2-0.8,0.7
		c0,1.5,0.1,3.1,0.1,4.6c0,0.1,0,0.4,0.1,0.4s0.1-0.2,0.1-0.3v-3.7c0-0.3,0-0.7,0.1-1c0-0.2,0.2-0.4,0.5-0.3c0.2,0,0.3,0.2,0.3,0.3
		c0,0.5,0.1,0.9,0.1,1.4v3.4c0,0.1,0,0.3,0.1,0.4s0.2-0.2,0.2-0.3C848.8,580.9,848.7,580.2,848.8,579.4L848.8,579.4z M834.5,578.9
		L834.5,578.9v-2.8c0-0.5-0.2-0.7-0.7-0.7s-0.8,0.1-0.8,0.7v5.3c0,0.1,0.1,0.3,0.1,0.4c0.2-0.1,0.2-0.3,0.2-0.4V576
		c0-0.2,0.2-0.4,0.4-0.4c0,0,0,0,0,0l0,0c0.2,0,0.4,0.1,0.4,0.3c0,0,0,0,0,0.1c0,0.3,0,0.7,0,1.1v4.5c0,0.1,0,0.3,0.2,0.3
		c0-0.1,0.1-0.2,0.1-0.3C834.4,580.7,834.4,579.8,834.5,578.9L834.5,578.9z M832.1,578.8L832.1,578.8l-0.1-3c0-0.1-0.1-0.3-0.2-0.3
		s-0.1,0.2-0.1,0.3v3c0,1,0,1.8,0.1,2.8c0,0.1,0,0.3,0.2,0.3s0.1-0.2,0.1-0.3C832,580.7,832,579.7,832.1,578.8L832.1,578.8z
		 M829.7,578.9v-3.1c0-0.2-0.1-0.4-0.3-0.4s-0.1,0.2-0.1,0.4v5.8c0,0.1,0,0.3,0.2,0.3s0.2-0.2,0.2-0.3L829.7,578.9z M839.3,578.8
		L839.3,578.8l-0.1-2.7c0-0.3,0.1-0.7-0.2-0.7s-0.1,0.5-0.1,0.7c0,1.8,0,3.6,0.1,5.4c0,0.1-0.1,0.3,0.2,0.3c0.1,0,0.1-0.2,0.1-0.3
		C839.3,580.6,839.3,579.7,839.3,578.8L839.3,578.8z M852.2,578.7h-0.1v2.7c0,0.2,0,0.4,0.2,0.4s0.1-0.3,0.1-0.5v-5.7
		c0-0.1,0.1-0.2-0.1-0.2c-0.1,0-0.1,0.1-0.2,0.2C852.2,576.8,852.2,577.8,852.2,578.7L852.2,578.7z M830.8,578.7L830.8,578.7
		l0.1-2.9c0-0.1,0.1-0.3-0.1-0.3s-0.2,0.2-0.2,0.3v5.7c0,0.1,0,0.3,0.1,0.3s0.1-0.2,0.1-0.4L830.8,578.7z M837.8,578.7L837.8,578.7
		v2.7c0,0.1,0,0.3,0.1,0.4c0.2-0.1,0.1-0.3,0.1-0.4s0-0.6,0-0.8v-4.7c0-0.1,0.3-0.3,0-0.4c-0.2,0-0.2,0.2-0.2,0.3L837.8,578.7z
		 M828.5,578.8L828.5,578.8l0.1-2.9c0-0.1,0.1-0.3-0.1-0.3s-0.2,0.2-0.2,0.3v5.7c0,0.1,0.1,0.3,0.1,0.3c0.2,0,0.1-0.2,0.1-0.3
		C828.5,580.7,828.5,579.8,828.5,578.8L828.5,578.8z M853.2,578.6L853.2,578.6v2.9c0,0.1,0,0.4,0.1,0.4s0.2-0.3,0.2-0.4v-5.5
		c0-0.1,0-0.3-0.2-0.3s-0.1,0.2-0.1,0.4C853.3,576.8,853.3,577.7,853.2,578.6L853.2,578.6z M860,579.2L860,579.2l-0.1,0v0.1
		L860,579.2z M859.8,578.3L859.8,578.3c0,0.1,0.1,0.1,0.1,0.1S860,578.3,859.8,578.3C859.8,578.3,859.9,578.3,859.8,578.3
		L859.8,578.3z"/>
	<path id="path20_1_" class="st62" d="M945.2,644.1H741.3c-0.7,0-1.4,0.4-1.8,0.9c0.7,2.8,2.3,5.3,4.4,7.3h198.8
		c2.1-2,3.6-4.5,4.4-7.3C946.6,644.5,946,644.1,945.2,644.1z"/>
</g>
<g>
	<path id="path43" class="st62" d="M782.3,99.3h122c7.7,0,14,7.8,14,17.5l0,0c0,9.7-6.3,17.5-14,17.5h-122c-7.7,0-14-7.8-14-17.5
		l0,0C768.3,107.2,774.5,99.3,782.3,99.3z"/>
	<text id="text43" transform="matrix(1 0 0 1 781.1135 121.9221)" class="st6 st7 st8">Sata Power</text>
</g>
<g>
	<path id="path49" class="st63" d="M760.3,190.6h166v36h-150v-12h-16V190.6z"/>
	<rect id="rect49" x="834.3" y="180.6" class="st64" width="18" height="8"/>
	<line id="line49" class="st65" x1="838.3" y1="170.6" x2="838.3" y2="180.6"/>
	<line id="line50" class="st66" x1="843.3" y1="170.6" x2="843.3" y2="180.6"/>
	<line id="line51" class="st65" x1="848.3" y1="170.6" x2="848.3" y2="180.6"/>
	<rect id="rect51" x="784.3" y="196.6" class="st67" width="4" height="24"/>
	<rect id="rect52" x="793.3" y="196.6" class="st67" width="4" height="24"/>
	<rect id="rect53" x="802.3" y="196.6" class="st67" width="4" height="24"/>
	<rect id="rect54" x="811.3" y="196.6" class="st67" width="4" height="24"/>
	<rect id="rect55" x="820.3" y="196.6" class="st67" width="4" height="24"/>
	<rect id="rect56" x="829.3" y="196.6" class="st67" width="4" height="24"/>
	<rect id="rect57" x="838.3" y="196.6" class="st67" width="4" height="24"/>
	<rect id="rect58" x="847.3" y="196.6" class="st67" width="4" height="24"/>
	<rect id="rect59" x="856.3" y="196.6" class="st67" width="4" height="24"/>
	<rect id="rect60" x="865.3" y="196.6" class="st67" width="4" height="24"/>
	<rect id="rect61" x="874.3" y="196.6" class="st67" width="4" height="24"/>
	<rect id="rect62" x="883.3" y="196.6" class="st67" width="4" height="24"/>
	<rect id="rect63" x="892.3" y="196.6" class="st67" width="4" height="24"/>
	<rect id="rect64" x="901.3" y="196.6" class="st67" width="4" height="24"/>
	<rect id="rect65" x="910.3" y="196.6" class="st67" width="4" height="24"/>
</g>
<g id="g71">
	<text id="text65" transform="matrix(1 0 0 1 768.3063 251.7595)" class="st68 st7 st15">15-pin</text>
	<text id="text66" transform="matrix(1 0 0 1 819.8663 251.7595)" class="st68 st7 st15">f</text>
	<text id="text67" transform="matrix(1 0 0 1 825.1964 251.7595)" class="st68 st7 st15">lat · L-</text>
	<text id="text68" transform="matrix(1 0 0 1 873.3464 251.7595)" class="st68 st7 st15">k</text>
	<text id="text69" transform="matrix(1 0 0 1 881.9263 251.7595)" class="st68 st7 st15">e</text>
	<text id="text70" transform="matrix(1 0 0 1 890.9863 251.7595)" class="st68 st7 st15">y</text>
	<text id="text71" transform="matrix(1 0 0 1 899.5663 251.7595)" class="st68 st7 st15">ed</text>
</g>
<g>
	<g id="g79">
		<rect x="745.8" y="463" class="st20" width="190" height="104.7"/>
		<text id="text77" transform="matrix(1 0 0 1 749.2089 479.2555)" class="st21"><tspan x="0" y="0" class="st24 st25 st69">15-pin connector for SATA </tspan><tspan x="14.7" y="22.7" class="st24 st25 st69">HDDs, SSDs &amp; optical </tspan><tspan x="4.7" y="45.5" class="st24 st25 st69">drives. Supplies 3.3V, 5V </tspan><tspan x="60.5" y="68.2" class="st24 st25 st69">and 12V.</tspan></text>
	</g>
</g>
<g id="g76">
	<rect x="740.3" y="410.5" class="st20" width="205.9" height="50.1"/>
	<text id="text76" transform="matrix(1 0 0 1 765.9894 426.5059)" class="st21"><tspan x="0" y="0" class="st70 st7 st23">STORAGE DRIVE </tspan><tspan x="42" y="22.4" class="st70 st7 st23">POWER</tspan></text>
</g>
<g>
	<path id="rect71" class="st61" d="M805.9,308.8H881c4.5,0,8.1,3.6,8.1,8.1v64.4c0,4.5-3.6,8.1-8.1,8.1h-75.2
		c-4.5,0-8.1-3.6-8.1-8.1v-64.4C797.8,312.4,801.4,308.8,805.9,308.8z"/>
	<path id="path72" class="st62" d="M815.3,320.9h56.4c2.1-0.1,3.8,1.4,4,3.5v34.8c-0.2,2-1.9,3.6-4,3.5h-56.4
		c-2.1,0.1-3.8-1.4-4-3.5v-34.8C811.4,322.3,813.2,320.7,815.3,320.9z"/>
	<circle id="circle72" class="st71" cx="843.5" cy="349" r="12.1"/>
	<circle id="circle73" class="st62" cx="843.5" cy="349" r="4"/>
	<text id="text73" transform="matrix(1 0 0 1 810.9555 382.6158)" class="st64 st1 st34">SSD / HDD</text>
</g>
<g>
	<line id="line71" class="st16" x1="843.5" y1="263.4" x2="843.5" y2="298.3"/>
	<path id="path71" class="st17" d="M843.5,301l-6.7-10.7h13.4L843.5,301z"/>
</g>
<g>
	<line id="line71_1_" class="st16" x1="1081.4" y1="263.4" x2="1081.4" y2="298.3"/>
	<path id="path71_1_" class="st17" d="M1081.4,301l-6.7-10.7h13.4L1081.4,301z"/>
</g>
</svg>
