<?xml version="1.0" encoding="utf-8"?>
<!-- Generator: Adobe Illustrator 27.9.1, SVG Export Plug-In . SVG Version: 6.00 Build 0)  -->
<svg version="1.1" id="Layer_1" xmlns="http://www.w3.org/2000/svg" xmlns:xlink="http://www.w3.org/1999/xlink" x="0px" y="0px"
	 viewBox="0 0 1080 1080" enable-background="new 0 0 1080 1080" xml:space="preserve">
<g>
	<path fill="#9A939A" d="M339.8,599.6c-29.5-11-50.8-36.7-68.7-60.5C195.7,536-6.4,533.6,6.3,522.8c58.8-1.8,267.5-3.8,269.8-15.5
		c35.5-55.4,104-79.5,165.2-94.2c25.3-6.8,51.2-7.1,76.9-10.9c9.2-1.9,20.4,2.3,28.8-2.6c83.8,4.9,171.6,13.6,251.9,44.5
		c40,13.4,79.4,28.6,118.6,44.1c16.9,5,37.7,16.2,53.7,3.7c9.8-9.1,7.5-25.2,15.3-36c8.8-16.5,20-30.9,34.7-42.7
		c15.3-12.4,54.9-33.7,68.9-14.3c-54.2,42.6-71.8,123.7-47.3,187.2c10.5,24.6,23.8,50,46.3,65.6c1.7,1.1,1.5,3.6-0.2,4.5
		c-43.2,15-85.1-26.8-103.4-62.5c-7.3-10.6-4.5-27-15.2-34.8c-25.7-15.8-53.1,12.3-78.1,11.5c-29.3-7.6-60.9-3.1-90.6,0.1
		c-65.1,9.8-130.8,14.3-197.2,12.8c-61-3.4-119.7-8.9-180.1-17.3c5.8-34.6,8.6-79.5-14.9-107.2c12.6,33.4,18,72.8,6.5,107.9
		C391.5,568,348.2,572.3,339.8,599.6z M594.2,484.7c1.4,51,15.6-22.3-1.8-31.9C586.6,452.4,596.8,478.1,594.2,484.7z M654.8,484.1
		c-0.1,0-0.2,0-0.3,0c1.4-6.8-2.6-36.5-12.2-31.9c4.3,15.3,7.4,30.9,7,47.1C653.5,511.2,655.3,487.4,654.8,484.1z M745.2,485.8
		c0.1-8.1-1.3-18.4-7.8-24.4c-2.2-2.5-5.7-0.6-4.5,3C738.1,473.6,741.1,531.2,745.2,485.8z M708.5,484.3c-0.1,0-0.1,0-0.2,0
		c0.2-9.7,0.4-21.6-8.1-28c-3.1-1.2-3.1,2.9-2.4,4.9c5.6,12.9,3.8,27.2,5.9,40.7C709.7,504.7,707.9,488,708.5,484.3z M352.3,553.4
		c13.7,2.9,29.1-23.2,9.3-8.9c-12.8,7.9-18.5-0.8-28.4-1.6C333.6,550.9,345.7,553.2,352.3,553.4z M373.1,494.9
		c1.2-13.6-13.6-12.2-14-0.5C359,503.9,373.7,505.3,373.1,494.9z"/>
	<path fill="#BAB4BA" d="M339.8,599.6c8.5-27.3,51.7-31.5,76.4-33c-0.7,8.5-5.7,16-7,24.3c6.4,7.7,12-18.2,14.1-22.4
		c1-0.5,1.7-1.5,1.3-2.6c91.7,12.3,184.7,21.8,277.9,15.5c42.8-3.3,85.1-9.5,127.7-14.3c16.6-1.9,32.9-1.5,48.8,0.4
		c7.9,0,23.3,1.7,23.3,1.7c3.9,15.8-6.3,28.3-19,36.3c-36.2,22.6-75.2,49.5-119.3,50.1c-11.9-0.4-20.9-9.2-27.1-18.7
		c-2.2-2.7-3.8-8.4-7.9-8.2c-18.5,4.6-37.2,8.2-56,11.4c-52.4,7.7-105.3,12.8-158.2,8.5c-13.3-1.3,3,6.3-6.4,17.7
		c-1.3,2.5-1.8,5.2-1.8,8c2.1,16.7-4,25.3-21,17.6c-22.3-12.6-34.8-35.2-50.7-54.7C402.5,628.2,367.1,619.5,339.8,599.6z
		 M487.7,670.7c-23.2-37.8-36.3-33.7-3.2,0C485.4,671.2,487,671.9,487.7,670.7z M761.4,619.9c-2.7,1.9,15.4,29.5,14,19.2
		C770.6,633.3,768.1,623,761.4,619.9z M795,609.8c-3.7,3.2,5.2,12.1,6.8,16C813.7,640,798.7,610.7,795,609.8z M837.3,595.3
		c-2.9,0.6-0.2,4.5,0.6,6C853.8,632.2,847.1,603.7,837.3,595.3z M872.1,581.2c-1.9,4.1,2.1,8.5,4.5,11.7
		C883.4,596,874.8,581.2,872.1,581.2z"/>
	<path fill="#BAB4BA" d="M541.9,401.7c-13.8-0.9-27.2,1.9-40.8,1.9c13.1-18.5,33.8-30.7,51.2-43.7c-14.6,0.7-50.1,31.5-56.6,45.5
		c-13.4-1.2-26,3.4-39.3,3.7c19.6-26.9,49.3-47,79.1-61.7c17.8-7.7,71.2-32.7,72,2c-5.8,21.7-15.2,33.5-0.4,53.7
		c-19.3-3.9-42.1,2.4-60.1-3.6c6.7-9.7,15.7-17.2,23.6-25.8C564.3,371.3,544.6,395,541.9,401.7z"/>
	<path fill="#264663" d="M423.2,568.5c-3.9,7.2-4.1,22.6-13.3,23.9c-2.3-6,4-13.3,5-19.6c3-12.4,6.7-24.8,6.8-37.8
		c2.7-26.4-3.4-52.3-12.1-76.3c23.5,27.7,20.7,72.5,14.9,107.2c0,0,0.1,0.3,0.1,0.3C423.6,566.6,423.2,567.4,423.2,568.5z"/>
	<path fill="#264663" d="M594.2,484.7c2.6-6.7-7.6-32.3-1.8-31.9C609.8,462.4,595.6,535.7,594.2,484.7z"/>
	<path fill="#264663" d="M654.8,484.1c0.5,3.3-1.3,27.1-5.5,15.2c0.4-16.1-2.7-31.8-7-47.1c9.6-4.6,13.6,25.1,12.2,31.9
		C654.6,484.1,654.7,484.1,654.8,484.1z"/>
	<path fill="#264663" d="M745.2,485.8c-4.1,45.3-7.1-12.2-12.2-21.3c-1.2-3.6,2.3-5.6,4.5-3C743.9,467.4,745.3,477.8,745.2,485.8z"
		/>
	<path fill="#264663" d="M708.5,484.3c-0.6,6,0.9,12.7-2.6,17.9c-5.4,3.3-2.2-33.8-8.1-41c-0.7-2-0.7-6.1,2.4-4.9
		c8.5,6.4,8.3,18.3,8.1,28C708.4,484.3,708.4,484.3,708.5,484.3z"/>
	<path fill="#4A6189" d="M495.7,405.5c6.4-13.9,42-44.8,56.6-45.5c-17.4,13-38.1,25.2-51.2,43.7
		C499.3,404.3,497.5,404.9,495.7,405.5z"/>
	<path fill="#264663" d="M352.3,553.4c-6.6-0.2-18.7-2.5-19-10.6c9.8,0.8,15.6,9.5,28.4,1.6C381.5,530.1,366,556.2,352.3,553.4z"/>
	<path fill="#1E551D" d="M373.1,494.9c0.5,10.4-14.1,9.1-14-0.5C359.5,482.6,374.4,481.3,373.1,494.9z"/>
	<path fill="#615421" d="M541.9,401.7c-1.4-5.3,37.3-40.9,25.9-24.4C557.5,383.5,552.9,397.8,541.9,401.7z"/>
	<path fill="#4A6189" d="M487.7,670.7c-0.7,1.2-2.3,0.4-3.2,0C451.2,636.8,464.6,633.1,487.7,670.7z"/>
	<g>
		<path fill="#264663" d="M761.4,619.9c2.5-1,16,20.3,13.8,21.6C770.5,640.1,760.8,624.4,761.4,619.9z"/>
		<path fill="#264663" d="M795,609.8c3.7,0.9,18.7,30.2,6.8,16C800.1,621.9,791.3,613,795,609.8z"/>
		<path fill="#264663" d="M837.3,595.3c9.5,8.1,17.4,38,0.6,6C837.1,599.8,834.5,595.9,837.3,595.3z"/>
		<path fill="#264663" d="M872.1,581.2c2.7-0.1,11.3,14.8,4.5,11.7C874.2,589.7,870.2,585.3,872.1,581.2z"/>
	</g>
	<path fill="#9A939A" d="M423.2,568.5c0-1,0.4-1.9,1.4-2.3C424.8,567.3,424.2,568,423.2,568.5z"/>
</g>
</svg>
