<?xml version="1.0" encoding="utf-8"?>
<!-- Generator: Adobe Illustrator 27.9.1, SVG Export Plug-In . SVG Version: 6.00 Build 0)  -->
<svg version="1.1" id="Layer_1" xmlns="http://www.w3.org/2000/svg" xmlns:xlink="http://www.w3.org/1999/xlink" x="0px" y="0px"
	 viewBox="0 0 1080 1080" enable-background="new 0 0 1080 1080" xml:space="preserve">
<g>
	<path fill="#F4C549" d="M877.3,397.2c3-1.5,6-2.9,8.9-4.6c30.8-18.7,63.5-33.1,97.8-44c8.2-2.6,16.6-4.6,25-6
		c12.5-2.1,24.7-0.6,36.4,4.8c9.4,4.4,16.6,11.1,21.8,20.1c5.4,9.2,8.3,19.3,10.1,29.7c3.3,19,3,38.1,2.4,57.2
		c-2.6,14.7-2.7,29.5,0,44.2c0.6,19.6,0.9,39.2-2.6,58.6c-1.6,9-4.2,17.6-8.4,25.8c-8.9,17.3-23.7,25.7-42.3,28.1
		c-6.6,0.9-13.3,0.4-20-0.9c-16.5-3.1-32.3-8.6-47.9-14.5c-25.1-9.5-49.2-21.1-72.1-35c-2.8-1.7-5.9-3.1-8.9-4.6
		c-0.2-5.7-0.7-11.4-0.7-17.1c-0.1-41.5,0-83,0-124.5C876.8,408.6,877.1,402.9,877.3,397.2z"/>
	<path fill="#7ACFD3" d="M182.5,656.7c-12.2-5.6-23.4-12.9-34.2-20.8c-15.1-11-29-23.3-42.5-36.2C94,588.6,82,577.6,67.8,569.4
		c-7-4.1-14.2-7.8-21.4-11.6c-6.3-3.3-12.8-6.4-19.1-9.8c-3.3-1.8-6.6-4-9.4-6.5c-7.7-7-8.7-12.2-4.4-21.5c0.8-1.7,2-3.3,3.4-4.5
		c3-2.4,6.1-4.6,9.5-6.4c9.2-5.2,17.4-11.7,25.6-18.3c6.3-5.1,12.5-10.4,19-15.2c12.1-8.8,21.9-19.8,30.7-31.9
		c2-2.7,3.7-5.6,5.3-8.5c3.5-6.8,7-13.6,10-20.6c9.9-23.5,23.5-44.7,38.8-65c8.1-10.8,17.3-20.3,26.7-29.9c2.7-2.8,5.6-5.2,9.8-5.4
		c4.6,11.5,8.9,23.2,11.3,35.4c2.6,4.9,0.7,10.6,2.5,15.4c2.4,6.5,2.1,13.1,2.2,19.8c0.1,7.6,0,15.3,0,22.9
		c-6.9,3.9-9.2,10.1-9.1,17.6c0,3.1,1.7,5.2,3.8,7.2c-0.1,5.2-0.4,10.5-0.4,15.7c-0.1,17.2-0.1,34.3,0,51.5c0,9-0.9,18.1,2.5,26.8
		c0.2,0.4,0.2,0.9,0.2,1.4c0.1,4.8,0.3,9.5,2.3,14c0.7,1.7,0.8,3.8,0.7,5.6c-0.7,14.2,2.2,28.6-2.6,42.5c0.7,6.8-1.6,13.2-3.3,19.6
		c-3.9,14.7-8.9,29.1-17.9,41.7C183.2,652.8,183,654.9,182.5,656.7z M172,521.9c-0.3-1.7-0.5-3.6-1-5.5c-0.4-1.4-1-2.7-1.6-3.9
		c-1-2.1-3.9-3.7-5.9-3.4c-2,0.3-3.9,2.8-3.9,5.3c-0.1,3.3,0,6.7-0.3,10c-0.5,5.4-3,10-6.9,13.8c-3.7,3.5-8,5.2-13.1,4.3
		c-2.8-0.5-5.5-1.7-8.3-2.1c-1.1-0.2-2.9,0.6-3.6,1.6c-0.6,1-0.5,2.7-0.2,4c0.4,1.3,1.4,2.6,2.4,3.5c7.4,6.3,16.8,7.3,25.2,2.4
		C166.4,545.2,171.3,534.8,172,521.9z"/>
	<path fill="#7ACFD3" d="M279.8,709.8c-4-2.1-8.7-2.8-11.9-6.4c0.9-0.1,1.9-0.2,2.8-0.3c3.8-0.4,6.1-1.3,6.2-6.3
		c0.1-10-0.3-20,0.2-30c0.6-11.6-3-22.5-3.9-33.9c-2.9-5.6-1.8-12.1-4.1-18c-3.2-8.4-4.9-17.3-7-26.1c-2.2-9.2-5.5-18.2-5.6-27.8
		c0-0.9-0.2-1.9-0.6-2.8c-2.2-4.5-1.9-9.3-1.9-14c0-12.9,0-25.7,0-38.6c0-4.3,0.5-8.4,1.6-12.7c2.3-9.3,1.4-18.9,0.6-28.4
		c-2.8-5.9-2.2-12.1-2.2-18.3c0-9.1-0.1-18.1,0-27.2c0.1-9-0.6-18,2.4-26.9c1.2-3.5,0.3-7.7,1.3-11.3c4.3-15,7.2-30.5,12-45.4
		c2.5-7.6,4.9-15.4,4.4-23.7c-0.1-2.3,0.4-4.8,1.2-7c1.4-3.7,1.5-7.4,1.5-11.3c0-14.8-0.1-29.6-0.1-44.3c1.8-1.5,3.4-3.4,5.5-4.5
		c12.2-6.6,25-11.8,37.7-17.4c0.8-0.4,1.9-0.3,2.8-0.4c0.2,1.9,0,3.9,0.6,5.7c2.6,7.7,3.3,15.7,5,23.5c1.9,8.3,3.9,16.6,3.2,25.3
		c-0.1,1.4,0.2,2.9,0.7,4.2c2.3,5,1.9,10.2,2,15.4c0.1,8-0.7,16.1,2.3,24c0.8,2.1,0.5,4.7,0.5,7.1c0,12.4,0.1,24.7,0,37.1
		c0,2.8,0,5.9-1,8.4c-2.1,5.5-1.8,11.2-1.8,16.9c0,5.8-3.2,10.9-3,16.8c0.3,6.6,0.6,13.3-2.2,19.7c-0.7,1.6-0.5,3.7-0.5,5.6
		c0.1,10.9,0.2,21.9,0.3,32.8c-2.7,4.9-5.6,9.6-7.9,14.7c-2,4.5-1.4,9.1,1.7,13.2c2,2.6,4.2,5,6.3,7.4c0.1,6.2-0.8,12.5,0.6,18.4
		c1.3,5.6,1.9,11.2,2,16.9c0.1,3.3,0,6.8,1,9.8c2,5.6,1.8,11.2,1.8,16.9c0,5.8,3.1,10.9,3,16.8c-0.3,13.8-0.1,27.6-0.1,41.4
		c0,2.4,0.2,5-0.6,7c-2.5,5.9-2.1,12.1-2.2,18.3c-0.1,6.2,0.4,12.3-2.2,18.3c-0.7,1.7-0.6,3.7-0.6,5.6c-0.1,6.2,0.2,12.4-2.4,18.2
		c-0.6,1.2-0.4,2.8-0.4,4.2c0,3.8-0.9,7.4-1.9,11.1c-1.8,6.3-2.9,12.9-4.3,19.4c-3.1-1-6.3-1.7-9.3-2.9c-6-2.6-11.8-5.5-17.7-8.3
		C290.4,713.3,285.4,710.7,279.8,709.8z"/>
	<path fill="#F4C549" d="M408.8,198.5c0.9-1.8,2.6-2.6,4.4-3.3c11.6-4.6,23.6-7.8,35.6-10.8c24.1-5.9,48.4-11.1,72.9-15
		c15.1-2.4,30.2-4.5,45.4-6.1c22.8-2.4,45.6-4.7,68.5-5.6c5.7-0.2,11.4-1.4,17.1-1.6c26.3-1.1,52.6-1.8,78.9-0.1
		c24.3,1.6,48.5,4.5,72.2,10.7c8.8,2.3,17.3,5.3,25.5,9.4c15.4,7.7,27.4,19,35.8,34c8.1,14.4,12.8,29.8,14.3,46.2
		c0.3,3.3,0.7,6.7,0.9,10c0.4,5.2,1.2,10.5,0.8,15.7c-1,13.3-1.4,26.7-3.5,39.9c-1.6,9.9-2.7,19.9-4.2,29.8
		c-1.1,7.1-2.3,14.1-3.6,21.2c-0.2,1.3-1.3,2.5-2.1,3.7c-1.8-2.6-3.7-5.2-5.3-7.9c-1.7-2.7-3-5.7-5.7-7.6c-1-2.1-1.7-4.4-3-6.4
		c-16.6-25.3-36.6-47.5-59.4-67.3c-7.5-6.5-15-13.3-24-17.8c-0.6-0.7-1.1-1.6-1.8-2.1c-28.2-20.3-58.8-36.2-91.2-48.6
		c-2.2-0.8-4.6-1.2-6.9-1.8c-2.5-1.2-5-2.8-7.6-3.7c-18-5.9-36.2-11.2-54.8-14.8c-6-1.2-11.8-3.8-18.2-2.7
		c-19.6-4-39.4-5.9-59.4-6.4c-12.8-0.3-25.6-1-38.4,0.5c-8.1-0.9-16.1-0.4-24.1,0.5c-5.7,0.6-11.3,1.1-17,1.9
		c-11.2,1.7-22.7,2.3-33.5,6C414.6,198.5,411.7,198.5,408.8,198.5z"/>
	<path fill="#F4C549" d="M868.7,576.6c1.3,6,3.2,12,3.9,18.1c2.4,19.4,6.5,38.5,7.2,58.2c0.2,4.8,1.3,9.5,1.4,14.2
		c0.3,17.7-1.4,35.2-6.1,52.4c-2.8,10.2-7.3,19.6-13.1,28.5c-8,12.3-18.6,21.6-31.5,28.4c-10.6,5.6-22,9.3-33.7,11.7
		c-15.9,3.3-31.9,5.6-48,7.4c-25.7,2.8-51.4,2.3-77.2,2.1c-8.1-0.1-16.2,0-24.2-1.6c-1.4-0.3-2.8-0.3-4.3-0.3
		c-19.6,0-39-2.2-58.5-3.8c-11.9-1-23.7-2.6-35.5-4.2c-8-1-16-2.5-24-3.6c-28.8-4-57.1-10.7-85.3-17.9c-6.9-1.8-13.6-4.4-20.4-6.6
		c0.4-0.7,0.6-1.4,0.6-2.2c13.1,1.6,26.2,3,39.2,4.9c8,1.2,15.9,1.7,23.9,1.2c2.8,0.3,5.6,0.7,8.4,0.8c20.3,0.7,40.6,0.3,60.9-0.9
		c9.9-0.6,19.7-2,29.5-3.4c4.6-0.7,9.1-2.2,13.7-3.3c25.6-2.7,50-10.1,73.9-19.4c0.9-0.1,1.9-0.2,2.8-0.5
		c34-12.3,65.8-28.9,95.4-49.8c1.1-0.8,1.9-2.1,2.9-3.1c9.6-5.3,18-12.4,26-19.8c15.8-14.4,31-29.5,43.9-46.6
		c5.9-7.9,12.5-15.5,16.3-24.9c3.2-2.3,4.7-5.9,6.6-9.2C865,580.8,866.1,578.1,868.7,576.6z"/>
	<path fill="#66BFC3" d="M276.8,249.2c0,14.8,0.1,29.6,0.1,44.3c0,3.8-0.1,7.6-1.5,11.3c-0.8,2.2-1.4,4.7-1.2,7
		c0.5,8.3-2,16.1-4.4,23.7c-4.8,14.9-7.7,30.4-12,45.4c-1,3.6-0.1,7.8-1.3,11.3c-3,8.8-2.3,17.9-2.4,26.9c-0.1,9.1,0,18.1,0,27.2
		c0,6.2-0.5,12.4,2.2,18.3c0.8,9.5,1.7,19.1-0.6,28.4c-1.1,4.2-1.6,8.4-1.6,12.7c0,12.9,0,25.7,0,38.6c0,4.8-0.3,9.6,1.9,14
		c0.4,0.8,0.6,1.8,0.6,2.8c0,9.7,3.4,18.6,5.6,27.8c2.1,8.8,3.7,17.7,7,26.1c2.3,5.9,1.2,12.4,4.1,18c0.9,11.3,4.5,22.3,3.9,33.9
		c-0.5,10-0.1,20-0.2,30c0,5-2.3,5.9-6.2,6.3c-0.9,0.1-1.9,0.2-2.8,0.3c-2.2-0.8-4.5-1.3-6.6-2.3c-20.9-9.8-41.5-20.5-61-32.8
		c-6-3.8-11.8-7.7-17.7-11.6c0.6-1.8,0.7-3.9,1.8-5.3c9.1-12.6,14-27,17.9-41.7c1.7-6.4,4-12.8,3.3-19.6c4.8-13.9,1.9-28.4,2.6-42.5
		c0.1-1.9,0-4-0.7-5.6c-2-4.5-2.1-9.3-2.3-14c0-0.5,0-1-0.2-1.4c-3.5-8.7-2.5-17.8-2.5-26.8c-0.1-17.2,0-34.3,0-51.5
		c0-5.2,0.3-10.5,0.4-15.7c1.8-0.3,3.8-0.4,5.5-1.1c6.5-2.4,9.4-7.4,9.7-14.1c0.2-4.6-2.2-7.6-7.1-9.1c-0.9-0.3-1.8-0.4-2.8-0.5
		c0-7.6,0-15.3,0-22.9c-0.1-6.7,0.3-13.3-2.2-19.8c-1.8-4.9,0.2-10.5-2.5-15.4c-2.4-12.2-6.7-23.8-11.3-35.4
		c-0.4-2.6,0.7-4.7,2.4-6.5c3.7-3.7,7.4-7.4,11.4-10.9c18.4-16,38.4-29.9,59.3-42.3C266.9,253.5,274.5,249.6,276.8,249.2z"/>
	<path fill="#F4C549" d="M279.8,709.8c5.6,0.9,10.6,3.5,15.7,5.8c5.9,2.8,11.8,5.7,17.7,8.3c3,1.3,6.2,2,9.3,2.9
		c2.8,1.5,5.4,3.5,8.3,4.4c4.4,1.4,8.3,3.7,12.1,6c1.1,1.5,2.1,3.2,3.3,4.6c12.1,13.5,24.3,26.9,36.5,40.3
		c8.3,9.2,16.3,18.7,23.4,28.9c10.7,15.3,19,31.9,25.9,49.3c4.2,10.6,8.1,21.4,12.3,32c3.3,8.5,7.2,16.6,12,24.3
		c1.3,2,2.2,4.2,3.1,6.4c0.7,1.7-1.3,5.5-3.2,5.7c-3.3,0.3-6.7,0.9-9.9,0.3c-8.4-1.5-16.9-2.9-25.1-5.7
		c-22.8-7.9-43.3-19.8-61.5-35.6c-24.5-21.4-42.8-47.2-55.1-77.4c-8.2-20.4-15.4-41.1-20.2-62.5
		C281.6,735.5,279.1,722.8,279.8,709.8z"/>
	<path fill="#66BFC3" d="M408.8,198.5c2.9,0,5.7,0,8.6,0c0.1,2.9-0.4,5.6-1.3,8.4c-4.5,14.5-9.3,28.9-10.3,44.2
		c-0.1,0.9-0.2,2-0.6,2.8c-2.7,4.8-1.1,10.4-3.2,15.3c-2.2,5-1.4,10.3-1.9,15.5c-0.1,1.4-0.3,2.9-0.9,4.2c-1.8,4.1-1.8,8.3-1.9,12.6
		c0,1.9,0.2,4-0.5,5.6c-2.7,5.9-2.1,12.1-2.4,18.3c-0.1,2.3-0.3,4.8-1.1,7c-1.8,4.6-1.6,9.3-1.6,14.1c0,23.8,0,47.6,0,71.4
		c0,2.9,0.1,5.7,0.3,8.6c0.2,2,1.5,3.4,3.1,4.6c-1.7,1.8-4.1,2.3-6.3,3.1c-14.5,4.9-28,11.9-40.4,20.9c-6.5,4.8-13,9.6-19.5,14.4
		c-0.1-10.9-0.2-21.9-0.3-32.8c0-1.9-0.2-4,0.5-5.6c2.8-6.4,2.5-13.1,2.2-19.7c-0.3-5.9,3-11,3-16.8c0-5.7-0.3-11.4,1.8-16.9
		c1-2.6,1-5.6,1-8.4c0.1-12.4,0.1-24.7,0-37.1c0-2.4,0.3-5-0.5-7.1c-3-7.8-2.2-15.9-2.3-24c-0.1-5.2,0.3-10.5-2-15.4
		c-0.6-1.2-0.8-2.8-0.7-4.2c0.7-8.7-1.4-17-3.2-25.3c-1.8-7.8-2.4-15.9-5-23.5c-0.6-1.7-0.4-3.8-0.6-5.7c5.8-4.3,12.7-6,19.3-8.4
		c19-7,54.7-18.1,66.8-20.1L408.8,198.5z"/>
	<path fill="#66BFC3" d="M868.7,576.6c-2.6,1.5-3.7,4.3-5.2,6.7c-1.9,3.3-3.4,6.8-6.6,9.2c-0.2-9.5-0.3-19.1-0.5-28.6
		c-0.1-3.3,0.5-7-0.7-9.9c-2.6-7-2-14.1-2.2-21.2c-0.1-3.3,0.5-7-0.6-9.9c-2.8-7.4-2.1-15-2.2-22.6c-0.1-5.7,0.1-11.4-2-16.9
		c-1.6-4-1.6-8.7-0.1-12.7c2.4-6.5,2-13.1,2.1-19.8c0.1-4.8-0.6-9.8,0.7-14.2c2.2-7.1,2-14.1,2.2-21.2c0.1-3.8-0.3-7.9,0.9-11.3
		c1.9-5.6,1.9-11.2,1.9-17c0.1-8.6,0.2-17.2,0.3-25.8c2.8,1.9,4.1,4.8,5.7,7.6c1.7,2.7,3.5,5.3,5.3,7.9c2,7.4,6.1,13.8,9.4,20.5
		c-0.2,5.7-0.5,11.4-0.5,17.2c0,41.5-0.1,83,0,124.5c0,5.7,0.5,11.4,0.7,17.1C874.6,562.9,871.6,569.7,868.7,576.6z"/>
	<path fill="#66BFC3" d="M420.2,756.8c-1-0.9-1.9-1.9-2.9-2.8c-3-12.3-5.8-24.6-9-36.8c-1.1-4.2-1.9-8.3-2.4-12.6
		c-0.9-7-2.5-14-3.9-21c-0.3-1.4-1.2-2.7-1.2-4.1c0.2-8.2-2.1-16-3.2-24c-0.5-3.8-0.9-7.5-1.9-11.2c-1-3.6-0.9-7.5-1.1-11.3
		c-0.2-4.8-0.1-9.5-1.7-14.1c-1-3.1-1.2-6.6-1.2-9.9c0-26.3,0.1-52.6,0.2-78.9c-1.3-0.6-2.5-1.5-3.8-1.8c-15.7-4-30.6-10-45-17.3
		c-4.6-2.4-9.5-4.3-14.2-6.5c0.1,6.2-0.8,12.5,0.6,18.4c1.3,5.6,1.9,11.2,2,16.9c0.1,3.3,0,6.8,1,9.8c2,5.6,1.8,11.2,1.8,16.9
		c0,5.8,3.1,10.9,3,16.8c-0.3,13.8-0.1,27.6-0.1,41.4c0,2.4,0.2,5-0.6,7c-2.5,5.9-2.1,12.1-2.2,18.3c-0.1,6.2,0.4,12.3-2.2,18.3
		c-0.7,1.7-0.6,3.7-0.6,5.6c-0.1,6.2,0.2,12.4-2.4,18.2c-0.6,1.2-0.4,2.8-0.4,4.2c0,3.8-0.9,7.4-1.9,11.1
		c-1.8,6.3-2.9,12.9-4.3,19.4c2.8,1.5,5.4,3.5,8.3,4.4c4.4,1.4,8.3,3.7,12.1,6c3.2,0.7,6.5,1.2,9.6,2.2c14.8,4.8,29.7,9.2,44.8,12.8
		c3.2,0.8,6.2,2.4,9.5,2.5c3.7,2.9,8.2,3.6,12.6,4.6C419.9,758.6,420.1,757.7,420.2,756.8z"/>
	<path fill="#0A2433" d="M172,521.9c-0.8,12.9-5.6,23.3-17,29.9c-8.4,4.9-17.9,3.9-25.2-2.4c-1-0.9-2-2.2-2.4-3.5
		c-0.4-1.2-0.5-3,0.2-4c0.6-0.9,2.4-1.7,3.6-1.6c2.8,0.4,5.5,1.6,8.3,2.1c5,0.9,9.4-0.7,13.1-4.3c3.9-3.8,6.4-8.3,6.9-13.8
		c0.3-3.3,0.1-6.7,0.3-10c0.1-2.5,2-5,3.9-5.3c1.9-0.3,4.8,1.3,5.9,3.4c0.6,1.3,1.3,2.6,1.6,3.9C171.5,518.3,171.7,520.2,172,521.9z
		"/>
	<path fill="#0A2433" d="M208.2,407.6c0.9,0.2,1.9,0.3,2.8,0.5c4.9,1.5,7.2,4.5,7.1,9.1c-0.3,6.7-3.2,11.7-9.7,14.1
		c-1.7,0.6-3.7,0.7-5.5,1.1c-2-2-3.7-4.1-3.8-7.2C199,417.7,201.3,411.5,208.2,407.6z"/>
	<path fill="#F4C549" d="M391.9,530.2c-1.3-0.6-2.5-1.5-3.8-1.8c-15.7-4-30.6-10-45-17.3c-4.6-2.4-9.5-4.3-14.2-6.5
		c-2.1-2.5-4.3-4.9-6.3-7.4c-3.1-4-3.7-8.7-1.7-13.2c2.3-5.1,5.2-9.8,7.9-14.7c6.5-4.8,13-9.6,19.5-14.4c12.4-9,25.9-16,40.4-20.9
		c2.2-0.8,4.6-1.2,6.3-3.1c2.4-0.3,4.8-0.3,7-1c10.7-3.2,21.7-2.5,32.6-2c14.4,0.7,24,8,29.3,21.3c0.7,1.8,1.5,3.5,2.1,5.3
		c4.6,14.9,4.4,30,1,45.1c-1.4,6.1-3.9,11.8-7.1,17.1c-3.5,5.9-8.1,10.7-14.6,13.2c-4.9,1.8-9.9,3.4-15.2,3.5
		c-8.6,0.1-17.1,0.6-25.6-1.6C400.6,530.9,396.2,530.7,391.9,530.2z"/>
	<path fill="#7ACFD3" d="M669.8,737.1c-23.9,9.3-48.3,16.6-73.9,19.4c-0.6-3.3-0.6-6.8-1.8-9.8c-2-5.1-0.4-10.6-2.2-15.5
		c-2.1-5.6-2-11.2-2.2-16.9c-0.1-3.3,0-6.8-1.1-9.9c-1.6-4.7-1.7-9.4-1.7-14.1c-0.1-4.8,0.2-9.5-1.8-14.1c-0.6-1.3-1-2.8-0.9-4.2
		c0.4-7.3-1.6-14.1-3-21.1c-2.6-13.5-5.3-27-9.2-40.2c-3.9-13.7-8.9-27.2-8.3-41.7c0.1-1.8-0.6-3.7-1-5.6
		c-2.7-10.8-2.4-21.7-0.2-32.5c0.7-3.2,1.3-6.6,1.3-9.9c0.1-28.6,0.1-57.3,0-85.9c0-2.8-0.2-5.7-0.9-8.5c-3-12.7-3.1-25.4,0.2-38.1
		c0.6-2.3,0.6-4.7,0.7-7.1c0.2-2.4-0.2-4.9,0.4-7.1c3-11.5,4.6-23.3,8.3-34.6c3.8-11.7,6.6-23.8,8.9-35.9c1.3-7,2.8-13.9,2.7-21.1
		c0-1.9,0.2-3.9,0.9-5.6c2-4.6,1.7-9.3,1.8-14.1c0.1-3.8-0.1-7.8,1-11.3c1.5-4.7,1.8-9.3,1.8-14.1c0-2.9-0.7-6,0.3-8.5
		c3.2-8.1,1.5-17.1,4.9-25.1c0.7-1.7-0.2-3.7-1.9-5c-1.1-0.9-2.1-1.9-3.2-2.8c6.3-1.1,12.2,1.6,18.2,2.7
		c18.6,3.6,36.8,8.9,54.8,14.8c2.7,0.9,5.1,2.4,7.6,3.7c-0.7,3.9,0.2,7.4,1.5,11.2c3.4,10.4,5.7,21,6.8,31.9c0.2,1.9,0.3,3.9,1,5.6
		c1.8,4.1,1.7,8.4,1.8,12.7c0,1.9-0.2,4,0.5,5.7c2.9,6.9,2.2,14.1,2.3,21.2c0,12.9,0,25.8,0,38.7c0,5.7,0.3,11.4-2.1,16.9
		c-0.7,1.7-0.7,3.7-0.7,5.6c-0.2,7.6,0.2,15.2-2.6,22.6c-1.3,3.5-0.3,7.7-1.4,11.2c-1.6,4.7-1.7,9.3-1.8,14.1
		c-0.1,3.8,0.3,7.8-0.9,11.3c-1.9,5.6-1.9,11.2-1.9,16.9c0,22,0,43.9,0,65.9c0,7.6-0.8,15.3,2.3,22.6c0.5,1.3,0.6,2.8,0.4,4.2
		c-1,10.6,4,20.6,3.2,31.1c3.5,7.7,2.3,15.9,2.8,24c0.1,1.9,0.4,3.8,1.1,5.6c1.7,4.1,1.7,8.4,1.7,12.7c0,13.8,0,27.7,0,41.5
		c0,7.1,0.6,14.3-2.2,21.2c-0.8,2.1-0.5,4.7-0.6,7.1c-0.2,2.4,0.1,4.9-0.5,7.1c-4.1,13.6-4.5,28.1-9.8,41.5
		C669.9,730.2,670.2,733.8,669.8,737.1z"/>
	<path fill="#66BFC3" d="M589.8,196c1.1,1,2.1,2,3.2,2.8c1.7,1.3,2.6,3.3,1.9,5c-3.4,8-1.7,17-4.9,25.1c-1,2.5-0.3,5.7-0.3,8.5
		c-0.1,4.8-0.3,9.4-1.8,14.1c-1.2,3.5-0.9,7.5-1,11.3c-0.2,4.8,0.1,9.5-1.8,14.1c-0.7,1.7-1,3.7-0.9,5.6c0.1,7.2-1.3,14.1-2.7,21.1
		c-2.3,12.2-5.1,24.2-8.9,35.9c-3.7,11.3-5.2,23.1-8.3,34.6c-0.6,2.3-0.3,4.7-0.4,7.1c-0.2,2.4-0.1,4.8-0.7,7.1
		c-3.3,12.7-3.1,25.4-0.2,38.1c0.6,2.8,0.9,5.7,0.9,8.5c0.1,28.6,0.1,57.3,0,85.9c0,3.3-0.7,6.6-1.3,9.9
		c-2.2,10.9-2.5,21.7,0.2,32.5c0.5,1.8,1.1,3.7,1,5.6c-0.6,14.6,4.4,28.1,8.3,41.7c3.8,13.3,6.6,26.7,9.2,40.2
		c1.3,7,3.4,13.9,3,21.1c-0.1,1.4,0.3,2.9,0.9,4.2c2,4.5,1.7,9.3,1.8,14.1c0.1,4.8,0.1,9.4,1.7,14.1c1.1,3.1,1,6.6,1.1,9.9
		c0.2,5.7,0,11.3,2.2,16.9c1.8,4.9,0.2,10.4,2.2,15.5c1.2,3,1.3,6.5,1.8,9.8c-4.6,1.2-9,2.7-13.7,3.4c-9.8,1.4-19.6,2.8-29.5,3.4
		c-20.3,1.2-40.6,1.6-60.9,0.9c-2.8-0.1-5.6-0.5-8.4-0.8c0.2-2.8-0.2-6,0.8-8.5c2.5-6,2-12.1,2.3-18.3c0.1-3.3,0.4-6.7,1.3-9.9
		c2-7.1,2-14,0-21.1c-0.9-3.2-1.5-6.6-1.2-9.8c1.2-11.1-3.4-21.6-3.5-32.5c-3.6-9.9-4.4-20.4-7.3-30.4c-2.5-8.7-4.1-17.6-5.6-26.4
		c-1.5-8.8-0.8-18-1-27.1c0-1.9,0-3.8,0-5.7c0.1-5.7-0.6-11.6,0.4-17.1c1.1-6.5,2.1-13.1,3.3-19.6c0.8-4.7,2.2-9.2,2.3-14
		c0-1.4,0.2-2.9,0.7-4.2c3.5-9.4,4.3-19.5,6.8-29.1c1.5-5.5,1.6-20.3,0-25.5c-2.9-9.1-4.4-18.5-6.2-27.8c-1.9-9.7-4.9-19.4-4.5-29.5
		c0.1-1.4-0.5-2.8-1-4.1c-1.5-3.6-1.6-7.4-1.6-11.3c0-11.9,0-23.9,0-35.8c0-2.4-0.1-4.8,0.4-7.1c2.1-9.7,4.5-19.4,6.6-29.1
		c1.5-7,3.7-13.7,4.8-20.8c1-6.5,2.9-13,3.1-19.7c3-6.3,2.3-13.1,2.4-19.7c0.1-3.8-0.1-7.6,1.2-11.3c2.4-7,2.1-14,0.2-21.1
		c-0.9-3.2-1.3-6.6-1.3-9.8c0-5.3-0.6-10.4-2.3-15.4c-1.5-4.5-0.2-6.4,4.4-8.8c1.2-0.6,2.4-1.6,3.5-2.3c12.8-1.4,25.6-0.8,38.4-0.5
		C550.4,190,570.2,192,589.8,196z"/>
	<path fill="#66BFC3" d="M669.8,737.1c0.4-3.3,0.1-6.9,1.3-9.8c5.4-13.4,5.8-27.9,9.8-41.5c0.7-2.2,0.4-4.7,0.5-7.1
		c0.2-2.4-0.2-5,0.6-7.1c2.8-6.9,2.2-14.1,2.2-21.2c0-13.8,0-27.7,0-41.5c0-4.3,0-8.6-1.7-12.7c-0.7-1.7-1-3.7-1.1-5.6
		c-0.5-8.1,0.7-16.3-2.8-24c0.8-10.6-4.2-20.5-3.2-31.1c0.1-1.4,0.1-3-0.4-4.2c-3.1-7.3-2.3-15-2.3-22.6c-0.1-22,0-43.9,0-65.9
		c0-5.7,0-11.3,1.9-16.9c1.2-3.5,0.8-7.5,0.9-11.3c0.2-4.8,0.3-9.4,1.8-14.1c1.2-3.5,0.2-7.8,1.4-11.2c2.7-7.4,2.3-15,2.6-22.6
		c0.1-1.9,0-4,0.7-5.6c2.4-5.5,2.1-11.2,2.1-16.9c0-12.9,0-25.8,0-38.7c0-7.1,0.6-14.3-2.3-21.2c-0.7-1.7-0.5-3.8-0.5-5.7
		c-0.1-4.3-0.1-8.6-1.8-12.7c-0.7-1.7-0.8-3.7-1-5.6c-1-10.9-3.3-21.6-6.8-31.9c-1.2-3.7-2.1-7.3-1.5-11.2c2.3,0.6,4.7,1,6.9,1.8
		c32.4,12.4,63,28.3,91.2,48.6c0.7,0.5,1.2,1.4,1.8,2.1c0.1,2.9-0.2,5.9,0.6,8.5c1.6,5.1,2.5,10.1,2.4,15.4c0,2.3,0.3,4.8,1.1,7
		c1.6,4.1,1.6,8.4,1.6,12.7c0,8.6,0,17.2,0,25.8c0,2.9,0.4,6-0.6,8.5c-2.6,6.5-2,13.1-2.2,19.8c-0.1,3.3-0.2,6.7-0.9,9.9
		c-2.9,12.9-5.4,26-7.8,39c-1.2,6.5-2.5,13-4,19.5c-2.3,9.9-2.4,19.8,0,29.6c1.9,7.5,1.8,15-0.1,22.6c-2.4,9.4-2.2,18.8-0.2,28.3
		c0.5,2.3,1.1,4.6,1.5,6.9c1.3,7,2.6,14,3.9,21c1.7,8.8,3.7,17.6,5.1,26.5c1.4,8.9,2.8,17.8,2.7,26.9c0,0.9,0.1,2,0.5,2.8
		c2.7,5.9,2.2,12.1,2.2,18.3c0,7.6,0,15.3,0,22.9c0,4.8-0.5,9.4-1.7,14.1c-1.8,7.3-2.1,15-3.9,22.4c-0.4,1.8,0.1,3.8,0.2,5.7
		c-0.9,1-1.7,2.3-2.9,3.1c-29.6,20.8-61.3,37.4-95.4,49.8C671.7,737,670.7,737,669.8,737.1z"/>
	<path fill="#7ACFD3" d="M492,190.1c-1.2,0.8-2.3,1.7-3.5,2.3c-4.6,2.4-5.9,4.3-4.4,8.8c1.7,5.1,2.3,10.1,2.3,15.4
		c0,3.3,0.4,6.7,1.3,9.8c2,7.1,2.2,14.1-0.2,21.1c-1.3,3.7-1.1,7.5-1.2,11.3c-0.1,6.7,0.6,13.4-2.4,19.7c-0.1,6.7-2.1,13.1-3.1,19.7
		c-1.1,7.1-3.3,13.9-4.8,20.8c-2.1,9.7-4.5,19.4-6.6,29.1c-0.5,2.3-0.4,4.7-0.4,7.1c0,11.9,0,23.9,0,35.8c0,3.8,0,7.6,1.6,11.3
		c0.5,1.3,1.1,2.8,1,4.1c-0.4,10.1,2.6,19.7,4.5,29.5c1.9,9.3,3.4,18.7,6.2,27.8c1.6,5.2,1.5,20.1,0,25.5
		c-2.5,9.6-3.3,19.7-6.8,29.1c-0.5,1.3-0.7,2.8-0.7,4.2c0,4.8-1.5,9.4-2.3,14c-1.1,6.5-2.1,13.1-3.3,19.6c-1,5.6-0.3,11.4-0.4,17.1
		c0,1.9-0.1,3.8,0,5.7c0.2,9-0.5,18.3,1,27.1c1.5,8.8,3.1,17.8,5.6,26.4c2.9,10,3.7,20.6,7.3,30.4c0.1,10.9,4.6,21.4,3.5,32.5
		c-0.3,3.2,0.3,6.7,1.2,9.8c2,7.1,2,14,0,21.1c-0.9,3.2-1.1,6.5-1.3,9.9c-0.3,6.2,0.2,12.3-2.3,18.3c-1.1,2.5-0.6,5.6-0.8,8.5
		c-8,0.5-15.9,0-23.9-1.2c-13-1.9-26.1-3.3-39.2-4.9c-0.9-0.9-1.8-1.8-2.7-2.6c-3-12.5-5.9-25-9.2-37.4c-1.1-4.2-1.9-8.3-2.4-12.6
		c-0.9-7-2.5-14-3.9-21c-0.3-1.4-1.2-2.7-1.2-4.1c0.2-8.2-2.1-16-3.2-24c-0.5-3.8-0.9-7.5-1.9-11.2c-1-3.6-0.9-7.5-1.1-11.3
		c-0.2-4.8-0.1-9.5-1.7-14.1c-1-3.1-1.2-6.6-1.2-9.9c0-26.3,0.1-52.6,0.2-78.9c4.3,0.5,8.6,0.6,12.7,1.7c8.5,2.2,17,1.8,25.6,1.6
		c5.3-0.1,10.4-1.7,15.2-3.5c6.5-2.4,11.1-7.3,14.6-13.2c3.2-5.3,5.7-11,7.1-17.1c3.4-15.1,3.6-30.2-1-45.1
		c-0.6-1.8-1.4-3.5-2.1-5.3c-5.3-13.3-14.9-20.6-29.3-21.3c-10.9-0.6-21.9-1.2-32.6,2c-2.2,0.7-4.7,0.7-7,1
		c-1.6-1.2-2.9-2.6-3.1-4.6c-0.2-2.8-0.3-5.7-0.3-8.6c0-23.8,0-47.6,0-71.4c0-4.7-0.2-9.5,1.6-14.1c0.8-2.2,1.1-4.6,1.1-7
		c0.2-6.2-0.3-12.4,2.4-18.3c0.7-1.6,0.5-3.7,0.5-5.6c0.1-4.3,0.1-8.6,1.9-12.6c0.6-1.3,0.7-2.8,0.9-4.2c0.4-5.2-0.3-10.4,1.9-15.5
		c2.1-4.8,0.5-10.5,3.2-15.3c0.4-0.8,0.5-1.8,0.6-2.8c1-15.3,5.8-29.7,10.3-44.2c0.9-2.8,1.4-5.5,1.3-8.4c10.9-3.7,22.3-4.3,33.5-6
		c5.6-0.9,11.3-1.3,17-1.9C475.9,189.7,484,189.2,492,190.1z"/>
	<path fill="#7ACFD3" d="M770.8,683.8c-0.1-1.9-0.6-3.9-0.2-5.7c1.8-7.4,2.1-15.1,3.9-22.4c1.2-4.7,1.7-9.3,1.7-14.1
		c0-7.6,0-15.3,0-22.9c0-6.2,0.5-12.4-2.2-18.3c-0.4-0.8-0.5-1.9-0.5-2.8c0.1-9.1-1.3-17.9-2.7-26.9c-1.4-8.9-3.4-17.7-5.1-26.5
		c-1.4-7-2.6-14-3.9-21c-0.4-2.3-1-4.6-1.5-6.9c-2-9.4-2.3-18.9,0.2-28.3c1.9-7.6,2-15,0.1-22.6c-2.4-9.9-2.3-19.7,0-29.6
		c1.5-6.5,2.7-13,4-19.5c2.5-13,5-26.1,7.8-39c0.7-3.2,0.8-6.6,0.9-9.9c0.2-6.6-0.3-13.3,2.2-19.8c1-2.5,0.6-5.6,0.6-8.5
		c0.1-8.6,0-17.2,0-25.8c0-4.3,0-8.5-1.6-12.7c-0.8-2.2-1.2-4.7-1.1-7c0.1-5.3-0.9-10.4-2.4-15.4c-0.8-2.6-0.4-5.7-0.6-8.5
		c9.1,4.5,16.5,11.3,24,17.8c22.7,19.8,42.8,42,59.4,67.3c1.3,1.9,2,4.2,3,6.4c-0.1,8.6-0.2,17.2-0.3,25.8c-0.1,5.7,0,11.3-1.9,17
		c-1.2,3.5-0.8,7.5-0.9,11.3c-0.2,7.1,0.1,14.2-2.2,21.2c-1.4,4.4-0.6,9.5-0.7,14.2c-0.2,6.6,0.3,13.3-2.1,19.8
		c-1.5,4-1.4,8.7,0.1,12.7c2.1,5.6,1.9,11.2,2,16.9c0.1,7.6-0.5,15.2,2.2,22.6c1.1,3,0.5,6.6,0.6,9.9c0.2,7.1-0.4,14.2,2.2,21.2
		c1.1,3,0.6,6.6,0.7,9.9c0.2,9.5,0.3,19.1,0.5,28.6c-3.8,9.4-10.3,17-16.3,24.9c-12.9,17.2-28.1,32.2-43.9,46.6
		C788.7,671.4,780.4,678.5,770.8,683.8z"/>
</g>
</svg>
