<?xml version="1.0" encoding="utf-8"?>
<!-- Generator: Adobe Illustrator 24.1.2, SVG Export Plug-In . SVG Version: 6.00 Build 0)  -->
<svg version="1.1" id="Layer_1" xmlns="http://www.w3.org/2000/svg" xmlns:xlink="http://www.w3.org/1999/xlink" x="0px" y="0px"
	 viewBox="0 0 700 380" style="enable-background:new 0 0 700 380;" xml:space="preserve">
<style type="text/css">
	.st0{fill:#1F497D;}
	.st1{font-family:'SegoeUI-Bold';}
	.st2{font-size:16px;}
	.st3{clip-path:url(#XMLID_4_);fill:#D6EAF8;}
	.st4{fill:#2980B9;}
	.st5{fill:#FFFFFF;}
	.st6{font-family:'Arial-BoldMT';}
	.st7{font-size:12px;}
	.st8{fill:#333333;}
	.st9{font-family:'ArialMT';}
	.st10{clip-path:url(#XMLID_5_);fill:#FADBD8;}
	.st11{fill:#E74C3C;}
	.st12{fill:#DBE5F1;}
	.st13{fill:#FADBD8;}
	.st14{font-size:9px;}
	.st15{fill:#FFFFFF;stroke:#1F497D;stroke-width:1.5;}
</style>
<text transform="matrix(1 0 0 1 225.6367 25)" class="st0 st1 st2">TCP vs. UDP (Layer 4 - Transport)</text>
<g>
	<defs>
		<path id="XMLID_1_" d="M26,55h308c3.3,0,6,2.7,6,6v188c0,3.3-2.7,6-6,6H26c-3.3,0-6-2.7-6-6V61C20,57.7,22.7,55,26,55z"/>
	</defs>
	<use xlink:href="#XMLID_1_"  style="overflow:visible;fill:#FFFFFF;"/>
	<clipPath id="XMLID_4_">
		<use xlink:href="#XMLID_1_"  style="overflow:visible;"/>
	</clipPath>
	<path class="st3" d="M23.2,236h313.6c1.8,0,3.2,1.3,3.2,3v12c0,1.7-1.4,3-3.2,3H23.2c-1.8,0-3.2-1.3-3.2-3v-12
		C20,237.3,21.4,236,23.2,236z"/>
	<use xlink:href="#XMLID_1_"  style="overflow:visible;fill:none;stroke:#2980B9;stroke-width:2;"/>
</g>
<path class="st4" d="M26,55h308c3.3,0,6,2.7,6,6v12c0,3.3-2.7,6-6,6H26c-3.3,0-6-2.7-6-6V61C20,57.7,22.7,55,26,55z"/>
<text transform="matrix(1 0 0 1 87.1606 72)" class="st5 st6 st7">TCP - Transmission Control Protocol</text>
<g>
	<text transform="matrix(1 0 0 1 52.377 101)" class="st8 st9 st7">Connection-oriented (3-way handshake)</text>
	<text transform="matrix(1 0 0 1 52.377 118.3333)" class="st8 st9 st7">Reliable: guaranteed delivery, order, error check</text>
	<text transform="matrix(1 0 0 1 52.377 135.6667)" class="st8 st9 st7">Slower due to acknowledgment overhead</text>
	<text transform="matrix(1 0 0 1 52.377 153)" class="st8 st9 st7">Like a phone call - must connect first</text>
</g>
<g>
	<text transform="matrix(1 0 0 1 46.4599 187)" class="st4 st6 st7">Protocols:</text>
	<g>
		<text transform="matrix(1 0 0 1 122.8057 187)" class="st8 st9 st7">HTTP(80) HTTPS(443) FTP(20/21)</text>
		<text transform="matrix(1 0 0 1 122.8057 202)" class="st8 st9 st7">SSH(22) SMTP(25/587) RDP(3389)</text>
		<text transform="matrix(1 0 0 1 122.8057 217)" class="st8 st9 st7">IMAP(143) POP3(110) SMB(445)</text>
	</g>
</g>
<text transform="matrix(1 0 0 1 36.887 249)" class="st4 st6 st7">Use when data MUST arrive complete and in order</text>
<g>
	<defs>
		<path id="XMLID_2_" d="M366,55h308c3.3,0,6,2.7,6,6v188c0,3.3-2.7,6-6,6H366c-3.3,0-6-2.7-6-6V61C360,57.7,362.7,55,366,55z"/>
	</defs>
	<use xlink:href="#XMLID_2_"  style="overflow:visible;fill:#FFFFFF;"/>
	<clipPath id="XMLID_5_">
		<use xlink:href="#XMLID_2_"  style="overflow:visible;"/>
	</clipPath>
	<path class="st10" d="M358.8,237h323.4c1.8,0,3.3,1.3,3.3,3v12c0,1.7-1.5,3-3.3,3H358.8c-1.8,0-3.3-1.3-3.3-3v-12
		C355.5,238.3,357,237,358.8,237z"/>
	<use xlink:href="#XMLID_2_"  style="overflow:visible;fill:none;stroke:#E74C3C;stroke-width:2;"/>
</g>
<path class="st11" d="M366,55h308c3.3,0,6,2.7,6,6v12c0,3.3-2.7,6-6,6H366c-3.3,0-6-2.7-6-6V61C360,57.7,362.7,55,366,55z"/>
<text transform="matrix(1 0 0 1 441.0745 72)" class="st5 st6 st7">UDP - User Datagram Protocol</text>
<g>
	<text transform="matrix(1 0 0 1 402.5146 101)" class="st8 st9 st7">Connectionless (no handshake)</text>
	<text transform="matrix(1 0 0 1 402.5146 118.3333)" class="st8 st9 st7">Unreliable: no guarantee of delivery or order</text>
	<text transform="matrix(1 0 0 1 402.5146 135.6667)" class="st8 st9 st7">Faster - fire and forget, no overhead</text>
	<text transform="matrix(1 0 0 1 402.5146 153)" class="st8 st9 st7">Like mailing a letter - send and hope</text>
</g>
<g>
	<text transform="matrix(1 0 0 1 393.1367 187)" class="st11 st6 st7">Protocols:</text>
	<g>
		<text transform="matrix(1 0 0 1 469.4822 187)" class="st8 st9 st7">DNS(53) DHCP(67/68) NTP(123)</text>
		<text transform="matrix(1 0 0 1 469.4822 202)" class="st8 st9 st7">SNMP(161/162) SIP(5060/5061)</text>
		<text transform="matrix(1 0 0 1 469.4822 217)" class="st8 st9 st7">VoIP, streaming, gaming</text>
	</g>
</g>
<g>
	<text transform="matrix(1 0 0 1 385.2983 250)" class="st11 st6 st7">Use when SPEED matters more than perfection</text>
</g>
<g>
	<rect x="30" y="168" class="st12" width="300" height="2"/>
	<rect x="370" y="168" class="st13" width="300" height="2"/>
	<circle class="st0" cx="350" cy="166" r="14"/>
	<text transform="matrix(1 0 0 1 344.52 170)" class="st5 st6 st14">VS</text>
</g>
<path class="st15" d="M26,268.5h648c3.3,0,6,2.7,6,6v98c0,3.3-2.7,6-6,6H26c-3.3,0-6-2.7-6-6v-98C20,271.2,22.7,268.5,26,268.5z"/>
<path class="st0" d="M26,268.5h648c3.3,0,6,2.7,6,6v8c0,3.3-2.7,6-6,6H26c-3.3,0-6-2.7-6-6v-8C20,271.2,22.7,268.5,26,268.5z"/>
<text transform="matrix(1 0 0 1 282.4319 284)" class="st5 st6 st7">Quick Comparison + Exam Facts</text>
<g>
	<g>
		<text transform="matrix(1 0 0 1 168.8662 305.5)" class="st4 st6 st7">TCP</text>
		<text transform="matrix(1 0 0 1 198.8662 305.5)" class="st8 st9 st7">= Reliable, slow, connection-oriented, web/email/file transfer</text>
		<text transform="matrix(1 0 0 1 168.8662 323.5)" class="st11 st6 st7">UDP</text>
		<text transform="matrix(1 0 0 1 198.8662 323.5)" class="st8 st9 st7">= Fast, unreliable, connectionless, streaming/VoIP/DNS/DHCP</text>
	</g>
	<g>
		<text transform="matrix(1 0 0 1 131.964 344.6304)" class="st8 st9 st7">• DNS uses BOTH: UDP for queries (fast), TCP for zone transfers (large data)</text>
		<text transform="matrix(1 0 0 1 131.964 360.6304)" class="st8 st9 st7">• Port numbers are a Layer 4 concept. Firewalls filtering by port = Layer 4 devices.</text>
	</g>
</g>
</svg>
